<svg xmlns="http://www.w3.org/2000/svg" xmlns:xlink="http://www.w3.org/1999/xlink" viewBox="0 0 5000 3000"><defs><style>.cls-1{fill:none;}.cls-2{isolation:isolate;}.cls-3{clip-path:url(#clip-path);}.cls-10,.cls-12,.cls-13,.cls-14,.cls-15,.cls-16,.cls-17,.cls-18,.cls-20,.cls-21,.cls-22,.cls-23,.cls-24,.cls-25,.cls-26,.cls-27,.cls-28,.cls-4,.cls-5,.cls-6,.cls-7,.cls-8,.cls-9{mix-blend-mode:screen;}.cls-4{fill:url(#linear-gradient);}.cls-5{fill:url(#linear-gradient-2);}.cls-6{fill:url(#linear-gradient-3);}.cls-7{fill:url(#linear-gradient-4);}.cls-8{fill:url(#linear-gradient-5);}.cls-9{fill:url(#linear-gradient-6);}.cls-10{fill:url(#linear-gradient-7);}.cls-11,.cls-19{opacity:0.5;}.cls-12{fill:url(#linear-gradient-8);}.cls-13{fill:url(#linear-gradient-9);}.cls-14{fill:url(#linear-gradient-10);}.cls-16{fill:red;}.cls-17{fill:url(#linear-gradient-11);}.cls-18{fill:url(#linear-gradient-12);}.cls-19{fill:#16c9e4;}.cls-20{fill:url(#linear-gradient-13);}.cls-21{fill:url(#linear-gradient-14);}.cls-22{fill:url(#linear-gradient-15);}.cls-23{fill:url(#linear-gradient-16);}.cls-24{fill:url(#linear-gradient-17);}.cls-25{fill:url(#linear-gradient-18);}.cls-26{fill:url(#linear-gradient-19);}.cls-27{fill:url(#linear-gradient-20);}.cls-28{fill:url(#linear-gradient-21);}</style><clipPath id="clip-path"><rect class="cls-1" width="5000" height="3000"/></clipPath><linearGradient id="linear-gradient" x1="-1128.37" y1="-1066.84" x2="-99.25" y2="-1066.84" gradientTransform="translate(1908.7 1134.2) rotate(-45)" gradientUnits="userSpaceOnUse"><stop offset="0" stop-color="#16c9e4"/><stop offset="0.06" stop-color="#14b3cb"/><stop offset="0.19" stop-color="#0e8496"/><stop offset="0.33" stop-color="#0a5c68"/><stop offset="0.47" stop-color="#063b42"/><stop offset="0.61" stop-color="#042125"/><stop offset="0.74" stop-color="#020f11"/><stop offset="0.87" stop-color="#000404"/><stop offset="1"/></linearGradient><linearGradient id="linear-gradient-2" x1="-1023.01" y1="-1739.31" x2="6.11" y2="-1739.31" gradientTransform="translate(1908.7 1134.2) rotate(-45)" gradientUnits="userSpaceOnUse"><stop offset="0" stop-color="#1542a3"/><stop offset="0.05" stop-color="#133c95"/><stop offset="0.21" stop-color="#0d2a68"/><stop offset="0.37" stop-color="#091b42"/><stop offset="0.53" stop-color="#050f25"/><stop offset="0.69" stop-color="#020711"/><stop offset="0.85" stop-color="#010204"/><stop offset="1"/></linearGradient><linearGradient id="linear-gradient-3" x1="42.61" y1="-529.44" x2="1071.73" y2="-529.44" xlink:href="#linear-gradient-2"/><linearGradient id="linear-gradient-4" x1="1362.08" y1="2045.87" x2="2391.2" y2="2045.87" xlink:href="#linear-gradient-2"/><linearGradient id="linear-gradient-5" x1="216.56" y1="2808.14" x2="1245.68" y2="2808.14" xlink:href="#linear-gradient"/><linearGradient id="linear-gradient-6" x1="704.47" y1="3382.32" x2="1733.59" y2="3382.32" xlink:href="#linear-gradient-2"/><linearGradient id="linear-gradient-7" x1="316.26" y1="2251.64" x2="1345.38" y2="2251.64" xlink:href="#linear-gradient-2"/><linearGradient id="linear-gradient-8" x1="166.06" y1="-6704.77" x2="4470.57" y2="-6704.77" gradientTransform="translate(-399.95 3371.83) scale(0.43 0.45)" gradientUnits="userSpaceOnUse"><stop offset="0"/><stop offset="0.07" stop-color="#010409"/><stop offset="0.19" stop-color="#040d21"/><stop offset="0.34" stop-color="#091d49"/><stop offset="0.5" stop-color="#10327c"/><stop offset="0.66" stop-color="#091d49"/><stop offset="0.81" stop-color="#040d21"/><stop offset="0.93" stop-color="#010409"/><stop offset="1"/></linearGradient><linearGradient id="linear-gradient-9" x1="7719.25" y1="-244.2" x2="12023.76" y2="-244.2" gradientTransform="translate(706.95 251.52) scale(0.43 0.45)" xlink:href="#linear-gradient-8"/><linearGradient id="linear-gradient-10" x1="3608.54" y1="1967.66" x2="7913.06" y2="1967.66" gradientTransform="translate(1967.73 1685.54) scale(0.43 0.22)" xlink:href="#linear-gradient-8"/><linearGradient id="linear-gradient-11" x1="-172.6" y1="1274.26" x2="719.79" y2="381.87" gradientUnits="userSpaceOnUse"><stop offset="0.18"/><stop offset="1" stop-color="#16c9e4"/></linearGradient><linearGradient id="linear-gradient-12" x1="3249.6" y1="3011.89" x2="3668.94" y2="2592.55" gradientUnits="userSpaceOnUse"><stop offset="0.17"/><stop offset="1" stop-color="#16c9e4"/></linearGradient><linearGradient id="linear-gradient-13" x1="4629.81" y1="2259.53" x2="5453" y2="1436.34" gradientUnits="userSpaceOnUse"><stop offset="0" stop-color="#16c9e4"/><stop offset="0.48"/></linearGradient><linearGradient id="linear-gradient-14" x1="4515.95" y1="651.67" x2="5096.01" y2="71.61" gradientUnits="userSpaceOnUse"><stop offset="0" stop-color="#16c9e4"/><stop offset="0.87"/></linearGradient><linearGradient id="linear-gradient-15" x1="3999.64" y1="3055.54" x2="4600.49" y2="2454.69" xlink:href="#linear-gradient-12"/><linearGradient id="linear-gradient-16" x1="215.18" y1="618.43" x2="1107.56" y2="-273.95" gradientUnits="userSpaceOnUse"><stop offset="0" stop-color="#16c9e4"/><stop offset="0.54"/></linearGradient><linearGradient id="linear-gradient-17" x1="812.56" y1="531.62" x2="1310.19" y2="34" xlink:href="#linear-gradient-14"/><linearGradient id="linear-gradient-18" x1="128.31" y1="3192.05" x2="1059" y2="2261.35" xlink:href="#linear-gradient-12"/><linearGradient id="linear-gradient-19" x1="-10.69" y1="2106.05" x2="920" y2="1175.35" gradientUnits="userSpaceOnUse"><stop offset="0.09"/><stop offset="1" stop-color="#16c9e4"/></linearGradient><linearGradient id="linear-gradient-20" x1="900.37" y1="819.58" x2="1831.07" y2="-111.12" xlink:href="#linear-gradient-14"/><linearGradient id="linear-gradient-21" x1="4227.7" y1="1377.9" x2="5119.96" y2="485.63" xlink:href="#linear-gradient-14"/></defs><g class="cls-2"><g id="Layer_2" data-name="Layer 2"><g id="Layer_1-2" data-name="Layer 1"><g class="cls-3"><path class="cls-4" d="M1084.15,468.19,374.63,1177.71a12.84,12.84,0,0,1-18.17,0h0a12.84,12.84,0,0,1,0-18.17L1066,450a12.84,12.84,0,0,1,18.17,0h0A12.84,12.84,0,0,1,1084.15,468.19Z"/><path class="cls-5" d="M683.15-81.81-26.37,627.71a12.84,12.84,0,0,1-18.17,0h0a12.84,12.84,0,0,1,0-18.17L665-100a12.84,12.84,0,0,1,18.17,0h0A12.84,12.84,0,0,1,683.15-81.81Z"/><path class="cls-6" d="M2292.15,20.19,1582.63,729.71a12.84,12.84,0,0,1-18.17,0h0a12.84,12.84,0,0,1,0-18.17L2274,2a12.84,12.84,0,0,1,18.17,0h0A12.84,12.84,0,0,1,2292.15,20.19Z"/><path class="cls-7" d="M5046.15,908.19l-709.52,709.52a12.84,12.84,0,0,1-18.17,0h0a12.84,12.84,0,0,1,0-18.17L5028,890a12.84,12.84,0,0,1,18.17,0h0A12.84,12.84,0,0,1,5046.15,908.19Z"/><path class="cls-8" d="M4775.15,2257.19l-709.52,709.52a12.84,12.84,0,0,1-18.17,0h0a12.84,12.84,0,0,1,0-18.17L4757,2239a12.84,12.84,0,0,1,18.17,0h0A12.84,12.84,0,0,1,4775.15,2257.19Z"/><path class="cls-9" d="M5526.15,2318.19l-709.52,709.52a12.84,12.84,0,0,1-18.17,0h0a12.84,12.84,0,0,1,0-18.17L5508,2300a12.84,12.84,0,0,1,18.17,0h0A12.84,12.84,0,0,1,5526.15,2318.19Z"/><path class="cls-10" d="M4452.15,1793.19l-709.52,709.52a12.84,12.84,0,0,1-18.17,0h0a12.84,12.84,0,0,1,0-18.17L4434,1775a12.84,12.84,0,0,1,18.17,0h0A12.84,12.84,0,0,1,4452.15,1793.19Z"/><g class="cls-11"><rect class="cls-12" x="-329.31" y="229.78" width="1831.12" height="272.53" transform="translate(-87.12 521.75) rotate(-45)"/><rect class="cls-13" x="3990.69" y="5.78" width="1831.12" height="272.53" transform="translate(1336.57 3510.84) rotate(-45)"/><rect class="cls-14" x="3502.79" y="2058.91" width="1831.12" height="136.47" transform="translate(-210.02 3747.27) rotate(-45)"/></g><circle class="cls-15" cx="508.3" cy="412.59" r="37"/><circle class="cls-15" cx="223.27" cy="924.52" r="37"/><circle class="cls-15" cx="1642.06" cy="490.69" r="37"/><circle class="cls-15" cx="1369.91" cy="193.56" r="37"/><circle class="cls-15" cx="4001.06" cy="237.12" r="37"/><circle class="cls-15" cx="3825.17" cy="926.85" r="37"/><circle class="cls-15" cx="4896.68" cy="282.11" r="37"/><circle class="cls-15" cx="4414.13" cy="1991.53" r="37"/><circle class="cls-15" cx="3911.45" cy="2460.94" r="37"/><circle class="cls-15" cx="4428.32" cy="2712.34" r="37"/><circle class="cls-15" cx="4401.73" cy="2710.46" r="37"/><circle class="cls-15" cx="572.68" cy="2616.5" r="37"/><circle class="cls-15" cx="473.07" cy="2264.91" r="37"/><circle class="cls-15" cx="1161.68" cy="2790.39" r="37"/><circle class="cls-15" cx="356.77" cy="298.6" r="18.5"/><circle class="cls-15" cx="1276.59" cy="176.95" r="18.5"/><circle class="cls-15" cx="1007.77" cy="569.57" r="18.5"/><circle class="cls-15" cx="177.82" cy="1398.09" r="18.5"/><circle class="cls-15" cx="344.44" cy="1466.06" r="18.5"/><circle class="cls-15" cx="1172.43" cy="667.85" r="18.5"/><circle class="cls-15" cx="1944.74" cy="260.01" r="18.5"/><circle class="cls-15" cx="2429.01" cy="27.71" r="18.5"/><circle class="cls-15" cx="3092.46" cy="234.92" r="18.5"/><circle class="cls-15" cx="3782.09" cy="13.11" r="18.5" transform="translate(282.88 1448.34) rotate(-22.5)"/><circle class="cls-15" cx="4663.61" cy="244.55" r="18.5"/><circle class="cls-15" cx="4230.45" cy="830.52" r="18.5"/><circle class="cls-15" cx="4120.83" cy="1357.42" r="18.5"/><circle class="cls-15" cx="4975.86" cy="1358.83" r="18.5"/><circle class="cls-15" cx="4692.82" cy="1966.64" r="18.5"/><circle class="cls-15" cx="4011.4" cy="2142.11" r="18.5"/><circle class="cls-15" cx="4023.8" cy="2877.23" r="18.5"/><circle class="cls-15" cx="4418.65" cy="2879.15" r="18.5"/><circle class="cls-15" cx="4490.49" cy="2934.63" r="18.5"/><circle class="cls-15" cx="4815.63" cy="2795.35" r="18.5"/><circle class="cls-15" cx="111.61" cy="2700.64" r="18.5"/><circle class="cls-15" cx="343.14" cy="1926.06" r="18.5"/><circle class="cls-15" cx="819.98" cy="2088.39" r="18.5"/><circle class="cls-15" cx="1268.07" cy="1736.13" r="18.5"/><circle class="cls-15" cx="1064.24" cy="1505.2" r="18.5"/><circle class="cls-15" cx="838.23" cy="318" r="10"/><circle class="cls-15" cx="530.54" cy="764.37" r="10"/><circle class="cls-15" cx="739.65" cy="1252.78" r="10"/><circle class="cls-15" cx="1590.91" cy="623.14" r="10"/><circle class="cls-15" cx="1240.86" cy="141.94" r="10"/><circle class="cls-15" cx="2233.19" cy="119.71" r="10"/><circle class="cls-15" cx="2306.09" cy="402.82" r="10"/><circle class="cls-15" cx="3383.35" cy="155.63" r="10"/><circle class="cls-15" cx="4478.53" cy="190.86" r="10"/><circle class="cls-15" cx="3888.69" cy="683.36" r="10"/><circle class="cls-15" cx="4615.75" cy="847.13" r="10"/><circle class="cls-15" cx="4406.87" cy="419.65" r="10"/><circle class="cls-15" cx="4725.38" cy="180.08" r="10"/><circle class="cls-15" cx="4961.57" cy="701.77" r="10"/><circle class="cls-15" cx="4451.98" cy="2169.97" r="10"/><circle class="cls-15" cx="4980.23" cy="2422.71" r="10"/><circle class="cls-15" cx="3445.27" cy="2695.63" r="10"/><circle class="cls-15" cx="2424.39" cy="2639.19" r="10"/><circle class="cls-15" cx="2426.17" cy="2624.95" r="10"/><circle class="cls-15" cx="1852.88" cy="2869.29" r="10"/><circle class="cls-15" cx="2325.64" cy="2248.61" r="10"/><circle class="cls-15" cx="1898.95" cy="2302.02" r="10"/><circle class="cls-15" cx="1318.03" cy="2457.95" r="10"/><circle class="cls-15" cx="1322.41" cy="2443.31" r="10"/><circle class="cls-15" cx="1311.27" cy="2167.69" r="10"/><circle class="cls-15" cx="595.09" cy="2240.88" r="10"/><circle class="cls-15" cx="128.23" cy="2360.81" r="10"/><circle class="cls-15" cx="429.91" cy="1643.96" r="10"/><circle class="cls-15" cx="802.04" cy="1742.34" r="10"/><circle class="cls-15" cx="1274.1" cy="2339.93" r="10"/><circle class="cls-15" cx="2216.92" cy="2358.46" r="10"/><circle class="cls-15" cx="2279.23" cy="2604.52" r="10"/><circle class="cls-15" cx="2016.09" cy="2869.14" r="10"/><circle class="cls-15" cx="3237.54" cy="2368.1" r="10"/><circle class="cls-15" cx="248.17" cy="1100.21" r="10"/><circle class="cls-15" cx="94.56" cy="461.77" r="10"/><circle class="cls-15" cx="46.69" cy="381.02" r="10"/><circle class="cls-15" cx="82.88" cy="1887.58" r="10"/><circle class="cls-15" cx="4642.15" cy="339.88" r="13.5"/><circle class="cls-15" cx="4106.9" cy="565.36" r="13.5"/><circle class="cls-15" cx="2730.41" cy="275.43" r="13.5"/><circle class="cls-15" cx="2649.47" cy="557.56" r="13.5"/><circle class="cls-15" cx="1844.68" cy="164.22" r="13.5"/><circle class="cls-15" cx="1554.39" cy="364.13" r="13.5"/><circle class="cls-15" cx="1009.9" cy="640.17" r="13.5"/><circle class="cls-15" cx="385.82" cy="71.94" r="13.5"/><circle class="cls-15" cx="256.56" cy="99.87" r="13.5"/><circle class="cls-15" cx="83.1" cy="495.06" r="13.5"/><circle class="cls-15" cx="257.82" cy="1369.73" r="13.5"/><circle class="cls-15" cx="101.23" cy="2060.71" r="13.5"/><circle class="cls-15" cx="921.63" cy="1769.91" r="13.5"/><circle class="cls-15" cx="721.95" cy="2324.12" r="13.5"/><circle class="cls-15" cx="585.46" cy="1524.9" r="13.5"/><circle class="cls-15" cx="427.75" cy="2470.36" r="13.5"/><circle class="cls-15" cx="293.14" cy="2870.13" r="13.5"/><circle class="cls-15" cx="965.77" cy="2487.08" r="13.5"/><circle class="cls-15" cx="973.13" cy="2733.59" r="13.5"/><circle class="cls-15" cx="1879.97" cy="2369.02" r="13.5"/><circle class="cls-15" cx="2089.11" cy="2349.21" r="13.5"/><circle class="cls-15" cx="2088.9" cy="2686.54" r="13.5"/><circle class="cls-15" cx="2777.17" cy="2385.74" r="13.5"/><circle class="cls-15" cx="2868.06" cy="2694.92" r="13.5"/><circle class="cls-15" cx="1600.95" cy="2695.91" r="13.5"/><circle class="cls-15" cx="1437.51" cy="2760.34" r="13.5"/><circle class="cls-15" cx="2143.88" cy="2942.18" r="13.5"/><circle class="cls-15" cx="2794.77" cy="2805.59" r="13.5"/><circle class="cls-15" cx="3219.74" cy="2950.18" r="13.5"/><circle class="cls-15" cx="4330.09" cy="2609.16" r="13.5"/><circle class="cls-15" cx="4798.21" cy="2286.39" r="13.5"/><circle class="cls-15" cx="4771.64" cy="2612.82" r="13.5"/><circle class="cls-15" cx="4734.94" cy="1616.29" r="13.5"/><circle class="cls-15" cx="4623.5" cy="1606.84" r="13.5"/><circle class="cls-15" cx="4624.22" cy="1343.75" r="13.5"/><circle class="cls-15" cx="4106" cy="1535.59" r="13.5"/><circle class="cls-15" cx="4743.12" cy="665.54" r="13.5"/><circle class="cls-15" cx="4280.23" cy="547.21" r="13.5"/><circle class="cls-15" cx="4279.68" cy="108.82" r="13.5"/><circle class="cls-15" cx="3851.35" cy="310.46" r="13.5"/><circle class="cls-15" cx="3247.22" cy="136.98" r="13.5"/><circle class="cls-15" cx="2857.25" cy="164.85" r="13.5"/><circle class="cls-15" cx="2533.36" cy="46.92" r="13.5"/><circle class="cls-15" cx="1789.93" cy="35.54" r="13.5"/><circle class="cls-15" cx="3082.93" cy="171.66" r="13.5"/><circle class="cls-15" cx="3408.9" cy="438.91" r="13.5"/><circle class="cls-15" cx="3779.17" cy="474.83" r="13.5"/><circle class="cls-16" cx="615.68" cy="147.98" r="13.5"/><circle class="cls-16" cx="198.19" cy="246.43" r="13.5"/><circle class="cls-16" cx="1396.2" cy="437.61" r="13.5"/><circle class="cls-16" cx="1437.38" cy="423.95" r="13.5"/><circle class="cls-16" cx="2135.24" cy="149.37" r="13.5"/><circle class="cls-16" cx="2219.52" cy="377.65" r="13.5"/><circle class="cls-16" cx="3047.03" cy="222" r="13.5"/><circle class="cls-16" cx="3782.92" cy="102.79" r="13.5"/><circle class="cls-16" cx="3996.42" cy="531.48" r="13.5"/><circle class="cls-16" cx="3296.25" cy="805.73" r="13.5"/><circle class="cls-16" cx="4221.31" cy="233.76" r="13.5"/><circle class="cls-16" cx="4954.31" cy="248.27" r="13.5"/><circle class="cls-16" cx="4732.72" cy="733.6" r="13.5"/><circle class="cls-16" cx="4768.63" cy="1574.62" r="13.5"/><circle class="cls-16" cx="4686.17" cy="2538.27" r="13.5"/><circle class="cls-16" cx="4221.6" cy="2680.75" r="13.5"/><circle class="cls-16" cx="4674.89" cy="2800.55" r="13.5"/><circle class="cls-16" cx="3568.94" cy="2870.71" r="13.5"/><circle class="cls-16" cx="2168.8" cy="2906.84" r="13.5"/><circle class="cls-16" cx="816.74" cy="2872.56" r="13.5"/><circle class="cls-16" cx="198.4" cy="2063.91" r="13.5"/><circle class="cls-16" cx="102.15" cy="1148.97" r="13.5"/><circle class="cls-16" cx="294.06" cy="1065.45" r="13.5"/><circle class="cls-16" cx="664.75" cy="911.85" r="13.5"/><circle class="cls-16" cx="604.52" cy="1682.85" r="13.5"/><circle class="cls-16" cx="937.58" cy="2051.41" r="13.5"/><circle class="cls-16" cx="723.33" cy="1256.32" r="13.5"/><circle class="cls-16" cx="1186.93" cy="770.02" r="13.5"/><circle class="cls-16" cx="2206.6" cy="604.41" r="13.5"/><circle class="cls-16" cx="3035.43" cy="401.48" r="13.5"/><circle class="cls-16" cx="3794.28" cy="568.44" r="13.5"/><circle class="cls-16" cx="4336.38" cy="1476.83" r="13.5"/><circle class="cls-16" cx="4355.42" cy="1495.75" r="13.5"/><circle class="cls-16" cx="4117.24" cy="1868.31" r="13.5"/><circle class="cls-16" cx="4110.57" cy="1853.02" r="13.5"/><circle class="cls-16" cx="3936.5" cy="2478.09" r="13.5"/><circle class="cls-16" cx="2882.14" cy="2524.61" r="13.5"/><circle class="cls-16" cx="2449.71" cy="2570.91" r="13.5"/><circle class="cls-16" cx="1530.65" cy="2358.55" r="13.5"/><circle class="cls-16" cx="877.77" cy="1705.77" r="13.5"/><circle class="cls-16" cx="746.29" cy="2051.56" r="13.5"/><circle class="cls-16" cx="1257.35" cy="2394.69" r="13.5"/><circle class="cls-16" cx="2501.58" cy="2592.51" r="13.5"/><circle class="cls-16" cx="2505.94" cy="2576.25" r="13.5"/><circle class="cls-16" cx="3805.03" cy="2382.28" r="13.5"/><circle class="cls-16" cx="3131.16" cy="2536.81" r="13.5"/><circle class="cls-16" cx="2585.45" cy="2883.91" r="13.5"/><circle class="cls-16" cx="1589.79" cy="2585.19" r="13.5"/><circle class="cls-16" cx="626.13" cy="2633.86" r="13.5"/><circle class="cls-16" cx="543.55" cy="2253.8" r="13.5"/><circle class="cls-16" cx="641.24" cy="279.69" r="13.5"/><circle class="cls-16" cx="353.32" cy="113.63" r="13.5"/><circle class="cls-16" cx="257.46" cy="851.11" r="13.5"/><circle class="cls-16" cx="985.16" cy="626.55" r="13.5"/><circle class="cls-16" cx="1566.05" cy="328.13" r="13.5"/><circle class="cls-16" cx="2750.29" cy="293.74" r="13.5"/><circle class="cls-16" cx="3722.57" cy="411.69" r="13.5"/><circle class="cls-16" cx="3118.88" cy="90.02" r="13.5"/><circle class="cls-16" cx="2122.77" cy="317.2" r="13.5"/><circle class="cls-16" cx="1674.18" cy="389.2" r="13.5"/><circle class="cls-16" cx="770.9" cy="388.29" r="13.5"/><circle class="cls-16" cx="600.74" cy="306.68" r="13.5"/><circle class="cls-16" cx="1220.89" cy="161.19" r="13.5"/><circle class="cls-16" cx="3320.88" cy="269.9" r="13.5"/><circle class="cls-16" cx="4506.77" cy="305.54" r="13.5"/><circle class="cls-16" cx="4985.01" cy="232.89" r="13.5"/><circle class="cls-16" cx="4959.03" cy="1101.78" r="13.5"/><circle class="cls-16" cx="4744.46" cy="1683.92" r="13.5"/><circle class="cls-16" cx="4721.76" cy="2252.49" r="13.5"/><circle class="cls-16" cx="4565.85" cy="2776.53" r="13.5"/><circle class="cls-16" cx="3924.17" cy="2847.99" r="13.5"/><circle class="cls-16" cx="2645.98" cy="2680.54" r="13.5"/><circle class="cls-16" cx="1825.54" cy="2822.15" r="13.5"/><circle class="cls-16" cx="1197.5" cy="2848.41" r="13.5"/><circle class="cls-16" cx="876.55" cy="2692.93" r="13.5"/><circle class="cls-16" cx="233.45" cy="1778.81" r="13.5"/><circle class="cls-16" cx="258.26" cy="1268.99" r="13.5"/><circle class="cls-16" cx="579.09" cy="744.25" r="13.5"/><circle class="cls-16" cx="853" cy="602.58" r="13.5"/><circle class="cls-16" cx="578.62" cy="936.17" r="13.5"/><circle class="cls-16" cx="472.42" cy="1719.71" r="13.5"/><circle class="cls-16" cx="1114.24" cy="2526.27" r="13.5"/><circle class="cls-16" cx="1458.57" cy="2752.84" r="13.5"/><circle class="cls-16" cx="2289.03" cy="2907.1" r="13.5"/><circle class="cls-16" cx="3095.1" cy="2894.95" r="13.5"/><circle class="cls-16" cx="4078.72" cy="2752.58" r="13.5"/><circle class="cls-16" cx="4423.78" cy="2525.55" r="13.5"/><circle class="cls-16" cx="4589.75" cy="2145.11" r="13.5"/><circle class="cls-16" cx="4601.69" cy="1825.64" r="4"/><circle class="cls-16" cx="4256.79" cy="2501.14" r="4"/><circle class="cls-16" cx="3167.66" cy="2846.31" r="4"/><circle class="cls-16" cx="1839.67" cy="2850.79" r="4"/><circle class="cls-16" cx="1031.48" cy="2717.2" r="4"/><circle class="cls-16" cx="615.69" cy="2432.08" r="4"/><circle class="cls-16" cx="400" cy="2218.22" r="4"/><circle class="cls-16" cx="281.55" cy="1694.36" r="4"/><circle class="cls-16" cx="293.37" cy="1563.91" r="4"/><circle class="cls-16" cx="187.42" cy="2609.75" r="4"/><circle class="cls-16" cx="912.43" cy="3003.51" r="4"/><circle class="cls-16" cx="3557.16" cy="3002.71" r="4"/><circle class="cls-16" cx="4317.82" cy="2693.28" r="4"/><circle class="cls-16" cx="4685.85" cy="2441.96" r="4"/><circle class="cls-16" cx="4864.66" cy="2097.92" r="4"/><circle class="cls-16" cx="4842" cy="1635.61" r="4"/><circle class="cls-16" cx="4756.4" cy="1314.51" r="4"/><circle class="cls-16" cx="4649.16" cy="1018.57" r="4"/><circle class="cls-16" cx="4494.77" cy="745.06" r="4"/><circle class="cls-16" cx="4057.81" cy="556.22" r="4"/><circle class="cls-16" cx="3759.03" cy="472.62" r="4"/><circle class="cls-16" cx="2915.59" cy="413.69" r="4"/><circle class="cls-16" cx="1944.99" cy="352.99" r="4"/><circle class="cls-16" cx="1614.06" cy="219.68" r="4"/><circle class="cls-16" cx="1422.52" cy="173.73" r="4"/><circle class="cls-16" cx="925.16" cy="184.83" r="4"/><circle class="cls-16" cx="413.42" cy="174.54" r="4"/><circle class="cls-16" cx="210.02" cy="149.41" r="4"/><circle class="cls-16" cx="43.9" cy="400.99" r="4"/><circle class="cls-16" cx="258.23" cy="1172.85" r="4"/><circle class="cls-16" cx="447.5" cy="1669.17" r="4"/><circle class="cls-16" cx="579.13" cy="2087" r="4"/><circle class="cls-16" cx="566.45" cy="2420.19" r="4"/><circle class="cls-16" cx="685.51" cy="2753.51" r="4"/><circle class="cls-16" cx="4293.18" cy="2896.24" r="4"/><circle class="cls-16" cx="4829.59" cy="2371.69" r="4"/><circle class="cls-16" cx="4995.33" cy="1706.9" r="4"/><circle class="cls-16" cx="4909.81" cy="1052.67" r="4"/><circle class="cls-16" cx="4720.59" cy="602.03" r="4"/><circle class="cls-16" cx="4305.97" cy="221.61" r="4"/><circle class="cls-16" cx="1873.96" cy="30.71" r="4"/><circle class="cls-16" cx="1435.65" cy="147.52" r="4"/><circle class="cls-16" cx="4351.93" cy="709.62" r="4"/><circle class="cls-16" cx="3083.93" cy="474.26" r="4"/><circle class="cls-16" cx="1945.32" cy="461.36" r="4"/><circle class="cls-16" cx="1530.8" cy="604.84" r="4"/><circle class="cls-16" cx="937.41" cy="924.47" r="4"/><circle class="cls-16" cx="864.94" cy="1745.43" r="4"/><circle class="cls-16" cx="2157.57" cy="2476.99" r="4"/><circle class="cls-16" cx="3509.38" cy="2525.28" r="4"/><circle class="cls-16" cx="4233.19" cy="2157.49" r="4"/><circle class="cls-16" cx="4280.27" cy="1647.56" r="4"/><circle class="cls-16" cx="3248.7" cy="1185.29" r="4"/><circle class="cls-16" cx="2395.75" cy="1256.21" r="4"/><circle class="cls-16" cx="1673.08" cy="1457.68" r="4"/><circle class="cls-16" cx="1305.85" cy="1682.76" r="4"/><circle class="cls-16" cx="1128.07" cy="1849.06" r="4"/><circle class="cls-16" cx="928.53" cy="1693.71" r="4"/><circle class="cls-16" cx="1139.49" cy="984.2" r="4"/><circle class="cls-16" cx="1697.2" cy="604.58" r="4"/><circle class="cls-16" cx="2999.5" cy="581" r="4"/><circle class="cls-16" cx="3758.56" cy="806.09" r="4"/><circle class="cls-16" cx="4102.98" cy="793.72" r="4"/><circle class="cls-16" cx="4422.94" cy="828.89" r="4"/><circle class="cls-16" cx="4518.41" cy="900.19" r="4"/><circle class="cls-16" cx="1522.68" cy="899.23" r="4"/><circle class="cls-16" cx="1209.15" cy="1239.76" r="4"/><circle class="cls-16" cx="1192.2" cy="1473.68" r="4"/><circle class="cls-16" cx="1270.41" cy="1726.91" r="4"/><circle class="cls-16" cx="1557.56" cy="2013.95" r="4"/><circle class="cls-16" cx="2106.07" cy="2240.17" r="4"/><circle class="cls-16" cx="3324.21" cy="2231.35" r="4"/><circle class="cls-16" cx="4046.42" cy="1874.51" r="4"/><circle class="cls-16" cx="4168.39" cy="1587.12" r="4"/><circle class="cls-16" cx="3872.55" cy="1186.75" r="4"/><circle class="cls-16" cx="3220.16" cy="1091.38" r="4"/><circle class="cls-16" cx="2715.16" cy="1422.04" r="4"/><circle class="cls-16" cx="2419.28" cy="1744.05" r="4"/><circle class="cls-16" cx="1784.09" cy="1918.03" r="4"/><circle class="cls-16" cx="1165.62" cy="1535.62" r="4"/><circle class="cls-16" cx="1218.36" cy="1202.95" r="4"/><circle class="cls-16" cx="1992.82" cy="925.6" r="4"/><circle class="cls-16" cx="2584.51" cy="969.28" r="4"/><circle class="cls-16" cx="2993.47" cy="969.36" r="4"/><circle class="cls-16" cx="3159.23" cy="864.71" r="4"/><circle class="cls-16" cx="3167.87" cy="655.54" r="4"/><circle class="cls-16" cx="2863.03" cy="525.05" r="4"/><circle class="cls-16" cx="2349.49" cy="751.45" r="4"/><circle class="cls-16" cx="1723.05" cy="1030.12" r="4"/><circle class="cls-16" cx="930.75" cy="995.13" r="4"/><circle class="cls-16" cx="556.06" cy="1047.54" r="4"/><circle class="cls-16" cx="260.2" cy="1491.47" r="4"/><circle class="cls-16" cx="276.67" cy="2004.44" r="4"/><circle class="cls-16" cx="756.24" cy="2397.01" r="4"/><circle class="cls-16" cx="1879.29" cy="2650.73" r="4"/><circle class="cls-16" cx="2863.02" cy="2657.87" r="4"/><circle class="cls-16" cx="3698.36" cy="2544.7" r="4"/><circle class="cls-16" cx="4490.67" cy="2205.47" r="4"/><circle class="cls-16" cx="4900.12" cy="1508.71" r="4"/><circle class="cls-16" cx="4769.5" cy="916.53" r="4"/><circle class="cls-16" cx="4220.91" cy="480.98" r="4"/><circle class="cls-16" cx="3133.14" cy="184.95" r="4"/><circle class="cls-16" cx="2376.04" cy="175.2" r="4"/><circle class="cls-16" cx="1749.2" cy="176.44" r="4"/><circle class="cls-16" cx="1165.58" cy="184.82" r="4"/><circle class="cls-16" cx="634.57" cy="237.09" r="4"/><circle class="cls-16" cx="373.17" cy="350.72" r="4"/><circle class="cls-16" cx="33.46" cy="873.29" r="4"/><circle class="cls-16" cx="15.67" cy="1395.54" r="4"/><circle class="cls-16" cx="146.59" cy="1761.44" r="4"/><circle class="cls-16" cx="285.95" cy="2041.54" r="4"/><circle class="cls-16" cx="590.71" cy="2510.52" r="4"/><circle class="cls-16" cx="1000.25" cy="2893.44" r="4"/><circle class="cls-16" cx="4569.05" cy="2814.79" r="4"/><circle class="cls-16" cx="4917.42" cy="2240.17" r="4"/><circle class="cls-16" cx="4934.91" cy="1761.33" r="4"/><circle class="cls-16" cx="4813.09" cy="1116.98" r="4"/><circle class="cls-16" cx="4725.97" cy="611.77" r="4"/><circle class="cls-16" cx="4534.32" cy="272.17" r="4"/><circle class="cls-16" cx="3742.32" cy="80.62" r="4"/><circle class="cls-16" cx="2671.65" cy="19.3" r="4"/><circle class="cls-16" cx="2001.33" cy="10.66" r="4"/><circle class="cls-16" cx="1426.68" cy="10.57" r="4" transform="translate(104.55 546.77) rotate(-22.5)"/><circle class="cls-16" cx="416.9" cy="28.18" r="4"/><circle class="cls-16" cx="181.53" cy="193.87" r="4"/><circle class="cls-16" cx="111.92" cy="681.48" r="4"/><circle class="cls-16" cx="129.43" cy="1404.19" r="4"/><circle class="cls-16" cx="348.15" cy="2005.15" r="4"/><circle class="cls-16" cx="852.55" cy="2467.1" r="4"/><circle class="cls-16" cx="1688.12" cy="2823.93" r="4"/><circle class="cls-16" cx="3733.19" cy="2988.91" r="4"/><circle class="cls-16" cx="4447.1" cy="2536.18" r="4"/><circle class="cls-16" cx="4621.4" cy="1996.29" r="4"/><circle class="cls-16" cx="4612.67" cy="1351.96" r="4"/><circle class="cls-16" cx="4386.44" cy="882.01" r="4"/><circle class="cls-16" cx="4133.58" cy="638.01" r="4"/><circle class="cls-16" cx="3437.92" cy="332.97" r="4"/><circle class="cls-16" cx="2906.77" cy="228.63" r="4"/><circle class="cls-16" cx="2366.52" cy="203.87" r="4"/><circle class="cls-16" cx="1556.7" cy="221.1" r="4"/><circle class="cls-16" cx="695.5" cy="394.17" r="4"/><circle class="cls-16" cx="477.56" cy="881.75" r="4"/><circle class="cls-16" cx="495.37" cy="1604.7" r="4"/><circle class="cls-16" cx="895.92" cy="2231.46" r="4"/><circle class="cls-16" cx="1574.41" cy="2780.12" r="4"/><circle class="cls-16" cx="3924.84" cy="2692.78" r="4"/><circle class="cls-16" cx="4316.37" cy="2031.19" r="4"/><circle class="cls-16" cx="4473.16" cy="1482.74" r="4"/><circle class="cls-16" cx="4255.51" cy="812.25" r="4"/><circle class="cls-16" cx="3385.51" cy="446.72" r="4"/><circle class="cls-16" cx="2697.68" cy="228.8" r="4"/><circle class="cls-16" cx="2097.05" cy="194.02" r="4"/><circle class="cls-16" cx="1575.38" cy="192.98" r="4"/><circle class="cls-16" cx="1139.5" cy="324.7" r="4"/><circle class="cls-16" cx="826.24" cy="542.29" r="4"/><circle class="cls-16" cx="799.93" cy="890.45" r="4"/><circle class="cls-16" cx="965.11" cy="1570.04" r="4"/><circle class="cls-16" cx="1357.24" cy="2266.53" r="4"/><circle class="cls-16" cx="1888.83" cy="2621.95" r="4"/><path class="cls-17" d="M362.81,801.8l.72-80.17L670.15,415.12a29.5,29.5,0,1,0-7-7.12L355,716l-1.44,1.45-.72,80.18-500.08,502,7.09,7.06L361.37,803.25Z"/><path class="cls-18" d="M3589.83,2596.13a29.46,29.46,0,1,0-7.21-6.93l-127.55,127.88.67,199-150.67,151.31,7.09,7.06,153.59-154.25-.67-199Z"/><path class="cls-19" d="M-48.84,952.42,104.75,798.17l-.67-199L228.83,474.13a29.48,29.48,0,1,0-7.2-6.93L94.07,595.08l.67,199L-55.93,945.36Z"/><path class="cls-20" d="M4660.64,2248.64a29.5,29.5,0,1,0,45,3.9l482.14-482.63,1.46-1.47,0-157.25,219.13-219.47-7.08-7.06-222.05,222.39,0,157.25-480.65,481.15A29.51,29.51,0,0,0,4660.64,2248.64Z"/><path class="cls-19" d="M4378.36,1095.36a29.5,29.5,0,0,0,3.27-37.82l482.14-482.63,1.46-1.47,0-157.25,219.13-219.47-7.08-7.06L4856.72,410.59l-1.46,1.46,0,157.25-480.65,481.15a29.5,29.5,0,1,0,3.78,44.91Z"/><path class="cls-21" d="M4588.36,682.36a29.51,29.51,0,0,0,3.38-37.67l131-131.59,1.46-1.46,0-157.25,327.33-327.2-7.07-7.08-328.8,328.67-1.46,1.47,0,157.26-129.5,130a29.5,29.5,0,1,0,3.63,44.8Z"/><path class="cls-22" d="M4521.07,2458.18a29.5,29.5,0,1,0-7-7.14L4381.3,2584.38l.67,199-327.32,327.19,7.07,7.07L4390.51,2789l1.47-1.48-.66-199Z"/><path class="cls-19" d="M218.11,2690.72l130-130.53a29.51,29.51,0,1,0-7-7.15l-133,133.56.67,199L63.2,3031.51l7.08,7.06,148.5-148.87Z"/><path class="cls-19" d="M4654.37,1839.22l0,157.26-327.12,327a29.51,29.51,0,1,0,7,7.12l328.63-328.5,1.47-1.47,0-157.25,500.75-500.56-7.07-7.07-502.22,502Z"/><path class="cls-23" d="M226.77,588.29a29.5,29.5,0,1,0,45.06,4L580,284.3l1.45-1.45.72-80.18,500.07-502-7.09-7.05L573.59,197.06l-1.44,1.44-.72,80.17L264.81,585.18A29.5,29.5,0,0,0,226.77,588.29Z"/><path class="cls-24" d="M989.38,408.85,881.1,517.44a29.49,29.49,0,1,0,7.19,7L999.38,413l0-157.25L1265.36-10.83l-7.08-7.06L989.41,251.59Z"/><path class="cls-25" d="M1047.59,2291.67a29.5,29.5,0,0,0-2.74,38.54L564.59,2810.66l-157.26,0L77.2,3140.94l7.07,7.07,327.2-327.32,157.26,0,483.38-483.57a29.5,29.5,0,1,0-4.52-45.42Z"/><path class="cls-26" d="M429.73,1734.66l483.38-483.57a29.53,29.53,0,1,0-7.26-6.88L425.59,1724.66l-157.26,0L-61.8,2054.94l7.07,7.07,327.2-327.32Z"/><path class="cls-19" d="M3735.32,2340.38a29.5,29.5,0,1,0-44.9-3.76l-481.13,479.29-80.19.72L2799,3146.87l7.07,7.07,327.22-327.35,80.17-.72,484.06-482.2A29.52,29.52,0,0,0,3735.32,2340.38Z"/><path class="cls-19" d="M4501.32,2359.38a29.5,29.5,0,1,0-44.9-3.76l-481.13,479.29-80.19.72L3565,3165.87l7.07,7.07,327.22-327.35,80.17-.72,484.06-482.2A29.52,29.52,0,0,0,4501.32,2359.38Z"/><path class="cls-19" d="M246.09,1177.29,730.34,693.55a29.51,29.51,0,1,0-7-7.1L242,1167.29l-157.26,0-222.39,222,7.06,7.08L88.84,1177.32Z"/><path class="cls-27" d="M1547.9,260.24l-157.25,0L907.26,743.84a29.52,29.52,0,1,0,7.27,6.88l480.26-480.45,157.26,0L1882.18-60l-7.07-7.07Z"/><path class="cls-28" d="M4257.79,1366.26a29.51,29.51,0,0,0,3.17-38L4742.09,849l80.19-.72,330.11-330.24-7.07-7.07L4818.1,838.34l-80.18.72-484.05,482.2a29.5,29.5,0,1,0,3.92,45Z"/><path class="cls-19" d="M4878.3,2561l-199-.67-133.49,132.93a29.5,29.5,0,1,0,7.1,7l130.51-129.95,199,.67,330.14-330.27-7.07-7.07Z"/><path class="cls-19" d="M869.56,55.12,735.85,188.25a29.51,29.51,0,1,0,7.1,7.05L873.67,65.13l199,.67L1221.53-82.7l-7.07-7.08L1068.53,55.79Z"/></g></g></g></g></svg>