<svg xmlns="http://www.w3.org/2000/svg" xmlns:xlink="http://www.w3.org/1999/xlink" viewBox="0 0 5807.51 3836.39"><defs><style>.cls-1{fill:none;}.cls-2{isolation:isolate;}.cls-3{clip-path:url(#clip-path);}.cls-10,.cls-12,.cls-13,.cls-14,.cls-15,.cls-16,.cls-17,.cls-18,.cls-20,.cls-21,.cls-22,.cls-23,.cls-24,.cls-25,.cls-26,.cls-27,.cls-28,.cls-4,.cls-5,.cls-6,.cls-7,.cls-8,.cls-9{mix-blend-mode:screen;}.cls-4{fill:url(#linear-gradient);}.cls-5{fill:url(#linear-gradient-2);}.cls-6{fill:url(#linear-gradient-3);}.cls-7{fill:url(#linear-gradient-4);}.cls-8{fill:url(#linear-gradient-5);}.cls-9{fill:url(#linear-gradient-6);}.cls-10{fill:url(#linear-gradient-7);}.cls-11,.cls-19{opacity:0.5;}.cls-12{fill:url(#linear-gradient-8);}.cls-13{fill:url(#linear-gradient-9);}.cls-14{fill:url(#linear-gradient-10);}.cls-16{fill:red;}.cls-17{fill:url(#linear-gradient-11);}.cls-18{fill:url(#linear-gradient-12);}.cls-19{fill:#16c9e4;}.cls-20{fill:url(#linear-gradient-13);}.cls-21{fill:url(#linear-gradient-14);}.cls-22{fill:url(#linear-gradient-15);}.cls-23{fill:url(#linear-gradient-16);}.cls-24{fill:url(#linear-gradient-17);}.cls-25{fill:url(#linear-gradient-18);}.cls-26{fill:url(#linear-gradient-19);}.cls-27{fill:url(#linear-gradient-20);}.cls-28{fill:url(#linear-gradient-21);}</style><clipPath id="clip-path"><rect class="cls-1" x="157.51" y="601.71" width="5000" height="3000"/></clipPath><linearGradient id="linear-gradient" x1="-970.86" y1="-465.13" x2="58.26" y2="-465.13" gradientTransform="translate(1529.36 1421.82) rotate(-45)" gradientUnits="userSpaceOnUse"><stop offset="0" stop-color="#16c9e4"/><stop offset="0.06" stop-color="#14b3cb"/><stop offset="0.19" stop-color="#0e8496"/><stop offset="0.33" stop-color="#0a5c68"/><stop offset="0.47" stop-color="#063b42"/><stop offset="0.61" stop-color="#042125"/><stop offset="0.74" stop-color="#020f11"/><stop offset="0.87" stop-color="#000404"/><stop offset="1"/></linearGradient><linearGradient id="linear-gradient-2" x1="-865.5" y1="-1137.6" x2="163.62" y2="-1137.6" gradientTransform="translate(1529.36 1421.82) rotate(-45)" gradientUnits="userSpaceOnUse"><stop offset="0" stop-color="#1542a3"/><stop offset="0.05" stop-color="#133c95"/><stop offset="0.21" stop-color="#0d2a68"/><stop offset="0.37" stop-color="#091b42"/><stop offset="0.53" stop-color="#050f25"/><stop offset="0.69" stop-color="#020711"/><stop offset="0.85" stop-color="#010204"/><stop offset="1"/></linearGradient><linearGradient id="linear-gradient-3" x1="200.12" y1="72.27" x2="1229.24" y2="72.27" xlink:href="#linear-gradient-2"/><linearGradient id="linear-gradient-4" x1="1519.59" y1="2647.58" x2="2548.71" y2="2647.58" xlink:href="#linear-gradient-2"/><linearGradient id="linear-gradient-5" x1="374.07" y1="3409.85" x2="1403.19" y2="3409.85" xlink:href="#linear-gradient"/><linearGradient id="linear-gradient-6" x1="861.97" y1="3984.03" x2="1891.1" y2="3984.03" xlink:href="#linear-gradient-2"/><linearGradient id="linear-gradient-7" x1="473.77" y1="2853.35" x2="1502.89" y2="2853.35" xlink:href="#linear-gradient-2"/><linearGradient id="linear-gradient-8" x1="323.57" y1="-6103.06" x2="4628.08" y2="-6103.06" gradientTransform="translate(-309.45 3703.79) scale(0.43 0.45)" gradientUnits="userSpaceOnUse"><stop offset="0"/><stop offset="0.07" stop-color="#010409"/><stop offset="0.19" stop-color="#040d21"/><stop offset="0.34" stop-color="#091d49"/><stop offset="0.5" stop-color="#10327c"/><stop offset="0.66" stop-color="#091d49"/><stop offset="0.81" stop-color="#040d21"/><stop offset="0.93" stop-color="#010409"/><stop offset="1"/></linearGradient><linearGradient id="linear-gradient-9" x1="7876.76" y1="357.51" x2="12181.27" y2="357.51" gradientTransform="translate(797.46 583.48) scale(0.43 0.45)" xlink:href="#linear-gradient-8"/><linearGradient id="linear-gradient-10" x1="3766.05" y1="2569.37" x2="8070.56" y2="2569.37" gradientTransform="translate(2058.24 2152.2) scale(0.43 0.22)" xlink:href="#linear-gradient-8"/><linearGradient id="linear-gradient-11" x1="-15.09" y1="1875.97" x2="877.29" y2="983.58" gradientUnits="userSpaceOnUse"><stop offset="0.18"/><stop offset="1" stop-color="#16c9e4"/></linearGradient><linearGradient id="linear-gradient-12" x1="3407.11" y1="3613.6" x2="3826.45" y2="3194.26" gradientUnits="userSpaceOnUse"><stop offset="0.17"/><stop offset="1" stop-color="#16c9e4"/></linearGradient><linearGradient id="linear-gradient-13" x1="4787.32" y1="2861.24" x2="5610.51" y2="2038.05" gradientUnits="userSpaceOnUse"><stop offset="0" stop-color="#16c9e4"/><stop offset="0.48"/></linearGradient><linearGradient id="linear-gradient-14" x1="4673.45" y1="1253.38" x2="5253.51" y2="673.32" gradientUnits="userSpaceOnUse"><stop offset="0" stop-color="#16c9e4"/><stop offset="0.87"/></linearGradient><linearGradient id="linear-gradient-15" x1="4157.15" y1="3657.25" x2="4757.99" y2="3056.4" xlink:href="#linear-gradient-12"/><linearGradient id="linear-gradient-16" x1="372.69" y1="1220.14" x2="1265.07" y2="327.76" gradientUnits="userSpaceOnUse"><stop offset="0" stop-color="#16c9e4"/><stop offset="0.54"/></linearGradient><linearGradient id="linear-gradient-17" x1="970.07" y1="1133.33" x2="1467.7" y2="635.71" xlink:href="#linear-gradient-14"/><linearGradient id="linear-gradient-18" x1="285.81" y1="3793.76" x2="1216.51" y2="2863.06" xlink:href="#linear-gradient-12"/><linearGradient id="linear-gradient-19" x1="146.81" y1="2707.76" x2="1077.51" y2="1777.06" gradientUnits="userSpaceOnUse"><stop offset="0.09"/><stop offset="1" stop-color="#16c9e4"/></linearGradient><linearGradient id="linear-gradient-20" x1="1057.88" y1="1421.29" x2="1988.58" y2="490.59" xlink:href="#linear-gradient-14"/><linearGradient id="linear-gradient-21" x1="4385.2" y1="1979.61" x2="5277.47" y2="1087.34" xlink:href="#linear-gradient-14"/></defs><g class="cls-2"><g id="Layer_1" data-name="Layer 1"><g class="cls-3"><path class="cls-4" d="M1241.66,1069.9,532.14,1779.42a12.84,12.84,0,0,1-18.17,0h0a12.84,12.84,0,0,1,0-18.17l709.52-709.52a12.84,12.84,0,0,1,18.17,0h0A12.84,12.84,0,0,1,1241.66,1069.9Z"/><path class="cls-5" d="M840.66,519.9,131.14,1229.42a12.84,12.84,0,0,1-18.17,0h0a12.84,12.84,0,0,1,0-18.17L822.49,501.73a12.84,12.84,0,0,1,18.17,0h0A12.84,12.84,0,0,1,840.66,519.9Z"/><path class="cls-6" d="M2449.66,621.9l-709.52,709.52a12.84,12.84,0,0,1-18.17,0h0a12.84,12.84,0,0,1,0-18.17l709.52-709.52a12.84,12.84,0,0,1,18.17,0h0A12.84,12.84,0,0,1,2449.66,621.9Z"/><path class="cls-7" d="M5203.66,1509.9l-709.52,709.52a12.84,12.84,0,0,1-18.17,0h0a12.84,12.84,0,0,1,0-18.17l709.52-709.52a12.84,12.84,0,0,1,18.17,0h0A12.84,12.84,0,0,1,5203.66,1509.9Z"/><path class="cls-8" d="M4932.66,2858.9l-709.52,709.52a12.84,12.84,0,0,1-18.17,0h0a12.84,12.84,0,0,1,0-18.17l709.52-709.52a12.84,12.84,0,0,1,18.17,0h0A12.84,12.84,0,0,1,4932.66,2858.9Z"/><path class="cls-9" d="M5683.66,2919.9l-709.52,709.52a12.84,12.84,0,0,1-18.17,0h0a12.84,12.84,0,0,1,0-18.17l709.52-709.52a12.84,12.84,0,0,1,18.17,0h0A12.84,12.84,0,0,1,5683.66,2919.9Z"/><path class="cls-10" d="M4609.66,2394.9l-709.52,709.52a12.84,12.84,0,0,1-18.17,0h0a12.84,12.84,0,0,1,0-18.17l709.52-709.52a12.84,12.84,0,0,1,18.17,0h0A12.84,12.84,0,0,1,4609.66,2394.9Z"/><g class="cls-11"><rect class="cls-12" x="-171.81" y="831.49" width="1831.12" height="272.53" transform="translate(-466.46 809.36) rotate(-45)"/><rect class="cls-13" x="4148.19" y="607.49" width="1831.12" height="272.53" transform="translate(957.23 3798.46) rotate(-45)"/><rect class="cls-14" x="3660.3" y="2660.62" width="1831.12" height="136.47" transform="translate(-589.36 4034.89) rotate(-45)"/></g><circle class="cls-15" cx="665.8" cy="1014.3" r="37"/><circle class="cls-15" cx="380.78" cy="1526.23" r="37"/><circle class="cls-15" cx="1799.57" cy="1092.4" r="37"/><circle class="cls-15" cx="1527.42" cy="795.27" r="37"/><circle class="cls-15" cx="4158.57" cy="838.83" r="37"/><circle class="cls-15" cx="3982.68" cy="1528.56" r="37"/><circle class="cls-15" cx="5054.19" cy="883.82" r="37"/><circle class="cls-15" cx="4571.64" cy="2593.24" r="37"/><circle class="cls-15" cx="4068.96" cy="3062.65" r="37"/><circle class="cls-15" cx="4585.83" cy="3314.05" r="37"/><circle class="cls-15" cx="4559.24" cy="3312.17" r="37"/><circle class="cls-15" cx="730.19" cy="3218.21" r="37"/><circle class="cls-15" cx="630.58" cy="2866.62" r="37"/><circle class="cls-15" cx="1319.19" cy="3392.1" r="37"/><circle class="cls-15" cx="514.28" cy="900.31" r="18.5"/><circle class="cls-15" cx="1434.1" cy="778.66" r="18.5"/><circle class="cls-15" cx="1165.28" cy="1171.28" r="18.5"/><circle class="cls-15" cx="335.32" cy="1999.8" r="18.5"/><circle class="cls-15" cx="501.94" cy="2067.77" r="18.5"/><circle class="cls-15" cx="1329.94" cy="1269.56" r="18.5"/><circle class="cls-15" cx="2102.24" cy="861.72" r="18.5"/><circle class="cls-15" cx="2586.52" cy="629.42" r="18.5"/><circle class="cls-15" cx="3249.97" cy="836.63" r="18.5"/><circle class="cls-15" cx="3939.6" cy="614.82" r="18.5" transform="translate(64.6 1554.42) rotate(-22.5)"/><circle class="cls-15" cx="4821.12" cy="846.26" r="18.5"/><circle class="cls-15" cx="4387.96" cy="1432.23" r="18.5"/><circle class="cls-15" cx="4278.33" cy="1959.13" r="18.5"/><circle class="cls-15" cx="5133.37" cy="1960.54" r="18.5"/><circle class="cls-15" cx="4850.33" cy="2568.35" r="18.5"/><circle class="cls-15" cx="4168.9" cy="2743.82" r="18.5"/><circle class="cls-15" cx="4181.31" cy="3478.94" r="18.5"/><circle class="cls-15" cx="4576.15" cy="3480.86" r="18.5"/><circle class="cls-15" cx="4647.99" cy="3536.34" r="18.5"/><circle class="cls-15" cx="4466.75" cy="3630.61" r="18.5"/><circle class="cls-15" cx="4973.14" cy="3397.06" r="18.5"/><circle class="cls-15" cx="2466.43" cy="3804.23" r="18.5"/><circle class="cls-15" cx="759.23" cy="3817.89" r="18.5"/><circle class="cls-15" cx="269.12" cy="3302.35" r="18.5"/><circle class="cls-15" cx="500.65" cy="2527.77" r="18.5"/><circle class="cls-15" cx="977.48" cy="2690.1" r="18.5"/><circle class="cls-15" cx="1425.58" cy="2337.84" r="18.5"/><circle class="cls-15" cx="1221.74" cy="2106.91" r="18.5"/><circle class="cls-15" cx="1572.76" cy="3710.32" r="18.5"/><circle class="cls-15" cx="995.74" cy="919.71" r="10"/><circle class="cls-15" cx="688.05" cy="1366.08" r="10"/><circle class="cls-15" cx="897.15" cy="1854.49" r="10"/><circle class="cls-15" cx="1748.41" cy="1224.85" r="10"/><circle class="cls-15" cx="1398.37" cy="743.65" r="10"/><circle class="cls-15" cx="2390.7" cy="721.42" r="10"/><circle class="cls-15" cx="2463.6" cy="1004.53" r="10"/><circle class="cls-15" cx="3540.86" cy="757.34" r="10"/><circle class="cls-15" cx="4636.03" cy="792.57" r="10"/><circle class="cls-15" cx="4046.19" cy="1285.07" r="10"/><circle class="cls-15" cx="4773.26" cy="1448.84" r="10"/><circle class="cls-15" cx="4564.38" cy="1021.37" r="10"/><circle class="cls-15" cx="4882.89" cy="781.79" r="10"/><circle class="cls-15" cx="5119.08" cy="1303.48" r="10"/><circle class="cls-15" cx="4609.49" cy="2771.68" r="10"/><circle class="cls-15" cx="5137.74" cy="3024.42" r="10"/><circle class="cls-15" cx="3602.78" cy="3297.34" r="10"/><circle class="cls-15" cx="2581.89" cy="3240.9" r="10"/><circle class="cls-15" cx="2583.68" cy="3226.66" r="10"/><circle class="cls-15" cx="2010.39" cy="3471" r="10"/><circle class="cls-15" cx="2483.15" cy="2850.32" r="10"/><circle class="cls-15" cx="2056.46" cy="2903.73" r="10"/><circle class="cls-15" cx="1475.54" cy="3059.66" r="10"/><circle class="cls-15" cx="1479.92" cy="3045.02" r="10"/><circle class="cls-15" cx="1468.78" cy="2769.4" r="10"/><circle class="cls-15" cx="752.6" cy="2842.59" r="10"/><circle class="cls-15" cx="285.74" cy="2962.52" r="10"/><circle class="cls-15" cx="587.41" cy="2245.67" r="10"/><circle class="cls-15" cx="959.54" cy="2344.05" r="10"/><circle class="cls-15" cx="1431.61" cy="2941.64" r="10"/><circle class="cls-15" cx="2374.42" cy="2960.18" r="10"/><circle class="cls-15" cx="2436.74" cy="3206.23" r="10"/><circle class="cls-15" cx="2173.6" cy="3470.85" r="10"/><circle class="cls-15" cx="3395.05" cy="2969.81" r="10"/><circle class="cls-15" cx="405.68" cy="1701.93" r="10"/><circle class="cls-15" cx="252.07" cy="1063.48" r="10"/><circle class="cls-15" cx="204.2" cy="982.73" r="10"/><circle class="cls-15" cx="124.68" cy="585.02" r="10" transform="translate(-472.76 614.37) rotate(-80.78)"/><circle class="cls-15" cx="68.39" cy="1438.31" r="10"/><circle class="cls-15" cx="86.14" cy="2136.55" r="10"/><circle class="cls-15" cx="240.38" cy="2489.29" r="10"/><circle class="cls-15" cx="131.14" cy="2798.9" r="10"/><circle class="cls-15" cx="4799.65" cy="941.59" r="13.5"/><circle class="cls-15" cx="4264.41" cy="1167.07" r="13.5"/><circle class="cls-15" cx="2887.92" cy="877.14" r="13.5"/><circle class="cls-15" cx="2806.98" cy="1159.27" r="13.5"/><circle class="cls-15" cx="2002.19" cy="765.93" r="13.5"/><circle class="cls-15" cx="1711.89" cy="965.84" r="13.5"/><circle class="cls-15" cx="1167.4" cy="1241.88" r="13.5"/><circle class="cls-15" cx="543.33" cy="673.65" r="13.5"/><circle class="cls-15" cx="414.06" cy="701.58" r="13.5"/><circle class="cls-15" cx="240.6" cy="1096.77" r="13.5"/><circle class="cls-15" cx="415.33" cy="1971.44" r="13.5"/><circle class="cls-15" cx="258.74" cy="2662.42" r="13.5"/><circle class="cls-15" cx="1079.14" cy="2371.62" r="13.5"/><circle class="cls-15" cx="879.45" cy="2925.83" r="13.5"/><circle class="cls-15" cx="742.96" cy="2126.61" r="13.5"/><circle class="cls-15" cx="585.26" cy="3072.07" r="13.5"/><circle class="cls-15" cx="450.64" cy="3471.84" r="13.5"/><circle class="cls-15" cx="1123.27" cy="3088.79" r="13.5"/><circle class="cls-15" cx="1130.64" cy="3335.3" r="13.5"/><circle class="cls-15" cx="2037.48" cy="2970.73" r="13.5"/><circle class="cls-15" cx="2246.62" cy="2950.92" r="13.5"/><circle class="cls-15" cx="2246.41" cy="3288.25" r="13.5"/><circle class="cls-15" cx="2934.67" cy="2987.45" r="13.5"/><circle class="cls-15" cx="3025.57" cy="3296.63" r="13.5"/><circle class="cls-15" cx="1758.46" cy="3297.62" r="13.5"/><circle class="cls-15" cx="1595.02" cy="3362.05" r="13.5"/><circle class="cls-15" cx="2301.39" cy="3543.9" r="13.5"/><circle class="cls-15" cx="2952.28" cy="3407.31" r="13.5"/><circle class="cls-15" cx="3377.24" cy="3551.89" r="13.5"/><circle class="cls-15" cx="4487.6" cy="3210.87" r="13.5"/><circle class="cls-15" cx="4955.72" cy="2888.1" r="13.5"/><circle class="cls-15" cx="4929.15" cy="3214.53" r="13.5"/><circle class="cls-15" cx="4892.44" cy="2218" r="13.5"/><circle class="cls-15" cx="4781" cy="2208.55" r="13.5"/><circle class="cls-15" cx="4781.73" cy="1945.46" r="13.5"/><circle class="cls-15" cx="4263.51" cy="2137.3" r="13.5"/><circle class="cls-15" cx="5174.57" cy="1907.63" r="13.5"/><circle class="cls-15" cx="4900.62" cy="1267.25" r="13.5"/><circle class="cls-15" cx="4437.74" cy="1148.92" r="13.5"/><circle class="cls-15" cx="4437.18" cy="710.53" r="13.5"/><circle class="cls-15" cx="4008.85" cy="912.17" r="13.5"/><circle class="cls-15" cx="3404.72" cy="738.69" r="13.5"/><circle class="cls-15" cx="3014.76" cy="766.56" r="13.5"/><circle class="cls-15" cx="2690.87" cy="648.63" r="13.5"/><circle class="cls-15" cx="1947.44" cy="637.25" r="13.5"/><circle class="cls-15" cx="3240.44" cy="773.38" r="13.5"/><circle class="cls-15" cx="3566.41" cy="1040.62" r="13.5"/><circle class="cls-15" cx="3936.68" cy="1076.54" r="13.5"/><circle class="cls-16" cx="773.18" cy="749.69" r="13.5"/><circle class="cls-16" cx="355.69" cy="848.14" r="13.5"/><circle class="cls-16" cx="1553.71" cy="1039.33" r="13.5"/><circle class="cls-16" cx="1594.89" cy="1025.66" r="13.5"/><circle class="cls-16" cx="2292.74" cy="751.08" r="13.5"/><circle class="cls-16" cx="2377.02" cy="979.36" r="13.5"/><circle class="cls-16" cx="3204.53" cy="823.71" r="13.5"/><circle class="cls-16" cx="3940.43" cy="704.5" r="13.5"/><circle class="cls-16" cx="4153.93" cy="1133.2" r="13.5"/><circle class="cls-16" cx="3453.76" cy="1407.44" r="13.5"/><circle class="cls-16" cx="4378.82" cy="835.48" r="13.5"/><circle class="cls-16" cx="5111.82" cy="849.99" r="13.5"/><circle class="cls-16" cx="5412.4" cy="1038.89" r="13.5"/><circle class="cls-16" cx="4924.76" cy="574.35" r="13.5"/><circle class="cls-16" cx="4890.23" cy="1335.31" r="13.5"/><circle class="cls-16" cx="4926.13" cy="2176.33" r="13.5"/><circle class="cls-16" cx="4843.68" cy="3139.99" r="13.5"/><circle class="cls-16" cx="4379.11" cy="3282.46" r="13.5"/><circle class="cls-16" cx="4832.4" cy="3402.26" r="13.5"/><circle class="cls-16" cx="3726.45" cy="3472.42" r="13.5"/><circle class="cls-16" cx="2326.31" cy="3508.55" r="13.5"/><circle class="cls-16" cx="974.24" cy="3474.27" r="13.5"/><circle class="cls-16" cx="108.13" cy="3389.12" r="13.5"/><circle class="cls-16" cx="355.91" cy="2665.62" r="13.5"/><circle class="cls-16" cx="259.66" cy="1750.68" r="13.5"/><circle class="cls-16" cx="451.56" cy="1667.16" r="13.5"/><circle class="cls-16" cx="822.26" cy="1513.56" r="13.5"/><circle class="cls-16" cx="762.03" cy="2284.56" r="13.5"/><circle class="cls-16" cx="1095.08" cy="2653.12" r="13.5"/><circle class="cls-16" cx="880.84" cy="1858.03" r="13.5"/><circle class="cls-16" cx="1344.44" cy="1371.73" r="13.5"/><circle class="cls-16" cx="2364.11" cy="1206.12" r="13.5"/><circle class="cls-16" cx="3192.94" cy="1003.19" r="13.5"/><circle class="cls-16" cx="3951.79" cy="1170.15" r="13.5"/><circle class="cls-16" cx="4493.89" cy="2078.54" r="13.5"/><circle class="cls-16" cx="4512.93" cy="2097.46" r="13.5"/><circle class="cls-16" cx="4274.75" cy="2470.02" r="13.5"/><circle class="cls-16" cx="4268.08" cy="2454.73" r="13.5"/><circle class="cls-16" cx="4094.01" cy="3079.8" r="13.5"/><circle class="cls-16" cx="3039.64" cy="3126.32" r="13.5"/><circle class="cls-16" cx="2607.22" cy="3172.62" r="13.5"/><circle class="cls-16" cx="1688.16" cy="2960.26" r="13.5"/><circle class="cls-16" cx="1035.28" cy="2307.48" r="13.5"/><circle class="cls-16" cx="903.8" cy="2653.27" r="13.5"/><circle class="cls-16" cx="1414.85" cy="2996.4" r="13.5"/><circle class="cls-16" cx="2659.09" cy="3194.22" r="13.5"/><circle class="cls-16" cx="2663.45" cy="3177.96" r="13.5"/><circle class="cls-16" cx="3962.53" cy="2983.99" r="13.5"/><circle class="cls-16" cx="3288.67" cy="3138.52" r="13.5"/><circle class="cls-16" cx="2742.95" cy="3485.62" r="13.5"/><circle class="cls-16" cx="1747.29" cy="3186.9" r="13.5"/><circle class="cls-16" cx="783.64" cy="3235.57" r="13.5"/><circle class="cls-16" cx="701.06" cy="2855.52" r="13.5"/><circle class="cls-16" cx="798.74" cy="881.4" r="13.5"/><circle class="cls-16" cx="510.83" cy="715.34" r="13.5"/><circle class="cls-16" cx="414.97" cy="1452.82" r="13.5"/><circle class="cls-16" cx="1142.67" cy="1228.26" r="13.5"/><circle class="cls-16" cx="1723.56" cy="929.84" r="13.5"/><circle class="cls-16" cx="2907.8" cy="895.45" r="13.5"/><circle class="cls-16" cx="3880.08" cy="1013.4" r="13.5"/><circle class="cls-16" cx="3276.39" cy="691.73" r="13.5"/><circle class="cls-16" cx="2280.28" cy="918.91" r="13.5"/><circle class="cls-16" cx="1831.69" cy="990.91" r="13.5"/><circle class="cls-16" cx="928.41" cy="990" r="13.5"/><circle class="cls-16" cx="758.25" cy="908.39" r="13.5"/><circle class="cls-16" cx="1378.4" cy="762.9" r="13.5"/><circle class="cls-16" cx="3478.38" cy="871.61" r="13.5"/><circle class="cls-16" cx="4664.28" cy="907.25" r="13.5"/><circle class="cls-16" cx="5142.52" cy="834.6" r="13.5"/><circle class="cls-16" cx="5116.54" cy="1703.49" r="13.5"/><circle class="cls-16" cx="4901.97" cy="2285.63" r="13.5"/><circle class="cls-16" cx="4879.27" cy="2854.2" r="13.5"/><circle class="cls-16" cx="4723.36" cy="3378.24" r="13.5"/><circle class="cls-16" cx="4081.68" cy="3449.7" r="13.5"/><circle class="cls-16" cx="2803.49" cy="3282.25" r="13.5"/><circle class="cls-16" cx="1983.05" cy="3423.86" r="13.5"/><circle class="cls-16" cx="1355" cy="3450.13" r="13.5"/><circle class="cls-16" cx="1034.06" cy="3294.64" r="13.5"/><circle class="cls-16" cx="390.95" cy="2380.52" r="13.5"/><circle class="cls-16" cx="415.77" cy="1870.7" r="13.5"/><circle class="cls-16" cx="736.6" cy="1345.96" r="13.5"/><circle class="cls-16" cx="1010.51" cy="1204.29" r="13.5"/><circle class="cls-16" cx="736.13" cy="1537.88" r="13.5"/><circle class="cls-16" cx="629.93" cy="2321.42" r="13.5"/><circle class="cls-16" cx="1271.75" cy="3127.98" r="13.5"/><circle class="cls-16" cx="1616.08" cy="3354.55" r="13.5"/><circle class="cls-16" cx="2446.54" cy="3508.81" r="13.5"/><circle class="cls-16" cx="3252.61" cy="3496.66" r="13.5"/><circle class="cls-16" cx="4236.22" cy="3354.29" r="13.5"/><circle class="cls-16" cx="4581.29" cy="3127.26" r="13.5"/><circle class="cls-16" cx="4747.26" cy="2746.82" r="13.5"/><circle class="cls-16" cx="4759.2" cy="2427.35" r="4"/><circle class="cls-16" cx="4414.3" cy="3102.85" r="4"/><circle class="cls-16" cx="3325.16" cy="3448.02" r="4"/><circle class="cls-16" cx="1997.18" cy="3452.51" r="4"/><circle class="cls-16" cx="1188.99" cy="3318.91" r="4"/><circle class="cls-16" cx="773.2" cy="3033.79" r="4"/><circle class="cls-16" cx="557.51" cy="2819.93" r="4"/><circle class="cls-16" cx="439.06" cy="2296.07" r="4"/><circle class="cls-16" cx="450.88" cy="2165.62" r="4"/><circle class="cls-16" cx="130.09" cy="2653.35" r="4"/><circle class="cls-16" cx="344.93" cy="3211.46" r="4"/><circle class="cls-16" cx="1069.94" cy="3605.22" r="4"/><circle class="cls-16" cx="2016.48" cy="3651.97" r="4"/><circle class="cls-16" cx="2956.39" cy="3615.98" r="4"/><circle class="cls-16" cx="3714.66" cy="3604.42" r="4"/><circle class="cls-16" cx="4475.33" cy="3294.99" r="4"/><circle class="cls-16" cx="4843.36" cy="3043.67" r="4"/><circle class="cls-16" cx="5022.16" cy="2699.63" r="4"/><circle class="cls-16" cx="4999.51" cy="2237.32" r="4"/><circle class="cls-16" cx="4913.91" cy="1916.22" r="4"/><circle class="cls-16" cx="4806.66" cy="1620.28" r="4"/><circle class="cls-16" cx="4652.28" cy="1346.77" r="4"/><circle class="cls-16" cx="4215.31" cy="1157.93" r="4"/><circle class="cls-16" cx="3916.54" cy="1074.33" r="4"/><circle class="cls-16" cx="3073.1" cy="1015.4" r="4"/><circle class="cls-16" cx="2102.5" cy="954.7" r="4"/><circle class="cls-16" cx="1771.57" cy="821.4" r="4"/><circle class="cls-16" cx="1580.03" cy="775.45" r="4"/><circle class="cls-16" cx="1082.67" cy="786.54" r="4"/><circle class="cls-16" cx="570.93" cy="776.26" r="4"/><circle class="cls-16" cx="367.53" cy="751.12" r="4"/><circle class="cls-16" cx="201.41" cy="1002.7" r="4"/><circle class="cls-16" cx="415.74" cy="1774.56" r="4"/><circle class="cls-16" cx="605.01" cy="2270.88" r="4"/><circle class="cls-16" cx="736.64" cy="2688.71" r="4"/><circle class="cls-16" cx="723.96" cy="3021.9" r="4"/><circle class="cls-16" cx="843.02" cy="3355.22" r="4"/><circle class="cls-16" cx="2033.14" cy="3651.95" r="4"/><circle class="cls-16" cx="3122.29" cy="3687.29" r="4"/><circle class="cls-16" cx="4450.69" cy="3497.95" r="4"/><circle class="cls-16" cx="4987.1" cy="2973.4" r="4"/><circle class="cls-16" cx="5152.84" cy="2308.61" r="4"/><circle class="cls-16" cx="5067.32" cy="1654.38" r="4"/><circle class="cls-16" cx="4878.1" cy="1203.74" r="4"/><circle class="cls-16" cx="4463.48" cy="823.32" r="4"/><circle class="cls-16" cx="3833.12" cy="585.23" r="4"/><circle class="cls-16" cx="2730.79" cy="538.29" r="4"/><circle class="cls-16" cx="2031.46" cy="632.42" r="4"/><circle class="cls-16" cx="1593.16" cy="749.23" r="4"/><circle class="cls-16" cx="4509.44" cy="1311.33" r="4"/><circle class="cls-16" cx="3241.44" cy="1075.97" r="4"/><circle class="cls-16" cx="2102.83" cy="1063.07" r="4"/><circle class="cls-16" cx="1688.3" cy="1206.55" r="4"/><circle class="cls-16" cx="1094.91" cy="1526.18" r="4"/><circle class="cls-16" cx="1022.45" cy="2347.14" r="4"/><circle class="cls-16" cx="2315.07" cy="3078.7" r="4"/><circle class="cls-16" cx="3666.89" cy="3126.99" r="4"/><circle class="cls-16" cx="4390.7" cy="2759.2" r="4"/><circle class="cls-16" cx="4437.78" cy="2249.27" r="4"/><circle class="cls-16" cx="3406.21" cy="1787" r="4"/><circle class="cls-16" cx="2553.26" cy="1857.92" r="4"/><circle class="cls-16" cx="1830.59" cy="2059.39" r="4"/><circle class="cls-16" cx="1463.36" cy="2284.47" r="4"/><circle class="cls-16" cx="1285.58" cy="2450.77" r="4"/><circle class="cls-16" cx="1086.04" cy="2295.42" r="4"/><circle class="cls-16" cx="1297" cy="1585.91" r="4"/><circle class="cls-16" cx="1854.71" cy="1206.29" r="4"/><circle class="cls-16" cx="3157.01" cy="1182.71" r="4"/><circle class="cls-16" cx="3916.07" cy="1407.8" r="4"/><circle class="cls-16" cx="4260.49" cy="1395.43" r="4"/><circle class="cls-16" cx="4580.45" cy="1430.6" r="4"/><circle class="cls-16" cx="4675.92" cy="1501.9" r="4"/><circle class="cls-16" cx="1680.19" cy="1500.94" r="4"/><circle class="cls-16" cx="1366.66" cy="1841.47" r="4"/><circle class="cls-16" cx="1349.71" cy="2075.39" r="4"/><circle class="cls-16" cx="1427.92" cy="2328.62" r="4"/><circle class="cls-16" cx="1715.07" cy="2615.66" r="4"/><circle class="cls-16" cx="2263.58" cy="2841.88" r="4"/><circle class="cls-16" cx="3481.72" cy="2833.06" r="4"/><circle class="cls-16" cx="4203.92" cy="2476.22" r="4"/><circle class="cls-16" cx="4325.9" cy="2188.83" r="4"/><circle class="cls-16" cx="4030.06" cy="1788.46" r="4"/><circle class="cls-16" cx="3377.66" cy="1693.09" r="4"/><circle class="cls-16" cx="2872.67" cy="2023.75" r="4"/><circle class="cls-16" cx="2576.79" cy="2345.76" r="4"/><circle class="cls-16" cx="1941.6" cy="2519.75" r="4"/><circle class="cls-16" cx="1323.12" cy="2137.33" r="4"/><circle class="cls-16" cx="1375.87" cy="1804.66" r="4"/><circle class="cls-16" cx="2150.33" cy="1527.31" r="4"/><circle class="cls-16" cx="2742.02" cy="1570.99" r="4"/><circle class="cls-16" cx="3150.97" cy="1571.08" r="4"/><circle class="cls-16" cx="3316.74" cy="1466.42" r="4"/><circle class="cls-16" cx="3325.38" cy="1257.25" r="4"/><circle class="cls-16" cx="3020.54" cy="1126.76" r="4"/><circle class="cls-16" cx="2507" cy="1353.16" r="4"/><circle class="cls-16" cx="1880.56" cy="1631.83" r="4"/><circle class="cls-16" cx="1088.25" cy="1596.84" r="4"/><circle class="cls-16" cx="713.57" cy="1649.26" r="4"/><circle class="cls-16" cx="417.71" cy="2093.18" r="4"/><circle class="cls-16" cx="434.18" cy="2606.15" r="4"/><circle class="cls-16" cx="913.74" cy="2998.72" r="4"/><circle class="cls-16" cx="2036.8" cy="3252.44" r="4"/><circle class="cls-16" cx="3020.53" cy="3259.58" r="4"/><circle class="cls-16" cx="3855.87" cy="3146.41" r="4"/><circle class="cls-16" cx="4648.18" cy="2807.18" r="4"/><circle class="cls-16" cx="5057.63" cy="2110.42" r="4"/><circle class="cls-16" cx="4927.01" cy="1518.24" r="4"/><circle class="cls-16" cx="4378.42" cy="1082.69" r="4"/><circle class="cls-16" cx="3290.65" cy="786.66" r="4"/><circle class="cls-16" cx="2533.55" cy="776.91" r="4"/><circle class="cls-16" cx="1906.71" cy="778.15" r="4"/><circle class="cls-16" cx="1323.08" cy="786.53" r="4"/><circle class="cls-16" cx="792.08" cy="838.8" r="4"/><circle class="cls-16" cx="530.67" cy="952.43" r="4"/><circle class="cls-16" cx="190.97" cy="1475" r="4"/><circle class="cls-16" cx="173.18" cy="1997.26" r="4"/><circle class="cls-16" cx="304.1" cy="2363.15" r="4"/><circle class="cls-16" cx="443.45" cy="2643.25" r="4"/><circle class="cls-16" cx="748.22" cy="3112.23" r="4"/><circle class="cls-16" cx="1157.75" cy="3495.15" r="4"/><circle class="cls-16" cx="2376.4" cy="3721.28" r="4"/><circle class="cls-16" cx="3316.49" cy="3668.91" r="4"/><circle class="cls-16" cx="4230.35" cy="3625.45" r="4"/><circle class="cls-16" cx="4726.56" cy="3416.5" r="4"/><circle class="cls-16" cx="5074.93" cy="2841.88" r="4"/><circle class="cls-16" cx="5092.42" cy="2363.04" r="4"/><circle class="cls-16" cx="4970.6" cy="1718.69" r="4"/><circle class="cls-16" cx="4883.48" cy="1213.48" r="4"/><circle class="cls-16" cx="4691.83" cy="873.88" r="4"/><circle class="cls-16" cx="3899.83" cy="682.33" r="4"/><circle class="cls-16" cx="2829.16" cy="621.01" r="4"/><circle class="cls-16" cx="2158.84" cy="612.37" r="4"/><circle class="cls-16" cx="1584.18" cy="612.28" r="4" transform="translate(-113.72 652.85) rotate(-22.5)"/><circle class="cls-16" cx="574.41" cy="629.89" r="4"/><circle class="cls-16" cx="339.04" cy="795.58" r="4"/><circle class="cls-16" cx="269.43" cy="1283.19" r="4"/><circle class="cls-16" cx="286.94" cy="2005.9" r="4"/><circle class="cls-16" cx="505.66" cy="2606.86" r="4"/><circle class="cls-16" cx="1010.05" cy="3068.81" r="4"/><circle class="cls-16" cx="1845.62" cy="3425.65" r="4"/><circle class="cls-16" cx="2985.75" cy="3651.52" r="4"/><circle class="cls-16" cx="3890.7" cy="3590.63" r="4"/><circle class="cls-16" cx="4604.61" cy="3137.89" r="4"/><circle class="cls-16" cx="4778.91" cy="2598" r="4"/><circle class="cls-16" cx="4770.18" cy="1953.67" r="4"/><circle class="cls-16" cx="4543.95" cy="1483.72" r="4"/><circle class="cls-16" cx="4291.09" cy="1239.72" r="4"/><circle class="cls-16" cx="3595.42" cy="934.68" r="4"/><circle class="cls-16" cx="3064.27" cy="830.34" r="4"/><circle class="cls-16" cx="2524.03" cy="805.58" r="4"/><circle class="cls-16" cx="1714.21" cy="822.81" r="4"/><circle class="cls-16" cx="853.01" cy="995.88" r="4"/><circle class="cls-16" cx="635.07" cy="1483.46" r="4"/><circle class="cls-16" cx="652.88" cy="2206.41" r="4"/><circle class="cls-16" cx="1053.43" cy="2833.17" r="4"/><circle class="cls-16" cx="1731.92" cy="3381.83" r="4"/><circle class="cls-16" cx="2741.9" cy="3668.95" r="4"/><circle class="cls-16" cx="4082.35" cy="3294.49" r="4"/><circle class="cls-16" cx="4473.88" cy="2632.9" r="4"/><circle class="cls-16" cx="4630.67" cy="2084.45" r="4"/><circle class="cls-16" cx="4413.02" cy="1413.96" r="4"/><circle class="cls-16" cx="3543.01" cy="1048.43" r="4"/><circle class="cls-16" cx="2855.19" cy="830.51" r="4"/><circle class="cls-16" cx="2254.56" cy="795.73" r="4"/><circle class="cls-16" cx="1732.89" cy="794.69" r="4"/><circle class="cls-16" cx="1297.01" cy="926.41" r="4"/><circle class="cls-16" cx="983.75" cy="1144" r="4"/><circle class="cls-16" cx="957.43" cy="1492.16" r="4"/><circle class="cls-16" cx="1122.62" cy="2171.75" r="4"/><circle class="cls-16" cx="1514.75" cy="2868.24" r="4"/><circle class="cls-16" cx="2046.33" cy="3223.66" r="4"/><path class="cls-17" d="M520.32,1403.51l.72-80.17,306.62-306.51a29.51,29.51,0,1,0-7-7.12l-308.12,308-1.44,1.45-.73,80.18-500.07,502,7.09,7.06L518.88,1405Z"/><path class="cls-18" d="M3747.34,3197.84a29.46,29.46,0,1,0-7.21-6.93l-127.55,127.88.67,199-150.67,151.31,7.09,7.06,153.59-154.25-.67-199Z"/><path class="cls-19" d="M108.67,1554.13l153.59-154.25-.67-199,124.75-125.07a29.46,29.46,0,1,0-7.21-6.93L251.58,1196.79l.67,199L101.58,1547.07Z"/><path class="cls-20" d="M4818.15,2850.35a29.5,29.5,0,1,0,45,3.9l482.14-482.63,1.46-1.47,0-157.25,219.12-219.47-7.07-7.06-222,222.39,0,157.25-480.65,481.15A29.51,29.51,0,0,0,4818.15,2850.35Z"/><path class="cls-19" d="M4535.86,1697.07a29.5,29.5,0,0,0,3.28-37.82l482.14-482.63,1.46-1.47,0-157.25,219.12-219.47-7.07-7.06L5014.23,1012.3l-1.46,1.46,0,157.25-480.65,481.15a29.5,29.5,0,1,0,3.77,44.91Z"/><path class="cls-21" d="M4745.86,1284.07a29.5,29.5,0,0,0,3.39-37.67l131-131.59,1.46-1.46,0-157.25,327.32-327.2-7.07-7.07L4873.23,950.49l-1.46,1.47,0,157.26-129.5,130a29.5,29.5,0,1,0,3.62,44.8Z"/><path class="cls-22" d="M4678.58,3059.89a29.5,29.5,0,1,0-7-7.14l-132.78,133.34.67,199-327.32,327.19,7.07,7.07L4548,3390.66l1.47-1.47-.67-199Z"/><path class="cls-19" d="M375.62,3292.43l130-130.53a29.49,29.49,0,1,0-7-7.14l-133,133.55.67,199L220.71,3633.22l7.08,7.06,148.49-148.87Z"/><path class="cls-19" d="M4811.87,2440.93l0,157.26-327.11,327a29.51,29.51,0,1,0,7,7.12l328.63-328.5,1.46-1.47,0-157.25,500.76-500.56-7.08-7.07-502.21,502Z"/><path class="cls-23" d="M384.27,1190a29.5,29.5,0,1,0,45.07,4L737.46,886l1.44-1.45.73-80.18,500.07-502-7.09-7.05L731.1,798.77l-1.44,1.44-.72,80.17L422.32,1186.89A29.52,29.52,0,0,0,384.27,1190Z"/><path class="cls-24" d="M1146.89,1010.56l-108.28,108.59a29.51,29.51,0,1,0,7.18,7l111.1-111.42,0-157.25,265.95-266.56-7.08-7.06L1146.92,853.3Z"/><path class="cls-25" d="M1205.1,2893.38a29.5,29.5,0,0,0-2.74,38.54L722.09,3412.37l-157.25,0L234.71,3742.65l7.07,7.07L569,3422.4l157.26,0,483.38-483.57a29.5,29.5,0,1,0-4.52-45.42Z"/><path class="cls-26" d="M587.24,2336.37l483.38-483.57a29.53,29.53,0,1,0-7.26-6.88L583.09,2326.37l-157.25,0L95.71,2656.65l7.07,7.07L430,2336.4Z"/><path class="cls-19" d="M3892.83,2942.09a29.5,29.5,0,1,0-44.91-3.76l-481.13,479.29-80.18.72-330.12,330.24,7.08,7.07,327.22-327.35,80.17-.72L3855,2945.38A29.51,29.51,0,0,0,3892.83,2942.09Z"/><path class="cls-19" d="M4658.83,2961.09a29.5,29.5,0,1,0-44.91-3.76l-481.13,479.29-80.18.72-330.12,330.24,7.08,7.07,327.22-327.35,80.17-.72L4621,2964.38A29.51,29.51,0,0,0,4658.83,2961.09Z"/><path class="cls-19" d="M403.6,1779l484.25-483.74a29.49,29.49,0,1,0-7.05-7.1L399.46,1769l-157.25,0-222.4,222,7.07,7.08L246.35,1779Z"/><path class="cls-27" d="M1705.41,862l-157.26,0-483.38,483.57a29.51,29.51,0,1,0,7.27,6.88L1552.3,872l157.25,0L2039.69,541.7l-7.08-7.07Z"/><path class="cls-28" d="M4415.29,1968a29.5,29.5,0,0,0,3.18-38l481.13-479.28,80.18-.73,330.12-330.24-7.07-7.07L4975.6,1440.05l-80.17.72L4411.37,1923a29.5,29.5,0,1,0,3.92,45Z"/><path class="cls-19" d="M5035.81,3162.7l-199-.67L4703.35,3295a29.49,29.49,0,1,0,7.1,7L4841,3172.05l199,.67,330.14-330.27-7.08-7.07Z"/><path class="cls-19" d="M1027.06,656.83,893.36,790a29.5,29.5,0,1,0,7.1,7l130.72-130.17,199,.67L1379,519l-7.06-7.08L1226,657.5Z"/></g></g></g></svg>