<svg xmlns="http://www.w3.org/2000/svg" xmlns:xlink="http://www.w3.org/1999/xlink" viewBox="0 0 761.36 511.74"><defs><style>.cls-1,.cls-12,.cls-16{fill:none;}.cls-2{clip-path:url(#clip-path);}.cls-3{fill:url(#linear-gradient);}.cls-4{fill:url(#linear-gradient-2);}.cls-5{fill:url(#linear-gradient-3);}.cls-6{fill:url(#linear-gradient-4);}.cls-7{fill:url(#linear-gradient-5);}.cls-8{fill:url(#linear-gradient-6);}.cls-9{fill:#7d7d7d;}.cls-10{fill:url(#linear-gradient-7);}.cls-11{fill:#9e9e9e;}.cls-12{stroke:#ea227a;}.cls-12,.cls-16{stroke-miterlimit:10;}.cls-13{fill:#ea227a;}.cls-14{fill:#fff;}.cls-15{fill:#00255b;}.cls-16{stroke:#fff;}</style><clipPath id="clip-path"><rect class="cls-1" x="5.19" y="5.53" width="750" height="500"/></clipPath><linearGradient id="linear-gradient" x1="538.59" y1="-466.55" x2="88.11" y2="325.38" gradientUnits="userSpaceOnUse"><stop offset="0" stop-opacity="0"/><stop offset="0.19" stop-color="#000204" stop-opacity="0.03"/><stop offset="0.36" stop-color="#00060f" stop-opacity="0.11"/><stop offset="0.53" stop-color="#000f21" stop-opacity="0.25"/><stop offset="0.69" stop-color="#001a3b" stop-opacity="0.44"/><stop offset="0.84" stop-color="#00295c" stop-opacity="0.69"/><stop offset="0.99" stop-color="#003b84" stop-opacity="0.99"/><stop offset="1" stop-color="#003c86"/></linearGradient><linearGradient id="linear-gradient-2" x1="366.47" y1="-70.94" x2="145.57" y2="317.39" gradientUnits="userSpaceOnUse"><stop offset="0" stop-opacity="0"/><stop offset="0.02" stop-color="#000205" stop-opacity="0.04"/><stop offset="0.16" stop-color="#00142d" stop-opacity="0.33"/><stop offset="0.32" stop-color="#00224d" stop-opacity="0.57"/><stop offset="0.47" stop-color="#002e66" stop-opacity="0.76"/><stop offset="0.63" stop-color="#003678" stop-opacity="0.9"/><stop offset="0.8" stop-color="#003a83" stop-opacity="0.97"/><stop offset="1" stop-color="#003c86"/></linearGradient><linearGradient id="linear-gradient-3" x1="746.79" y1="425.77" x2="699.21" y2="509.4" xlink:href="#linear-gradient-2"/><linearGradient id="linear-gradient-4" x1="652.6" y1="152.76" x2="424.38" y2="553.97" xlink:href="#linear-gradient-2"/><linearGradient id="linear-gradient-5" x1="424.41" y1="-325.6" x2="107.25" y2="231.96" xlink:href="#linear-gradient"/><linearGradient id="linear-gradient-6" x1="999.57" y1="-165.34" x2="399.94" y2="888.79" gradientTransform="translate(1097.14 974.67) rotate(180)" xlink:href="#linear-gradient"/><linearGradient id="linear-gradient-7" x1="929.31" y1="-86.91" x2="420.36" y2="807.81" gradientTransform="translate(1097.14 974.67) rotate(180)" xlink:href="#linear-gradient"/></defs><g id="OBJECTS"><g class="cls-2"><rect x="5.19" y="5.53" width="750" height="500"/><path class="cls-3" d="M0,0V219c30.26,4.33,61.58,2.67,91.54-3.7C142,204.51,189,181.06,232.33,153c60.27-39.12,116-88.41,184.87-109C450.88,33.84,486.78,31,519,16.84A118.46,118.46,0,0,0,546.4,0Z"/><path class="cls-4" d="M7.09,239.17c18.57,4.9,37.45,8.09,56.69,8.47a221.11,221.11,0,0,0,54.84-6.06c18.38-4.3,35.9-10.87,53.3-18.09a407.64,407.64,0,0,0,46-22.51A446.34,446.34,0,0,0,301,139.18q4.86-4.53,9.58-9.18a144.24,144.24,0,0,1,11.3-9.63l5.25-4.2a20.31,20.31,0,0,0,3.74-4.27c1.55-2.08,4-3.71,6-5.39l5.87-5q22.17-18.87,44.71-37.3A193.67,193.67,0,0,1,411.5,47.87c8.34-4.93,16.77-9.85,25.32-14.42C453.93,24.3,472.57,18.57,491,12.84c4.65-1.45,9.3-2.9,13.94-4.39.76-.24.44-1.45-.33-1.2-18.46,5.94-37.2,11.14-55.1,18.7a203.07,203.07,0,0,0-24.19,12.56c-8.14,4.83-16.47,9.29-24.45,14.42s-15.13,11-22.42,17S363.86,82,356.6,88.11q-11.28,9.49-22.49,19.1a26.41,26.41,0,0,0-4.32,4.06,23.5,23.5,0,0,1-2,2.82,36.66,36.66,0,0,1-3,2.4c-3.87,3.09-7.88,6.06-11.63,9.3-3.35,2.88-6.37,6.23-9.58,9.28s-6.42,6-9.69,9q-9.72,8.77-19.91,17a435,435,0,0,1-42.36,30.26A406.11,406.11,0,0,1,186.1,216a401.43,401.43,0,0,1-51.73,20.11,238,238,0,0,1-55.55,10.07,216.66,216.66,0,0,1-57.46-4.8c-4.68-1-9.32-2.15-13.94-3.37a.62.62,0,0,0-.33,1.2Z"/><path class="cls-5" d="M754.18,429.81c-8.51,9.78-16.45,20-24.57,30.12-3.93,4.9-7.78,10-12.19,14.5s-8.6,9.12-12.72,13.85c-4.65,5.35-9.18,10.79-13.76,16.19-.52.61.36,1.5.88.89,8.13-9.59,16.12-19.31,24.84-28.36s16.35-19.37,24.26-29.24c4.62-5.76,9.29-11.49,14.14-17.07.53-.6-.35-1.49-.88-.88Z"/><path class="cls-6" d="M339.08,505a206.62,206.62,0,0,1,33.61-94.51,238.63,238.63,0,0,1,15.79-20.71c2.73-3.28,5.19-6.75,8.15-9.84s6-6.25,9-9.32c12-12.09,24.85-23.48,39.34-32.55,1.6-1,3.22-2,4.86-2.93,1.84-1.06,4-1.92,5.71-3.15a21,21,0,0,0,2.06-2,15.24,15.24,0,0,1,2.84-2.08c2.07-1.23,4.14-2.45,6.23-3.64q11.54-6.62,23.46-12.5a530.48,530.48,0,0,1,49.1-21.12c16.41-6.14,33.07-11.62,49.81-16.76,8.45-2.6,16.92-5.11,25.41-7.59,8.81-2.57,17.74-4.74,26.54-7.35,4.48-1.32,8.91-2.78,13.29-4.41,2.18-.81,4.57-2.23,6.91-2.37,2-.12,3.72.14,5.68-.6,9.09-3.42,18.15-7,27.21-10.45,8.6-3.32,17.33-6.37,25.7-10.25s16.29-8.2,24.19-12.75a24.83,24.83,0,0,0,4.93-3.4,13.81,13.81,0,0,1,5.47-3.42c.76-.24.44-1.45-.34-1.21-3.85,1.22-6.24,4.38-9.64,6.35-4.08,2.35-8.18,4.67-12.34,6.89a225.53,225.53,0,0,1-26.2,11.94c-9.06,3.44-18.08,7-27.12,10.45-2.28.88-4.55,1.75-6.83,2.61s-5,2.35-7.45,2.59c-1.76.18-3.54-.32-5.22.34-2.38.94-4.75,1.89-7.15,2.76-8.88,3.21-18,5.47-27.09,7.93-8.7,2.34-17.33,5-26,7.6C582,274.64,565,280,548.21,286c-16.5,5.91-32.79,12.43-48.68,19.83q-12.28,5.73-24.24,12.18-6,3.22-11.85,6.65a47.16,47.16,0,0,0-5.57,3.3c-.77.61-1.4,1.43-2.12,2.1a16.11,16.11,0,0,1-3.41,2.25c-14.68,8-27.83,18.5-39.95,30-6.29,6-12.59,12.08-18.33,18.58-2.91,3.28-5.35,7-8.33,10.17a109.79,109.79,0,0,0-7.74,9.71,208.83,208.83,0,0,0-38.71,92.39c-.6,3.94-1.07,7.9-1.45,11.86-.07.8,1.18.8,1.25,0Z"/><path class="cls-7" d="M0,0V138.5a127.43,127.43,0,0,0,34.36,23.89c32.84,15.54,71.08,17.42,106.62,9.85s68.65-24.07,99.13-43.85c42.43-27.55,81.69-62.25,130.15-76.77,23.72-7.1,49-9.12,71.66-19.07C457,25.94,471.07,14.3,478.32,0Z"/><path class="cls-8" d="M761.36,240.62a375.5,375.5,0,0,0-42.85,6.56c-67.2,14.3-129.79,45.52-187.41,82.92C450.88,382.18,376.65,447.79,285,475.24c-44.83,13.42-92.62,17.23-135.47,36.05l-1,.45h612.8Z"/><path class="cls-9" d="M531.51,0h-1a241.09,241.09,0,0,0,70.3,151.57,241.16,241.16,0,0,0,160.56,70.88v-1C639.88,215.88,541.5,120.29,531.51,0Z"/><path class="cls-10" d="M761.36,285.54a302.93,302.93,0,0,0-88.16,5.9c-57,12.14-110.16,38.64-159.06,70.39C446,406,383,461.72,305.27,485c-34.75,10.41-71.59,14-105.42,26.73H761.36Z"/><path class="cls-11" d="M213.34,511.74C228.56,443,290,391.49,363.16,391.49S497.76,443,513,511.74h1c-15.23-69.26-77.08-121.25-150.84-121.25s-135.61,52-150.84,121.25Z"/><circle class="cls-12" cx="621.87" cy="261.73" r="30.59" transform="translate(53.38 625.12) rotate(-55.41)"/><circle class="cls-13" cx="83.01" cy="53.47" r="1.21"/><path class="cls-13" d="M97.08,53.47a1.22,1.22,0,1,1-1.22-1.22A1.21,1.21,0,0,1,97.08,53.47Z"/><path class="cls-13" d="M109.93,53.47a1.22,1.22,0,1,1-1.21-1.22A1.21,1.21,0,0,1,109.93,53.47Z"/><circle class="cls-13" cx="121.57" cy="53.47" r="1.21"/><circle class="cls-14" cx="134.42" cy="53.47" r="1.21"/><path class="cls-13" d="M148.49,53.47a1.22,1.22,0,1,1-1.22-1.22A1.22,1.22,0,0,1,148.49,53.47Z"/><circle class="cls-13" cx="160.12" cy="53.47" r="1.21"/><path class="cls-14" d="M84.23,67.69A1.22,1.22,0,1,1,83,66.47,1.22,1.22,0,0,1,84.23,67.69Z"/><path class="cls-13" d="M97.08,67.69a1.22,1.22,0,1,1-1.22-1.22A1.21,1.21,0,0,1,97.08,67.69Z"/><path class="cls-13" d="M109.93,67.69a1.22,1.22,0,0,1-2.43,0,1.22,1.22,0,1,1,2.43,0Z"/><path class="cls-13" d="M122.78,67.69a1.21,1.21,0,1,1-1.21-1.22A1.21,1.21,0,0,1,122.78,67.69Z"/><path class="cls-13" d="M135.63,67.69a1.21,1.21,0,1,1-1.21-1.22A1.21,1.21,0,0,1,135.63,67.69Z"/><path class="cls-13" d="M148.49,67.69a1.22,1.22,0,1,1-1.22-1.22A1.22,1.22,0,0,1,148.49,67.69Z"/><path class="cls-13" d="M161.34,67.69a1.22,1.22,0,1,1-1.22-1.22A1.22,1.22,0,0,1,161.34,67.69Z"/><circle class="cls-13" cx="83.01" cy="81.91" r="1.21"/><path class="cls-13" d="M97.08,81.91a1.22,1.22,0,1,1-1.22-1.22A1.21,1.21,0,0,1,97.08,81.91Z"/><path class="cls-14" d="M109.93,81.91a1.22,1.22,0,0,1-2.43,0,1.22,1.22,0,1,1,2.43,0Z"/><circle class="cls-13" cx="121.57" cy="81.91" r="1.21"/><circle class="cls-13" cx="134.42" cy="81.91" r="1.21"/><path class="cls-13" d="M148.49,81.91a1.22,1.22,0,1,1-1.22-1.22A1.22,1.22,0,0,1,148.49,81.91Z"/><circle class="cls-13" cx="160.12" cy="81.91" r="1.21"/><path class="cls-13" d="M84.23,96.13A1.22,1.22,0,1,1,83,94.91,1.22,1.22,0,0,1,84.23,96.13Z"/><path class="cls-13" d="M97.08,96.13a1.22,1.22,0,1,1-1.22-1.22A1.21,1.21,0,0,1,97.08,96.13Z"/><path class="cls-13" d="M109.93,96.13a1.22,1.22,0,0,1-2.43,0,1.22,1.22,0,1,1,2.43,0Z"/><path class="cls-13" d="M122.78,96.13a1.21,1.21,0,1,1-1.21-1.22A1.21,1.21,0,0,1,122.78,96.13Z"/><path class="cls-14" d="M135.63,96.13a1.21,1.21,0,1,1-1.21-1.22A1.21,1.21,0,0,1,135.63,96.13Z"/><path class="cls-13" d="M148.49,96.13a1.22,1.22,0,1,1-1.22-1.22A1.22,1.22,0,0,1,148.49,96.13Z"/><path class="cls-13" d="M161.34,96.13a1.22,1.22,0,1,1-1.22-1.22A1.22,1.22,0,0,1,161.34,96.13Z"/><circle class="cls-13" cx="83.01" cy="110.35" r="1.21"/><path class="cls-13" d="M97.08,110.35a1.22,1.22,0,1,1-1.22-1.21A1.21,1.21,0,0,1,97.08,110.35Z"/><path class="cls-13" d="M109.93,110.35a1.22,1.22,0,1,1-1.21-1.21A1.21,1.21,0,0,1,109.93,110.35Z"/><circle class="cls-13" cx="121.57" cy="110.35" r="1.21"/><circle class="cls-13" cx="134.42" cy="110.35" r="1.21"/><path class="cls-13" d="M148.49,110.35a1.22,1.22,0,1,1-1.22-1.21A1.22,1.22,0,0,1,148.49,110.35Z"/><circle class="cls-13" cx="160.12" cy="110.35" r="1.21"/><circle class="cls-13" cx="83.01" cy="124.57" r="1.21"/><path class="cls-13" d="M97.08,124.57a1.22,1.22,0,1,1-1.22-1.21A1.21,1.21,0,0,1,97.08,124.57Z"/><path class="cls-13" d="M109.93,124.57a1.22,1.22,0,1,1-1.21-1.21A1.21,1.21,0,0,1,109.93,124.57Z"/><circle class="cls-14" cx="121.57" cy="124.57" r="1.21"/><circle class="cls-13" cx="134.42" cy="124.57" r="1.21"/><path class="cls-13" d="M148.49,124.57a1.22,1.22,0,1,1-1.22-1.21A1.22,1.22,0,0,1,148.49,124.57Z"/><circle class="cls-13" cx="160.12" cy="124.57" r="1.21"/><path class="cls-13" d="M84.23,138.79a1.22,1.22,0,1,1-2.43,0,1.22,1.22,0,0,1,2.43,0Z"/><path class="cls-13" d="M97.08,138.79a1.22,1.22,0,1,1-1.22-1.21A1.22,1.22,0,0,1,97.08,138.79Z"/><path class="cls-13" d="M109.93,138.79a1.22,1.22,0,1,1-1.21-1.21A1.22,1.22,0,0,1,109.93,138.79Z"/><path class="cls-13" d="M122.78,138.79a1.21,1.21,0,1,1-1.21-1.21A1.22,1.22,0,0,1,122.78,138.79Z"/><path class="cls-13" d="M135.63,138.79a1.21,1.21,0,1,1-1.21-1.21A1.22,1.22,0,0,1,135.63,138.79Z"/><path class="cls-14" d="M148.49,138.79a1.22,1.22,0,1,1-2.43,0,1.22,1.22,0,0,1,2.43,0Z"/><path class="cls-13" d="M161.34,138.79a1.22,1.22,0,1,1-2.43,0,1.22,1.22,0,0,1,2.43,0Z"/><circle class="cls-13" cx="83.01" cy="153.01" r="1.21"/><path class="cls-14" d="M97.08,153a1.22,1.22,0,1,1-1.22-1.21A1.22,1.22,0,0,1,97.08,153Z"/><path class="cls-13" d="M109.93,153a1.22,1.22,0,1,1-1.21-1.21A1.22,1.22,0,0,1,109.93,153Z"/><circle class="cls-13" cx="121.57" cy="153.01" r="1.21"/><circle class="cls-13" cx="134.42" cy="153.01" r="1.21"/><path class="cls-13" d="M148.49,153a1.22,1.22,0,1,1-2.43,0,1.22,1.22,0,0,1,2.43,0Z"/><circle class="cls-13" cx="160.12" cy="153.01" r="1.21"/><circle class="cls-13" cx="577.02" cy="356.29" r="1.21"/><circle class="cls-13" cx="589.87" cy="356.29" r="1.21"/><path class="cls-13" d="M603.94,356.29a1.22,1.22,0,1,1-1.21-1.21A1.21,1.21,0,0,1,603.94,356.29Z"/><path class="cls-13" d="M616.79,356.29a1.22,1.22,0,1,1-1.21-1.21A1.21,1.21,0,0,1,616.79,356.29Z"/><path class="cls-14" d="M629.64,356.29a1.21,1.21,0,1,1-1.21-1.21A1.21,1.21,0,0,1,629.64,356.29Z"/><circle class="cls-13" cx="641.28" cy="356.29" r="1.21"/><path class="cls-13" d="M655.35,356.29a1.22,1.22,0,1,1-1.22-1.21A1.22,1.22,0,0,1,655.35,356.29Z"/><circle class="cls-14" cx="577.02" cy="370.51" r="1.21"/><circle class="cls-13" cx="589.87" cy="370.51" r="1.21"/><path class="cls-13" d="M603.94,370.51a1.22,1.22,0,1,1-1.21-1.21A1.22,1.22,0,0,1,603.94,370.51Z"/><path class="cls-13" d="M616.79,370.51a1.22,1.22,0,1,1-1.21-1.21A1.22,1.22,0,0,1,616.79,370.51Z"/><path class="cls-13" d="M629.64,370.51a1.21,1.21,0,1,1-1.21-1.21A1.22,1.22,0,0,1,629.64,370.51Z"/><circle class="cls-13" cx="641.28" cy="370.51" r="1.21"/><path class="cls-13" d="M655.35,370.51a1.22,1.22,0,1,1-2.43,0,1.22,1.22,0,0,1,2.43,0Z"/><path class="cls-13" d="M578.23,384.73a1.21,1.21,0,1,1-1.21-1.21A1.22,1.22,0,0,1,578.23,384.73Z"/><path class="cls-13" d="M591.09,384.73a1.22,1.22,0,1,1-2.43,0,1.22,1.22,0,0,1,2.43,0Z"/><path class="cls-14" d="M603.94,384.73a1.22,1.22,0,1,1-1.21-1.21A1.22,1.22,0,0,1,603.94,384.73Z"/><path class="cls-13" d="M616.79,384.73a1.22,1.22,0,1,1-1.21-1.21A1.22,1.22,0,0,1,616.79,384.73Z"/><path class="cls-13" d="M629.64,384.73a1.21,1.21,0,1,1-1.21-1.21A1.22,1.22,0,0,1,629.64,384.73Z"/><path class="cls-13" d="M642.49,384.73a1.21,1.21,0,1,1-1.21-1.21A1.22,1.22,0,0,1,642.49,384.73Z"/><path class="cls-13" d="M655.35,384.73a1.22,1.22,0,1,1-2.43,0,1.22,1.22,0,0,1,2.43,0Z"/><circle class="cls-13" cx="577.02" cy="398.95" r="1.21"/><circle class="cls-13" cx="589.87" cy="398.95" r="1.21"/><path class="cls-13" d="M603.94,399a1.22,1.22,0,1,1-1.21-1.21A1.22,1.22,0,0,1,603.94,399Z"/><path class="cls-13" d="M616.79,399a1.22,1.22,0,1,1-1.21-1.21A1.22,1.22,0,0,1,616.79,399Z"/><path class="cls-14" d="M629.64,399a1.21,1.21,0,1,1-1.21-1.21A1.22,1.22,0,0,1,629.64,399Z"/><circle class="cls-13" cx="641.28" cy="398.95" r="1.21"/><path class="cls-13" d="M655.35,399a1.22,1.22,0,1,1-2.43,0,1.22,1.22,0,0,1,2.43,0Z"/><path class="cls-13" d="M578.23,413.18A1.21,1.21,0,1,1,577,412,1.21,1.21,0,0,1,578.23,413.18Z"/><path class="cls-13" d="M591.09,413.18a1.22,1.22,0,1,1-1.22-1.22A1.22,1.22,0,0,1,591.09,413.18Z"/><path class="cls-13" d="M603.94,413.18a1.22,1.22,0,1,1-1.21-1.22A1.21,1.21,0,0,1,603.94,413.18Z"/><path class="cls-13" d="M616.79,413.18a1.22,1.22,0,1,1-1.21-1.22A1.21,1.21,0,0,1,616.79,413.18Z"/><path class="cls-13" d="M629.64,413.18a1.21,1.21,0,1,1-1.21-1.22A1.21,1.21,0,0,1,629.64,413.18Z"/><path class="cls-13" d="M642.49,413.18a1.21,1.21,0,1,1-1.21-1.22A1.21,1.21,0,0,1,642.49,413.18Z"/><path class="cls-13" d="M655.35,413.18a1.22,1.22,0,1,1-1.22-1.22A1.22,1.22,0,0,1,655.35,413.18Z"/><circle class="cls-13" cx="577.02" cy="427.4" r="1.21"/><circle class="cls-13" cx="589.87" cy="427.4" r="1.21"/><path class="cls-13" d="M603.94,427.4a1.22,1.22,0,1,1-1.21-1.22A1.21,1.21,0,0,1,603.94,427.4Z"/><path class="cls-14" d="M616.79,427.4a1.22,1.22,0,0,1-2.43,0,1.22,1.22,0,1,1,2.43,0Z"/><path class="cls-13" d="M629.64,427.4a1.21,1.21,0,1,1-1.21-1.22A1.21,1.21,0,0,1,629.64,427.4Z"/><circle class="cls-13" cx="641.28" cy="427.4" r="1.21"/><path class="cls-13" d="M655.35,427.4a1.22,1.22,0,1,1-1.22-1.22A1.22,1.22,0,0,1,655.35,427.4Z"/><circle class="cls-13" cx="577.02" cy="441.62" r="1.21"/><circle class="cls-13" cx="589.87" cy="441.62" r="1.21"/><path class="cls-13" d="M603.94,441.62a1.22,1.22,0,1,1-1.21-1.22A1.21,1.21,0,0,1,603.94,441.62Z"/><path class="cls-13" d="M616.79,441.62a1.22,1.22,0,0,1-2.43,0,1.22,1.22,0,1,1,2.43,0Z"/><path class="cls-13" d="M629.64,441.62a1.21,1.21,0,1,1-1.21-1.22A1.21,1.21,0,0,1,629.64,441.62Z"/><circle class="cls-14" cx="641.28" cy="441.62" r="1.21"/><path class="cls-13" d="M655.35,441.62a1.22,1.22,0,1,1-1.22-1.22A1.22,1.22,0,0,1,655.35,441.62Z"/><path class="cls-13" d="M578.23,455.84a1.21,1.21,0,1,1-1.21-1.22A1.21,1.21,0,0,1,578.23,455.84Z"/><path class="cls-14" d="M591.09,455.84a1.22,1.22,0,1,1-1.22-1.22A1.22,1.22,0,0,1,591.09,455.84Z"/><path class="cls-13" d="M603.94,455.84a1.22,1.22,0,1,1-1.21-1.22A1.21,1.21,0,0,1,603.94,455.84Z"/><path class="cls-13" d="M616.79,455.84a1.22,1.22,0,0,1-2.43,0,1.22,1.22,0,1,1,2.43,0Z"/><path class="cls-13" d="M629.64,455.84a1.21,1.21,0,1,1-1.21-1.22A1.21,1.21,0,0,1,629.64,455.84Z"/><path class="cls-13" d="M642.49,455.84a1.21,1.21,0,1,1-1.21-1.22A1.21,1.21,0,0,1,642.49,455.84Z"/><path class="cls-13" d="M655.35,455.84a1.22,1.22,0,1,1-1.22-1.22A1.22,1.22,0,0,1,655.35,455.84Z"/><path class="cls-15" d="M761.36,0H696.8l.31.43-2,1.47L693.73,0h-6.16l-.84.61L686.28,0H661.47l2,3-3.12,2.31L657.83,2l3.27-2h-7a6,6,0,0,0,2.08,1.71c-2.35.26-3.9,1.36-4.29,3.51s.8,3.82,2.92,4.82c-2.95.64-4.3,1.91-4.44,4.06a3.91,3.91,0,0,0,2.74,4,5.13,5.13,0,0,0,3.13-.2A8.22,8.22,0,0,0,658.37,16c.62,1.11,1.35,2.44,2.11,3.79a4.61,4.61,0,0,0-3.27,3,4.37,4.37,0,0,0,2.55,4.91c.17.09.28.32.42.48a4,4,0,0,0-4.35,3.35,4.06,4.06,0,0,0,2.62,4.5c2.19.78,4-.16,5.53-2.9a4.58,4.58,0,0,0,2.9,4.6c-3,.92-4.29,2.21-4.3,4.31a3.86,3.86,0,0,0,2.92,3.85,6.48,6.48,0,0,0,3.14-.3A10.82,10.82,0,0,0,671,44.3a4.75,4.75,0,0,0,2.77,3.33c-2.88.76-4.13,2-4.27,4a3.9,3.9,0,0,0,2.7,4,6.11,6.11,0,0,0,3.28-.23,9,9,0,0,0,2.29-1.55c0,1.33,1.12,2.63,3,3.64-2.35.33-3.93,1.3-4.3,3.54s.87,3.68,2.85,4.73c-2.53.22-4,1.43-4.25,3.38a3.93,3.93,0,0,0,2.46,4.3A3.68,3.68,0,0,0,682.16,72a5.28,5.28,0,0,0,.47-3.37c-.24-1-1.25-1.83-1.92-2.75a4.32,4.32,0,0,0,3.6-2.83c.07-.18.32-.3.48-.44-.58,2.06.68,3.3,2.09,4.47-2.88,1.27-3.9,2.66-3.57,4.82a4,4,0,0,0,7.68,1c.82-1.89.2-3.6-1.73-5.22l3.24-2.14,2.68,3.12a4.17,4.17,0,0,0-3.64,3.91,4,4,0,0,0,2.29,3.87c2.35,1.09,4.13.15,5.66-1.87.46,2.21,1.64,3.57,3.68,3.83s3.65-.88,4.64-3a4.74,4.74,0,0,0,3.06,4.48l-1.36.33a4,4,0,0,0,.21,7.89,4,4,0,0,0,4.49-2.16c.18-.36.42-.69.63-1-.09,2.3.8,4,2.68,4.51a6.23,6.23,0,0,0,3.28-.23,10,10,0,0,0,2.38-1.49,3.9,3.9,0,0,0,3.34,3.45c2.35.41,3.83-.82,4.83-2.92.5,2.77,1.61,4.18,3.64,4.46,2.27.31,3.75-.87,4.7-2.94.55,2.78,1.64,4.16,3.65,4.43,2.27.31,3.76-.87,4.78-3.09a4.76,4.76,0,0,0,2.8,4.45c-2.74.59-4,2-4.06,4a4,4,0,0,0,7.54,1.92c1-1.9.4-3.72-1.63-5.47l3.3-2.16c.8,1,1.68,2.19,2.5,3.28-2.27.71-3.4,2.07-3.32,4.17a3.94,3.94,0,0,0,3,3.68,4.16,4.16,0,0,0,3.16-.46V97.72l-.17-.2.17-.14V72.63l-1.86,1.31c-.6-.91-1.24-1.88-1.89-2.85l2.74-1.83,1,1.35V65.14l-.29.21c-.6-.88-1.17-1.73-1.73-2.57l2-1.36V54.91l-.28-.41.28-.19Zm-6.48,51.56,1.52,2.09-2.16,1.59L752.77,53Zm-.2-6.65,1.65-1.18,1.12,1.57-1.65,1.34Zm.5,17.15-2.25,1.5-1.73-2.31,2.22-1.6C754,60.39,754.54,61.19,755.18,62.06Zm-4.36-36,.95,1.24-1.28.89-.87-1.21Zm-1.45,8.18,1.13,1.44L749,36.81l-1.06-1.57ZM748,42.27l1.11,1.54-1.72,1.4-1.24-1.67Zm-1.4,8L748,52.15l-1.95,1.34-1.27-1.84C745.4,51.16,746,50.71,746.55,50.24Zm-1.89,12-1.73-2.5,2.22-1.36,1.75,2.19ZM745.83,69l-2.76,2-1.85-2.83,2.7-1.79Zm-3.34-44.51.91,1.3-1.29.94-.91-1.28ZM741,32.67l1.1,1.51c-.45.33-.88.63-1.35,1l-1.14-1.56Zm-1.37,8.25c.45.57.84,1.07,1.26,1.63-.54.39-1.07.78-1.67,1.2L738,42ZM738.22,49l1.36,1.81-1.76,1.46-1.33-2.06ZM736.29,60.8l-1.73-2.48L737,56.66c.59.82,1.15,1.62,1.7,2.4Zm1.19,6.65-2.77,2c-.6-.92-1.26-1.91-1.88-2.85l2.73-1.78Zm-3.25-44.38c.31.43.57.77.89,1.2l-1.15.82-1-1.15C733.43,23.65,733.81,23.38,734.23,23.07Zm-1.48,8.18,1.17,1.51L732.49,34l-1.15-1.79Zm-1.22,8,1.37,1.88L731,42.51l-1.37-2Zm-1.4,8.09,1.3,2-2.06,1.65c-.5-.69-1-1.38-1.53-2.07Zm-2.25,12.08c-.5-.77-1-1.55-1.49-2.33l2.31-1.72c.56.72,1.12,1.46,1.71,2.23Zm1.27,6.6-2.79,2-1.93-2.9,2.77-1.84ZM726,21.37l1.16,1.42-1.54,1.11-1-1.54Zm-1.4,8.12,1.28,1.7-1.78,1.31-1.24-1.82Zm-1.41,8.12c.45.64.9,1.28,1.39,2l-2,1.52c-.52-.75-1-1.44-1.45-2.12Zm-17.37.71-1.68-2.39,2.36-1.55,1.58,2.25Zm1,6.71-2.52,1.87c-.63-.89-1.26-1.8-1.87-2.65l2.64-1.73Zm3.75,15.28c.69.92,1.4,1.84,2,2.67l-3.06,2.22-1.72-2.92Zm.5-3.61-1.85-2.62,2.75-1.8,1.62,2.41Zm1.62-8.44-1.76-2.5,2.48-1.64c.52.77,1.07,1.57,1.63,2.38Zm1.52-8.59-1.56-2.21,2.2-1.46,1.49,2.12Zm4.62,22,2,2.79L718,66.57c-.6-.91-1.3-2-2-3Zm.67-3.71c-.53-.82-1-1.6-1.55-2.44l2.35-1.73,1.58,2.37Zm1.58-8.31-1.68-2.38,2.34-1.56c.53.76,1.07,1.54,1.56,2.26Zm-1.9-38.15,1,1.37L718.77,14l-1.06-1.5Zm-1.51,8.17,1.22,1.62-1.66,1.26c-.41-.59-.77-1.12-1.19-1.75Zm-1.38,8.17,1.31,1.85-1.84,1.4-1.43-2Zm-4-26c.3.41.58.79.93,1.25L711.8,4.24,710.8,3ZM710.94,10l1.11,1.42c-.63.47-1.14.85-1.67,1.26l-1-1.52C709.87,10.82,710.36,10.45,710.94,10Zm-1.54,8,1.36,1.82-1.89,1.39-1.38-1.95ZM708,26.18l1.42,2.05-2,1.52-1.52-2.16Zm-4-26,1.22,1.72L703.5,3.17l-1.29-1.8ZM702.55,8.4l1.12,1.71L702,11.4c-.41-.61-.8-1.17-1.21-1.77Zm-1.44,7.92c.5.72.95,1.36,1.42,2.05l-2,1.53L699,17.76Zm-1.46,8.21c.5.71,1,1.46,1.57,2.23L699,28.39l-1.67-2.3Zm-1.47,8.19c.53.75,1.1,1.58,1.7,2.44L697.45,37c-.61-.87-1.21-1.7-1.81-2.55Zm.43,10.84-2.69,2L694,42.71l2.78-1.81ZM694.26,6.69,695.5,8.6l-2,1.58-1.51-2Zm-1.41,8.12c.48.68,1,1.35,1.5,2.08l-2.28,1.69-1.42-2.14Zm-1.52,8L693,25.31l-2.41,1.77-1.83-2.52Zm.37,10.88-2.44,1.68-1.93-2.6,2.52-1.8ZM685.94,5l1.62,2.4-2.35,1.74-1.76-2.46Zm-1.46,8.19L686,15.58l-2.1,1.53-1.64-2.31C683,14.26,683.74,13.7,684.48,13.16Zm-1.39,8.24c.55.76,1.15,1.58,1.78,2.43l-2.47,1.76L680.47,23Zm-2.14,13-2.1-3.11,2.77-1.64,2,2.66Zm1.59,6.23-3.1,2.31-2.31-3.34,3.27-2ZM677.62,3.23l1.8,2.71L677,7.61c-.65-.85-1.35-1.74-2-2.58Zm-1.36,8.55,1.68,2.36-2.41,2.08c-.62-.89-1.32-1.87-2-2.82Zm-1.2,7.88,2,2.69-3,2.26-1.84-2.95Zm.64,11.09-3.13,2.33-2.35-3.35,3.33-2ZM669.41,1.83c.65.85,1.37,1.81,2,2.68l-2.71,2.13-2.18-3.16Zm-1.27,8,2.11,3-3,2.27c-.71-1-1.55-2.22-2.27-3.27Zm-1.41,8.09L668.58,21l-2.9,2.4-2-3.27ZM658.61,14a4.48,4.48,0,0,0-3-3.76,4.84,4.84,0,0,0,4.14-2.41l2.4,3.54ZM664,31.93a4.08,4.08,0,0,0-3.74-3.73c2-.21,4-.54,4.84-2.54l2.51,3.65Zm6.89,9.81a4.54,4.54,0,0,0-3-3.71A4.82,4.82,0,0,0,672,35.6l2.38,3.58Zm6.85,9.89a4.19,4.19,0,0,0-2.6-3.54L679,45.73,681.24,49C680.21,49.77,678.94,50.73,677.72,51.63Zm7.07,11c-.43-2.06-.84-4.13-3.35-4.87a4.73,4.73,0,0,0,4.25-2.48l2.6,3.81C686.72,59.44,685,60.24,684.79,62.59Zm1.53-9.7L684,49.42l3.09-1.73,2.18,2.81Zm1.42-9c-.64-.86-1.35-1.82-2-2.78l2.81-1.67c.66.88,1.36,1.79,2,2.61Zm5.34,18.2-2.4-2.83L694,57.44l1.85,2.68Zm1.54-8.3L692.45,51c.91-.62,1.91-1.29,2.82-1.92l2.11,3Zm6.94,16.92a10.7,10.7,0,0,0-1.49,1.34l-2.68-3.27,3.35-2.22c.73,1,1.61,2.27,2.45,3.47A8.55,8.55,0,0,0,701.56,70.76Zm-.37-6.86-1.83-3.18,2.83-1.95L704,61.59Zm1.56-8.39c-.62-.92-1.3-1.95-2-3l2.86-1.88,1.93,2.75Zm5.33,18.28-2.33-3.46,3.35-2.06,2.26,3.12Zm6.78,11c-.38-2-.87-3.94-3.26-4.66a4.72,4.72,0,0,0,4.24-2.46l2.69,3.83A4.23,4.23,0,0,0,714.86,84.77Zm1.57-9.51-2.18-3.42,3.15-2,2.23,3Zm6.75,11c-.23-2.36-1.06-3.87-2.57-4.48l3.73-2.36,2.5,3.47A4.53,4.53,0,0,0,723.18,86.31Zm1.61-9.65-2.07-3.26,3.06-2,2.16,3Zm6.67,10.28A4.3,4.3,0,0,0,729,83.32L732.69,81,735,84.22C734,85,732.66,86,731.46,86.94Zm1.69-8.83c-.59-1-1.34-2.12-2-3.21l3-2,2.18,2.92Zm6.7,11.25c-.1-2.39-1-3.79-2.4-4.52L741,82.49c.76,1,1.65,2.26,2.5,3.44A4.58,4.58,0,0,0,739.85,89.36Zm1.66-9.77c-.58-.92-1.29-2.07-2-3.22.86-.56,1.94-1.27,3-2,.69.93,1.48,2,2.14,2.91Zm6.74,11c-.21-2.16-1-3.66-2.49-4.31L749.43,84,752,87.43A4.49,4.49,0,0,0,748.25,90.64Zm1.63-9.52c-.59-1-1.31-2.11-2-3.27l2.74-1.72,2.21,2.75Zm1.48-8.94-1.85-2.58L752.09,68l1.85,2.41Zm5.29,18.61-2.42-3.16,3.31-1.85c.76.91,1.67,2,2.46,3Zm2.25-13.44,2.24,3-2.95,1.9-2.14-3Zm-1.57-39.06-1.12-1.59,1.58-1c.37.51.74,1,1.12,1.51C758.39,37.55,757.91,37.88,757.33,38.29Zm1.58-8.64-1-1.27,1.29-.86.92,1.26Z"/><path class="cls-15" d="M657.21,22.8c-.58,2.18-1.76,3.75-4.32,4,2.47,1.92,3.12,3.77,2.14,5.71a4,4,0,0,1-4.66,2,4,4,0,0,1-2.82-4.23c.18-2.14,1.67-3.36,4.47-3.63a4.21,4.21,0,0,1-3.08-4.12,4,4,0,0,1,7.91-1c.12.43.23.86.34,1.29Z"/><path class="cls-15" d="M698.15,81.67c1.34-2.58,3.12-3.55,5.3-2.88a4.05,4.05,0,0,1,2.76,4.14,4,4,0,0,1-3.64,3.7c-2.21.21-3.65-1-4.49-3.72-.88.66-1.69,1.68-2.7,1.93a5.36,5.36,0,0,1-3.38-.43,3.7,3.7,0,0,1-1.58-4.66,4,4,0,0,1,4.42-2.51C696.85,77.54,698,79.09,698.15,81.67Z"/><path class="cls-15" d="M647.67.43a4,4,0,1,1-4.09,3.88A4,4,0,0,1,647.67.43Z"/><path class="cls-15" d="M742.44,102.44a4,4,0,1,1,4-3.9A3.94,3.94,0,0,1,742.44,102.44Z"/><path class="cls-15" d="M738.12,97a4,4,0,1,1-3.94-4A3.93,3.93,0,0,1,738.12,97Z"/><path class="cls-15" d="M665.25,54.39a4,4,0,1,1,3.94-4A3.94,3.94,0,0,1,665.25,54.39Z"/><path class="cls-15" d="M676,60.22a4,4,0,1,1-4-3.93A3.92,3.92,0,0,1,676,60.22Z"/><path class="cls-15" d="M721.37,94a3.95,3.95,0,1,1-3.91-4A3.88,3.88,0,0,1,721.37,94Z"/><path class="cls-15" d="M650.07,12.74a4,4,0,1,1-4-3.88A3.91,3.91,0,0,1,650.07,12.74Z"/><path class="cls-15" d="M725.74,99.44a4,4,0,1,1,4-3.89A3.92,3.92,0,0,1,725.74,99.44Z"/><path class="cls-15" d="M662.31,40.63a4,4,0,1,1-3.86-4A3.91,3.91,0,0,1,662.31,40.63Z"/><path class="cls-15" d="M709.13,88.57a3.92,3.92,0,1,1-4,3.78A3.87,3.87,0,0,1,709.13,88.57Z"/><path class="cls-15" d="M648.52,21.19a3.9,3.9,0,1,1-3.8-3.92A3.88,3.88,0,0,1,648.52,21.19Z"/><path class="cls-15" d="M704.91,91A3.9,3.9,0,1,1,701,87.1,3.86,3.86,0,0,1,704.91,91Z"/><path class="cls-15" d="M744.87,106.49a3.88,3.88,0,1,1-3.88-3.86A3.88,3.88,0,0,1,744.87,106.49Z"/><path class="cls-15" d="M736.52,105a3.88,3.88,0,1,1-3.84-3.9A3.89,3.89,0,0,1,736.52,105Z"/><path class="cls-15" d="M674.46,68.57a3.88,3.88,0,1,1-3.93-3.84A3.87,3.87,0,0,1,674.46,68.57Z"/><path class="cls-15" d="M667.61,58.79a3.9,3.9,0,1,1-3.83-3.92A3.88,3.88,0,0,1,667.61,58.79Z"/><path class="cls-15" d="M685.73,75.75a3.91,3.91,0,1,1-3.84,3.89A3.85,3.85,0,0,1,685.73,75.75Z"/><path class="cls-15" d="M656.8,45a3.89,3.89,0,1,1-3.84,3.9A3.85,3.85,0,0,1,656.8,45Z"/><path class="cls-15" d="M653.87,39.08a3.89,3.89,0,1,1-3.83-3.9A3.86,3.86,0,0,1,653.87,39.08Z"/><path class="cls-15" d="M641.74,0h-5a3.89,3.89,0,1,0,5,0Z"/><path class="cls-15" d="M696.52,89.47a3.86,3.86,0,1,1-3.92-3.83A3.9,3.9,0,0,1,696.52,89.47Z"/><path class="cls-15" d="M643.07,33.08A3.86,3.86,0,1,1,647,29.24,3.91,3.91,0,0,1,643.07,33.08Z"/><path class="cls-15" d="M724.29,107.68a3.86,3.86,0,1,1,3.86-3.9A3.9,3.9,0,0,1,724.29,107.68Z"/><path class="cls-15" d="M681.3,78.21a3.86,3.86,0,1,1-3.85-3.91A3.9,3.9,0,0,1,681.3,78.21Z"/><path class="cls-15" d="M641.61,11.37a3.86,3.86,0,1,1-3.84-3.91A3.9,3.9,0,0,1,641.61,11.37Z"/><path class="cls-15" d="M753.22,108a3.87,3.87,0,1,1-3.93-3.84A3.9,3.9,0,0,1,753.22,108Z"/><path class="cls-15" d="M711.4,100.79A3.82,3.82,0,1,1,707.56,97,3.91,3.91,0,0,1,711.4,100.79Z"/><path class="cls-15" d="M715.88,98.48a3.85,3.85,0,1,1-3.8,3.83A3.9,3.9,0,0,1,715.88,98.48Z"/><path class="cls-15" d="M655.35,53.45a3.83,3.83,0,1,1-3.81,3.79A3.91,3.91,0,0,1,655.35,53.45Z"/><path class="cls-15" d="M761.36,108.27a4,4,0,0,0-3.45-2.63,3.86,3.86,0,1,0,3.45,5Z"/><path class="cls-15" d="M684.28,91.82A3.81,3.81,0,1,1,688.11,88,3.9,3.9,0,0,1,684.28,91.82Z"/><path class="cls-15" d="M640.06,19.64a3.8,3.8,0,1,1-3.83-3.76A3.87,3.87,0,0,1,640.06,19.64Z"/><path class="cls-15" d="M627.44,0a3.75,3.75,0,0,0-.32,1.46,3.77,3.77,0,1,0,7.54,0A3.78,3.78,0,0,0,634.34,0Z"/><path class="cls-15" d="M648.55,43.62a3.81,3.81,0,1,1-3.86,3.76A3.89,3.89,0,0,1,648.55,43.62Z"/><path class="cls-15" d="M645.42,37.62a3.79,3.79,0,1,1-3.78-3.82A3.85,3.85,0,0,1,645.42,37.62Z"/><path class="cls-15" d="M666,67.09a3.81,3.81,0,1,1-3.84-3.78A3.88,3.88,0,0,1,666,67.09Z"/><path class="cls-15" d="M669.06,72.89a3.78,3.78,0,1,1-3.76,3.84A3.85,3.85,0,0,1,669.06,72.89Z"/><path class="cls-15" d="M703.29,99.33a3.77,3.77,0,1,1-3.82-3.75A3.81,3.81,0,0,1,703.29,99.33Z"/><path class="cls-15" d="M647,59.43a3.65,3.65,0,1,1,3.67-3.67A3.58,3.58,0,0,1,647,59.43Z"/><path class="cls-15" d="M675.9,90.22a3.71,3.71,0,1,1,3.75-3.62A3.66,3.66,0,0,1,675.9,90.22Z"/><path class="cls-15" d="M657.52,65.58A3.66,3.66,0,1,1,653.78,62,3.57,3.57,0,0,1,657.52,65.58Z"/><path class="cls-15" d="M633.07,9.9a3.67,3.67,0,0,1-7.34-.14,3.67,3.67,0,1,1,7.34.14Z"/><path class="cls-15" d="M638.45,28.1a3.68,3.68,0,1,1-3.61-3.75A3.62,3.62,0,0,1,638.45,28.1Z"/><path class="cls-15" d="M756.16,121.5a3.66,3.66,0,1,1,3.71-3.63A3.59,3.59,0,0,1,756.16,121.5Z"/><path class="cls-15" d="M751.55,116.38a3.69,3.69,0,1,1-3.66-3.71A3.64,3.64,0,0,1,751.55,116.38Z"/><path class="cls-15" d="M739.47,118.55a3.69,3.69,0,1,1,3.72-3.65A3.64,3.64,0,0,1,739.47,118.55Z"/><path class="cls-15" d="M731.15,109.69a3.69,3.69,0,1,1-3.68,3.69A3.63,3.63,0,0,1,731.15,109.69Z"/><path class="cls-15" d="M726.46,111.85a3.67,3.67,0,1,1-3.69-3.64A3.6,3.6,0,0,1,726.46,111.85Z"/><path class="cls-15" d="M691.2,101.54a3.69,3.69,0,1,1,3.65-3.72A3.64,3.64,0,0,1,691.2,101.54Z"/><path class="cls-15" d="M640.18,49.56a3.63,3.63,0,1,1,3.59-3.71A3.55,3.55,0,0,1,640.18,49.56Z"/><path class="cls-15" d="M660.78,71.84a3.64,3.64,0,1,1-3.68,3.62A3.57,3.57,0,0,1,660.78,71.84Z"/><path class="cls-15" d="M667.62,81.42A3.61,3.61,0,1,1,664,85,3.57,3.57,0,0,1,667.62,81.42Z"/><path class="cls-15" d="M761.36,117.66a3.6,3.6,0,0,0-.41,1.55,3.66,3.66,0,0,0,.41,1.79Z"/><path class="cls-15" d="M631.52,18.25a3.61,3.61,0,1,1-3.47-3.68A3.55,3.55,0,0,1,631.52,18.25Z"/><path class="cls-15" d="M710,109.16a3.62,3.62,0,1,1-3.57-3.58A3.57,3.57,0,0,1,710,109.16Z"/><path class="cls-15" d="M633.23,32.48a3.61,3.61,0,1,1-3.55,3.62A3.57,3.57,0,0,1,633.23,32.48Z"/><path class="cls-15" d="M686.42,96.33a3.61,3.61,0,1,1-3.57-3.58A3.55,3.55,0,0,1,686.42,96.33Z"/><path class="cls-15" d="M718.08,110.81a3.64,3.64,0,1,1-3.55-3.77A3.57,3.57,0,0,1,718.08,110.81Z"/><path class="cls-15" d="M619,0a3.58,3.58,0,0,0,3.55,3.56A3.59,3.59,0,0,0,626.12,0H619Z"/><path class="cls-15" d="M701.62,107.67a3.59,3.59,0,1,1-3.62-3.56A3.57,3.57,0,0,1,701.62,107.67Z"/><path class="cls-15" d="M624.89,8.33a3.55,3.55,0,1,1-7.1,0,3.55,3.55,0,1,1,7.1,0Z"/><path class="cls-15" d="M642.21,54.41a3.56,3.56,0,1,1-3.37-3.68A3.6,3.6,0,0,1,642.21,54.41Z"/><path class="cls-15" d="M678,95a3.57,3.57,0,1,1-3.52-3.65A3.61,3.61,0,0,1,678,95Z"/><path class="cls-15" d="M645.46,67.7a3.57,3.57,0,1,1,3.62-3.54A3.61,3.61,0,0,1,645.46,67.7Z"/><path class="cls-15" d="M729.71,125.28a3.55,3.55,0,1,1,3.5-3.52A3.61,3.61,0,0,1,729.71,125.28Z"/><path class="cls-15" d="M655.94,74.06a3.56,3.56,0,1,1-3.42-3.64A3.62,3.62,0,0,1,655.94,74.06Z"/><path class="cls-15" d="M741.57,123.22a3.56,3.56,0,1,1-3.48-3.55A3.62,3.62,0,0,1,741.57,123.22Z"/><path class="cls-15" d="M623.15,26.46a3.57,3.57,0,1,1,3.52,3.65A3.61,3.61,0,0,1,623.15,26.46Z"/><path class="cls-15" d="M693.23,106.18a3.56,3.56,0,1,1-3.51-3.52A3.62,3.62,0,0,1,693.23,106.18Z"/><path class="cls-15" d="M635.63,44.46a3.55,3.55,0,1,1-3.49-3.56A3.61,3.61,0,0,1,635.63,44.46Z"/><path class="cls-15" d="M749.91,124.72a3.54,3.54,0,1,1-3.49-3.55A3.61,3.61,0,0,1,749.91,124.72Z"/><path class="cls-15" d="M721.28,116.69a3.55,3.55,0,1,1-3.52,3.53A3.62,3.62,0,0,1,721.28,116.69Z"/><path class="cls-15" d="M659.26,87.07a3.54,3.54,0,1,1,3.52-3.52A3.6,3.6,0,0,1,659.26,87.07Z"/><path class="cls-15" d="M708.36,117.18a3.47,3.47,0,1,1-3.47-3.4A3.51,3.51,0,0,1,708.36,117.18Z"/><path class="cls-15" d="M716.77,118.73a3.52,3.52,0,1,1-3.54-3.51A3.59,3.59,0,0,1,716.77,118.73Z"/><path class="cls-15" d="M751.21,126.09a3.52,3.52,0,1,1,3.4,3.63A3.6,3.6,0,0,1,751.21,126.09Z"/><path class="cls-15" d="M761.36,124.7a3.41,3.41,0,0,0,0,6Z"/><path class="cls-15" d="M625.22,38.36A3.47,3.47,0,1,1,628.69,35,3.51,3.51,0,0,1,625.22,38.36Z"/><path class="cls-15" d="M623.32,16.69a3.47,3.47,0,1,1-3.4-3.47A3.51,3.51,0,0,1,623.32,16.69Z"/><path class="cls-15" d="M669.57,93.38a3.47,3.47,0,1,1-3.4-3.47A3.51,3.51,0,0,1,669.57,93.38Z"/><path class="cls-15" d="M681.25,101.25a3.47,3.47,0,1,1-3.4,3.46A3.51,3.51,0,0,1,681.25,101.25Z"/><path class="cls-15" d="M634,62.69a3.43,3.43,0,1,1,3.44,3.38A3.41,3.41,0,0,1,634,62.69Z"/><path class="cls-15" d="M696.57,119.44a3.39,3.39,0,1,1,3.35-3.41A3.32,3.32,0,0,1,696.57,119.44Z"/><path class="cls-15" d="M647.72,72.48a3.4,3.4,0,1,1-3.41-3.39A3.35,3.35,0,0,1,647.72,72.48Z"/><path class="cls-15" d="M611.45,0a3.32,3.32,0,0,0,3.06,1.87,3.31,3.31,0,0,0,3-1.87Z"/><path class="cls-15" d="M634,52.78a3.38,3.38,0,1,1-3.4-3.37A3.33,3.33,0,0,1,634,52.78Z"/><path class="cls-15" d="M654.27,82.11A3.39,3.39,0,1,1,651,78.66,3.34,3.34,0,0,1,654.27,82.11Z"/><path class="cls-15" d="M621.71,25.05a3.35,3.35,0,1,1-3.39-3.36A3.29,3.29,0,0,1,621.71,25.05Z"/><path class="cls-15" d="M673,106.58a3.36,3.36,0,1,1,3.31-3.43A3.29,3.29,0,0,1,673,106.58Z"/><path class="cls-15" d="M654.43,91.67a3.33,3.33,0,1,1,3,3.53A3.27,3.27,0,0,1,654.43,91.67Z"/><path class="cls-15" d="M723.11,128.64a3.3,3.3,0,1,1-3.25-3.35A3.27,3.27,0,0,1,723.11,128.64Z"/><path class="cls-15" d="M728.16,133.39a3.31,3.31,0,1,1,3.32-3.27A3.27,3.27,0,0,1,728.16,133.39Z"/><path class="cls-15" d="M739.83,131.55a3.31,3.31,0,1,1-3.29-3.28A3.27,3.27,0,0,1,739.83,131.55Z"/><path class="cls-15" d="M748.18,133a3.3,3.3,0,1,1-3.37-3.23A3.27,3.27,0,0,1,748.18,133Z"/><path class="cls-15" d="M627.06,42.93a3.33,3.33,0,1,1-3.27-3.31A3.28,3.28,0,0,1,627.06,42.93Z"/><path class="cls-15" d="M613.06,3.53a3.25,3.25,0,0,1,3.24,3.35,3.32,3.32,0,1,1-6.63-.14A3.27,3.27,0,0,1,613.06,3.53Z"/><path class="cls-15" d="M688.17,111.25a3.32,3.32,0,1,1-3.3,3.29A3.26,3.26,0,0,1,688.17,111.25Z"/><path class="cls-15" d="M639.24,71A3.28,3.28,0,1,1,636,67.72,3.3,3.3,0,0,1,639.24,71Z"/><path class="cls-15" d="M611.54,11.92a3.28,3.28,0,1,1-3.32,3.27A3.3,3.3,0,0,1,611.54,11.92Z"/><path class="cls-15" d="M620.14,33.45a3.28,3.28,0,1,1-3.26-3.33A3.3,3.3,0,0,1,620.14,33.45Z"/><path class="cls-15" d="M664.59,98.46a3.28,3.28,0,1,1-3.26,3.33A3.29,3.29,0,0,1,664.59,98.46Z"/><path class="cls-15" d="M708.47,127a3.29,3.29,0,1,1,3.2,3.4A3.29,3.29,0,0,1,708.47,127Z"/><path class="cls-15" d="M756.52,134.57a3.29,3.29,0,1,1-3.32-3.29A3.28,3.28,0,0,1,756.52,134.57Z"/><path class="cls-15" d="M649.67,87.15a3.25,3.25,0,1,1-3.23,3.23A3.31,3.31,0,0,1,649.67,87.15Z"/><path class="cls-15" d="M703.47,122.35a3.26,3.26,0,1,1-3.33,3.15A3.31,3.31,0,0,1,703.47,122.35Z"/><path class="cls-15" d="M625.83,61a3.27,3.27,0,1,1,3.08,3.39A3.3,3.3,0,0,1,625.83,61Z"/><path class="cls-15" d="M679.79,116.34a3.27,3.27,0,1,1,3.31-3.16A3.3,3.3,0,0,1,679.79,116.34Z"/><path class="cls-15" d="M619,51.31a3.25,3.25,0,1,1,3.22,3.24A3.29,3.29,0,0,1,619,51.31Z"/><path class="cls-15" d="M761.36,132.81a3.25,3.25,0,0,0,0,6.48Z"/><path class="cls-15" d="M646.09,80.9A3.27,3.27,0,1,1,643,77.58,3.28,3.28,0,0,1,646.09,80.9Z"/><path class="cls-15" d="M695.05,120.9a3.22,3.22,0,1,1-3.22,3.25A3.3,3.3,0,0,1,695.05,120.9Z"/><path class="cls-15" d="M671.48,114.78a3.2,3.2,0,1,1,3.19-3.13A3.26,3.26,0,0,1,671.48,114.78Z"/><path class="cls-15" d="M610,26.75a3.2,3.2,0,1,1,3.19-3.13A3.25,3.25,0,0,1,610,26.75Z"/><path class="cls-15" d="M618.55,41.52a3.18,3.18,0,1,1-3-3.23A3.22,3.22,0,0,1,618.55,41.52Z"/><path class="cls-15" d="M659.43,100.24a3.18,3.18,0,1,1-3.1-3.17A3.24,3.24,0,0,1,659.43,100.24Z"/><path class="cls-15" d="M689.82,122.58a3.13,3.13,0,1,1-3.17-3.09A3.14,3.14,0,0,1,689.82,122.58Z"/><path class="cls-15" d="M644.4,88.86a3.07,3.07,0,1,1-3-3A3,3,0,0,1,644.4,88.86Z"/><path class="cls-15" d="M623.79,59.7a3,3,0,1,1-2.93-3.09A3,3,0,0,1,623.79,59.7Z"/><path class="cls-15" d="M606.16,13.74a3,3,0,1,1-2.95-3.06A3,3,0,0,1,606.16,13.74Z"/><path class="cls-15" d="M634.48,76.27a3.09,3.09,0,1,1-3.09,3.11A3,3,0,0,1,634.48,76.27Z"/><path class="cls-15" d="M663.11,113.12a3,3,0,1,1,3-3A3,3,0,0,1,663.11,113.12Z"/><path class="cls-15" d="M604.7,8.46a3.08,3.08,0,0,1-3.17-3,3.11,3.11,0,1,1,3.17,3Z"/><path class="cls-15" d="M761.36,141.67a3.07,3.07,0,0,0-1.22-.27,3,3,0,1,0-.09,6,3.17,3.17,0,0,0,1.31-.28Z"/><path class="cls-15" d="M751.69,139.88a3,3,0,1,1-3,3.05A3,3,0,0,1,751.69,139.88Z"/><path class="cls-15" d="M743.45,144.47a3.05,3.05,0,1,1,3-3A3,3,0,0,1,743.45,144.47Z"/><path class="cls-15" d="M613.93,52.82a3,3,0,1,1,3-3A3,3,0,0,1,613.93,52.82Z"/><path class="cls-15" d="M735.05,143a3.07,3.07,0,1,1,3.05-3A3,3,0,0,1,735.05,143Z"/><path class="cls-15" d="M729.74,138.37a3.07,3.07,0,1,1-3.06-3A3,3,0,0,1,729.74,138.37Z"/><path class="cls-15" d="M718.59,140a3,3,0,1,1,3.08-3A3,3,0,0,1,718.59,140Z"/><path class="cls-15" d="M678.35,124.44a3,3,0,1,1,3-3A3,3,0,0,1,678.35,124.44Z"/><path class="cls-15" d="M713.29,135.4a3,3,0,1,1-3-3A3,3,0,0,1,713.29,135.4Z"/><path class="cls-15" d="M630.69,69.58a3.08,3.08,0,1,1-3.05-3.15A3,3,0,0,1,630.69,69.58Z"/><path class="cls-15" d="M648.15,95.74a3,3,0,1,1-3,3.06A3,3,0,0,1,648.15,95.74Z"/><path class="cls-15" d="M608.56,34.94a3,3,0,1,1,3-3A3,3,0,0,1,608.56,34.94Z"/><path class="cls-15" d="M696.52,132.54a3,3,0,1,1-2.86-3A3,3,0,0,1,696.52,132.54Z"/><path class="cls-15" d="M702,131a3,3,0,1,1-3,3A3,3,0,0,1,702,131Z"/><path class="cls-15" d="M610,40.29a3,3,0,1,1-2.9-3A3,3,0,0,1,610,40.29Z"/><path class="cls-15" d="M626.1,80.81a2.95,2.95,0,1,1,3-2.93A3,3,0,0,1,626.1,80.81Z"/><path class="cls-15" d="M604.61,22a3,3,0,1,1-3-2.94A3,3,0,0,1,604.61,22Z"/><path class="cls-15" d="M669.91,117a3,3,0,1,1-2.89,3A3,3,0,0,1,669.91,117Z"/><path class="cls-15" d="M655.06,105.64a3,3,0,1,1-3,2.92A3,3,0,0,1,655.06,105.64Z"/><path class="cls-15" d="M599.16,3.92a2.88,2.88,0,1,1-5.76-.19,2.88,2.88,0,0,1,5.76.19Z"/><path class="cls-15" d="M633.09,84.48a2.93,2.93,0,1,1-3,2.85A3,3,0,0,1,633.09,84.48Z"/><path class="cls-15" d="M639.83,94.38A2.88,2.88,0,1,1,637,97.24,2.92,2.92,0,0,1,639.83,94.38Z"/><path class="cls-15" d="M612.45,55.29a2.88,2.88,0,1,1-2.94,2.78A2.93,2.93,0,0,1,612.45,55.29Z"/><path class="cls-15" d="M619.24,65.08a2.94,2.94,0,1,1-2.92,3A3,3,0,0,1,619.24,65.08Z"/><path class="cls-15" d="M688.1,130.93a2.9,2.9,0,1,1-2.87-2.86A3,3,0,0,1,688.1,130.93Z"/><path class="cls-15" d="M664.43,118.39a2.8,2.8,0,1,1-2.89-2.75A2.76,2.76,0,0,1,664.43,118.39Z"/><path class="cls-15" d="M753,151.28a2.76,2.76,0,1,1-2.68-2.77A2.7,2.7,0,0,1,753,151.28Z"/><path class="cls-15" d="M646.67,104.32a2.79,2.79,0,1,1-2.74,2.74A2.74,2.74,0,0,1,646.67,104.32Z"/><path class="cls-15" d="M708.78,146.55a2.75,2.75,0,1,1,2.74-2.71A2.68,2.68,0,0,1,708.78,146.55Z"/><path class="cls-15" d="M719.91,145.29a2.78,2.78,0,1,1-2.72-2.77A2.73,2.73,0,0,1,719.91,145.29Z"/><path class="cls-15" d="M605.59,51.08a2.76,2.76,0,1,1,2.7-2.75A2.7,2.7,0,0,1,605.59,51.08Z"/><path class="cls-15" d="M597.55,12.28a2.77,2.77,0,1,1-5.53-.13,2.77,2.77,0,1,1,5.53.13Z"/><path class="cls-15" d="M725.18,149.59a2.8,2.8,0,1,1,2.8-2.83A2.76,2.76,0,0,1,725.18,149.59Z"/><path class="cls-15" d="M679.61,129.51a2.77,2.77,0,1,1-2.67-2.79A2.71,2.71,0,0,1,679.61,129.51Z"/><path class="cls-15" d="M733.53,151.08a2.8,2.8,0,1,1,2.81-2.82A2.74,2.74,0,0,1,733.53,151.08Z"/><path class="cls-15" d="M600.1,27.62a2.8,2.8,0,1,1-2.74,2.89A2.75,2.75,0,0,1,600.1,27.62Z"/><path class="cls-15" d="M741.91,152.56a2.78,2.78,0,1,1,2.76-2.72A2.73,2.73,0,0,1,741.91,152.56Z"/><path class="cls-15" d="M761.33,152.42a2.73,2.73,0,1,1-2.77-2.69A2.66,2.66,0,0,1,761.33,152.42Z"/><path class="cls-15" d="M613.59,66.48a2.69,2.69,0,1,1-2.66-2.64A2.7,2.7,0,0,1,613.59,66.48Z"/><path class="cls-15" d="M627.32,86.22a2.7,2.7,0,1,1-2.73-2.7A2.67,2.67,0,0,1,627.32,86.22Z"/><path class="cls-15" d="M656.26,116.93a2.69,2.69,0,1,1-2.64-2.67A2.7,2.7,0,0,1,656.26,116.93Z"/><path class="cls-15" d="M692.08,138.15a2.68,2.68,0,1,1-2.7,2.62A2.69,2.69,0,0,1,692.08,138.15Z"/><path class="cls-15" d="M700.48,139.61a2.71,2.71,0,1,1-2.77,2.68A2.68,2.68,0,0,1,700.48,139.61Z"/><path class="cls-15" d="M620.46,76.34a2.7,2.7,0,1,1-2.77-2.67A2.69,2.69,0,0,1,620.46,76.34Z"/><path class="cls-15" d="M601.35,38.83a2.69,2.69,0,1,1-2.55-2.74A2.7,2.7,0,0,1,601.35,38.83Z"/><path class="cls-15" d="M593.41,17.89a2.68,2.68,0,1,1-2.79,2.53A2.71,2.71,0,0,1,593.41,17.89Z"/><path class="cls-15" d="M631.47,98.45a2.69,2.69,0,1,1,2.71-2.59A2.69,2.69,0,0,1,631.47,98.45Z"/><path class="cls-15" d="M671.17,128.11a2.68,2.68,0,1,1-2.53-2.79A2.71,2.71,0,0,1,671.17,128.11Z"/><path class="cls-15" d="M606.68,56.71A2.65,2.65,0,1,1,604,54,2.71,2.71,0,0,1,606.68,56.71Z"/><path class="cls-15" d="M638.4,108.26a2.65,2.65,0,1,1,2.59-2.73A2.71,2.71,0,0,1,638.4,108.26Z"/><path class="cls-15" d="M686.32,139.36a2.61,2.61,0,1,1-2.51-2.64A2.69,2.69,0,0,1,686.32,139.36Z"/><path class="cls-15" d="M588.93,0h-2a2.67,2.67,0,0,0-1.6,2.28,2.59,2.59,0,1,0,5.18.1A2.64,2.64,0,0,0,588.93,0Z"/><path class="cls-15" d="M591.73,26.39A2.54,2.54,0,1,1,589.27,29,2.53,2.53,0,0,1,591.73,26.39Z"/><path class="cls-15" d="M663,126.83a2.54,2.54,0,1,1-2.55-2.56A2.54,2.54,0,0,1,663,126.83Z"/><path class="cls-15" d="M642.71,115.51a2.5,2.5,0,1,1,2.48,2.45A2.49,2.49,0,0,1,642.71,115.51Z"/><path class="cls-15" d="M675.35,135.38a2.46,2.46,0,1,1-2.46,2.42A2.41,2.41,0,0,1,675.35,135.38Z"/><path class="cls-15" d="M625.57,94.32a2.44,2.44,0,1,1-2.39-2.49A2.38,2.38,0,0,1,625.57,94.32Z"/><path class="cls-15" d="M609.34,72.44a2.44,2.44,0,1,1-2.37,2.5A2.39,2.39,0,0,1,609.34,72.44Z"/><path class="cls-15" d="M599.67,46.82a2.5,2.5,0,1,1-2.43-2.49A2.47,2.47,0,0,1,599.67,46.82Z"/><path class="cls-15" d="M586.42,13.16A2.38,2.38,0,0,1,584,10.72a2.44,2.44,0,1,1,4.88,0A2.37,2.37,0,0,1,586.42,13.16Z"/><path class="cls-15" d="M718.09,153.69a2.46,2.46,0,1,1-2.39-2.49A2.39,2.39,0,0,1,718.09,153.69Z"/><path class="cls-15" d="M726.47,155.21a2.48,2.48,0,1,1-2.34-2.54A2.44,2.44,0,0,1,726.47,155.21Z"/><path class="cls-15" d="M616.26,87.18a2.46,2.46,0,1,1,2.47-2.41A2.4,2.4,0,0,1,616.26,87.18Z"/><path class="cls-15" d="M732.12,159.11a2.48,2.48,0,1,1,2.4-2.47A2.43,2.43,0,0,1,732.12,159.11Z"/><path class="cls-15" d="M742.88,157.86a2.48,2.48,0,1,1-2.37-2.5A2.44,2.44,0,0,1,742.88,157.86Z"/><path class="cls-15" d="M751.2,159.26a2.44,2.44,0,1,1-2.51-2.38A2.38,2.38,0,0,1,751.2,159.26Z"/><path class="cls-15" d="M592.69,37.23a2.38,2.38,0,1,1-2.39-2.33A2.41,2.41,0,0,1,592.69,37.23Z"/><path class="cls-15" d="M664.63,136.23a2.37,2.37,0,1,1,2.25,2.49A2.42,2.42,0,0,1,664.63,136.23Z"/><path class="cls-15" d="M701.31,150.61a2.39,2.39,0,1,1-2.4-2.33A2.37,2.37,0,0,1,701.31,150.61Z"/><path class="cls-15" d="M585,16.71a2.37,2.37,0,1,1-2.44,2.3A2.42,2.42,0,0,1,585,16.71Z"/><path class="cls-15" d="M629.92,101.71a2.41,2.41,0,1,1-2.34,2.52A2.37,2.37,0,0,1,629.92,101.71Z"/><path class="cls-15" d="M707.34,154.59a2.43,2.43,0,1,1,2.36-2.53A2.37,2.37,0,0,1,707.34,154.59Z"/><path class="cls-15" d="M602.53,62.63A2.4,2.4,0,1,1,600.14,65,2.36,2.36,0,0,1,602.53,62.63Z"/><path class="cls-15" d="M652.13,122.92a2.39,2.39,0,1,1-2.44,2.29A2.38,2.38,0,0,1,652.13,122.92Z"/><path class="cls-15" d="M757.17,163.22a2.4,2.4,0,1,1,2.34-2.39A2.38,2.38,0,0,1,757.17,163.22Z"/><path class="cls-15" d="M634.5,113.9a2.36,2.36,0,1,1,2.32,2.42A2.44,2.44,0,0,1,634.5,113.9Z"/><path class="cls-15" d="M690.55,151.52a2.34,2.34,0,1,1,2.36-2.25A2.42,2.42,0,0,1,690.55,151.52Z"/><path class="cls-15" d="M595.73,52.83a2.36,2.36,0,1,1-2.4,2.34A2.43,2.43,0,0,1,595.73,52.83Z"/><path class="cls-15" d="M682.23,149.92a2.24,2.24,0,1,1,2.22-2.29A2.23,2.23,0,0,1,682.23,149.92Z"/><path class="cls-15" d="M661.14,134.9a2.2,2.2,0,1,1-2.09-2.24A2.16,2.16,0,0,1,661.14,134.9Z"/><path class="cls-15" d="M577.54,0a2.22,2.22,0,0,0-.17.9,2.2,2.2,0,1,0,4.4-.05A2.62,2.62,0,0,0,581.6,0Z"/><path class="cls-15" d="M614.82,90.58a2.2,2.2,0,1,1-2.24,2.09A2.17,2.17,0,0,1,614.82,90.58Z"/><path class="cls-15" d="M610.11,83.16A2.2,2.2,0,1,1,607.92,81,2.16,2.16,0,0,1,610.11,83.16Z"/><path class="cls-15" d="M643.69,126a2.18,2.18,0,1,1,2.21-2.1A2.11,2.11,0,0,1,643.69,126Z"/><path class="cls-15" d="M588.79,47.81A2.18,2.18,0,1,1,591,45.7,2.12,2.12,0,0,1,588.79,47.81Z"/><path class="cls-15" d="M583.47,29.61a2.18,2.18,0,1,1,2.15-2.16A2.12,2.12,0,0,1,583.47,29.61Z"/><path class="cls-15" d="M601,71.24a2.15,2.15,0,1,1-2.08,2.21A2.08,2.08,0,0,1,601,71.24Z"/><path class="cls-15" d="M623.79,102.69a2.15,2.15,0,1,1-2.09-2.21A2.09,2.09,0,0,1,623.79,102.69Z"/><path class="cls-15" d="M741,166.26a2.1,2.1,0,1,1-2-2.17A2.09,2.09,0,0,1,741,166.26Z"/><path class="cls-15" d="M724.62,163.22a2.12,2.12,0,1,1-2-2.13A2.08,2.08,0,0,1,724.62,163.22Z"/><path class="cls-15" d="M730.53,162.58a2.12,2.12,0,1,1-2.09,2.07A2.07,2.07,0,0,1,730.53,162.58Z"/><path class="cls-15" d="M676,146.21a2.1,2.1,0,1,1-2-2.12A2.09,2.09,0,0,1,676,146.21Z"/><path class="cls-15" d="M749.34,167.63a2.08,2.08,0,1,1-2.12-2A2.11,2.11,0,0,1,749.34,167.63Z"/><path class="cls-15" d="M716.23,162a2.09,2.09,0,1,1-4.18-.09,2.11,2.11,0,0,1,2.14-2A2.09,2.09,0,0,1,716.23,162Z"/><path class="cls-15" d="M580.17,9.19a2.1,2.1,0,1,1-2.1-2A2.1,2.1,0,0,1,580.17,9.19Z"/><path class="cls-15" d="M628.48,110.39a2.09,2.09,0,1,1,0,4.18,2.09,2.09,0,0,1,0-4.18Z"/><path class="cls-15" d="M596.28,63.52a2.09,2.09,0,1,1-2.08-2.07A2.1,2.1,0,0,1,596.28,63.52Z"/><path class="cls-15" d="M705.76,158.45a2.11,2.11,0,0,1,2.09,2.08,2.06,2.06,0,0,1-2.11,2,2,2,0,0,1-2-2A2.08,2.08,0,0,1,705.76,158.45Z"/><path class="cls-15" d="M635.4,120.32a2,2,0,1,1-2,2A2.06,2.06,0,0,1,635.4,120.32Z"/><path class="cls-15" d="M581.93,33.76a2,2,0,1,1-2,2A2.09,2.09,0,0,1,581.93,33.76Z"/><path class="cls-15" d="M757.65,169.17a2,2,0,1,1-2-2A2.09,2.09,0,0,1,757.65,169.17Z"/><path class="cls-15" d="M697.47,161a2,2,0,1,1,2-2A2.06,2.06,0,0,1,697.47,161Z"/><path class="cls-15" d="M652.64,133.44a2.06,2.06,0,1,1-1.91-2.12A2.13,2.13,0,0,1,652.64,133.44Z"/><path class="cls-15" d="M576.66,19.52a1.92,1.92,0,0,1-2-2,1.85,1.85,0,0,1,1.92-1.87,1.93,1.93,0,0,1,.09,3.86Z"/><path class="cls-15" d="M587.25,51.71a2,2,0,0,1,2,1.95,2,2,0,0,1-2,2,1.92,1.92,0,0,1-2-1.86A2,2,0,0,1,587.25,51.71Z"/><path class="cls-15" d="M665.76,146.68a2,2,0,0,1-1.93-2.06,2,2,0,0,1,2.09-1.88,1.91,1.91,0,0,1,1.85,2A2,2,0,0,1,665.76,146.68Z"/><path class="cls-15" d="M606.4,89.71a1.77,1.77,0,0,1,1.88,1.85,1.86,1.86,0,0,1-3.71.06A1.76,1.76,0,0,1,606.4,89.71Z"/><path class="cls-15" d="M615.17,101.16a1.77,1.77,0,0,1-1.91,1.83,1.86,1.86,0,1,1,0-3.71A1.77,1.77,0,0,1,615.17,101.16Z"/><path class="cls-15" d="M691,157.48c-.13,1.23-.74,1.93-1.92,1.91a1.86,1.86,0,0,1,.05-3.71A1.77,1.77,0,0,1,691,157.48Z"/><path class="cls-15" d="M644.05,132.08c-.13,1.17-.69,1.87-1.81,1.87a1.78,1.78,0,0,1,0-3.56A1.75,1.75,0,0,1,644.05,132.08Z"/><path class="cls-15" d="M601.43,81.64c-.11,1.25-.7,2-1.89,1.93a1.83,1.83,0,0,1,0-3.66A1.77,1.77,0,0,1,601.43,81.64Z"/><path class="cls-15" d="M582.58,44c-.09,1.21-.63,1.92-1.75,2a1.78,1.78,0,0,1-.14-3.55A1.75,1.75,0,0,1,582.58,44Z"/><path class="cls-15" d="M622,111.12a1.69,1.69,0,0,1-1.73,1.66,1.73,1.73,0,0,1-1.88-1.83,1.69,1.69,0,0,1,1.79-1.77A1.81,1.81,0,0,1,622,111.12Z"/><path class="cls-15" d="M659.26,143.19c-.12,1.09-.67,1.79-1.79,1.8a1.78,1.78,0,1,1,0-3.55C658.56,141.42,659.12,142.11,659.26,143.19Z"/><path class="cls-15" d="M592.55,73.72a1.82,1.82,0,1,1,.34-3.62,1.67,1.67,0,0,1,1.59,2C594.4,73.17,593.67,73.68,592.55,73.72Z"/><path class="cls-15" d="M585.75,64c-.45-.66-1.17-1.29-1.27-2a1.65,1.65,0,1,1,3.3.07c-.13.71-.87,1.3-1.35,1.95Z"/><path class="cls-15" d="M577.2,25.81c-.13,1.18-.68,1.89-1.81,1.89a1.63,1.63,0,0,1-1.76-1.79,1.63,1.63,0,0,1,1.68-1.73A1.77,1.77,0,0,1,577.2,25.81Z"/><path class="cls-15" d="M629,121.22c-.66.44-1.29,1.17-2,1.26a1.65,1.65,0,1,1,.07-3.3c.7.13,1.3.88,1.94,1.35Z"/><path class="cls-15" d="M682.53,156c-.15,1.16-.72,1.87-1.84,1.84a1.76,1.76,0,0,1,0-3.52A1.77,1.77,0,0,1,682.53,156Z"/><path class="cls-15" d="M569.47,0a1.6,1.6,0,0,0,1.69,1.44A1.65,1.65,0,0,0,573,0Z"/><path class="cls-15" d="M722.88,172c-.67.41-1.37,1.17-2,1.11a2.28,2.28,0,0,1-1.45-1.59,1.34,1.34,0,0,1,1.68-1.52c.65.14,1.19.86,1.77,1.32C722.89,171.53,722.88,171.76,722.88,172Z"/><path class="cls-15" d="M672.57,152.24c.8,1,1.53,1.53,1.67,2.19a1.42,1.42,0,0,1-1.51,1.74c-1,0-1.79-.61-1.65-1.62C671.18,153.89,671.86,153.3,672.57,152.24Z"/><path class="cls-15" d="M731.25,173.38c-.64.44-1.3,1.24-1.92,1.21a2.28,2.28,0,0,1-1.54-1.52,1.34,1.34,0,0,1,1.6-1.6c.67.1,1.23.8,1.84,1.23C731.24,172.93,731.25,173.15,731.25,173.38Z"/><path class="cls-15" d="M574.17,32.53c.41.55,1.06,1.06,1.19,1.67a1.22,1.22,0,0,1-1.46,1.54,2.18,2.18,0,0,1-1.42-1.43c-.08-.52.63-1.16,1-1.75Z"/><path class="cls-15" d="M649.46,143.5c-1.35-.31-2.07-.87-1.83-1.83a2.31,2.31,0,0,1,1.47-1.42,1.22,1.22,0,0,1,1.47,1.52C650.46,142.39,649.85,142.93,649.46,143.5Z"/><path class="cls-15" d="M581,52.52c-.57.4-1.09,1-1.71,1.14a1.21,1.21,0,0,1-1.49-1.49,2.16,2.16,0,0,1,1.46-1.39c.53-.06,1.15.66,1.73,1C581,52.05,581,52.29,581,52.52Z"/><path class="cls-15" d="M704.81,166.83c.34.65,1,1.35.91,1.92a2.14,2.14,0,0,1-1.55,1.29,1.23,1.23,0,0,1-1.35-1.65c.16-.61.84-1.08,1.28-1.62Z"/><path class="cls-15" d="M712.34,171.91c-.43-.61-1.1-1.16-1.22-1.82-.18-1,.5-1.58,1.5-1.6s1.71.57,1.56,1.53c-.09.67-.74,1.25-1.13,1.87Z"/><path class="cls-15" d="M737.76,172.71c.42.61,1.07,1.17,1.19,1.83.17,1-.52,1.57-1.52,1.58s-1.7-.6-1.55-1.56c.11-.66.76-1.23,1.17-1.85Z"/><path class="cls-15" d="M745.26,177.78c-.34-.65-1-1.35-.91-1.92a2.12,2.12,0,0,1,1.55-1.29,1.24,1.24,0,0,1,1.35,1.65c-.16.61-.84,1.08-1.28,1.62Z"/><path class="cls-15" d="M570,5.89c.44.6,1.12,1.14,1.26,1.79.2,1-.46,1.6-1.46,1.64s-1.73-.53-1.6-1.5c.08-.67.71-1.27,1.09-1.9Z"/><path class="cls-15" d="M634.29,129c.36.6,1.07,1.25,1,1.76a1.4,1.4,0,0,1-2.79-.11c-.05-.52.71-1.11,1.12-1.67Z"/><path class="cls-15" d="M604.62,101.38c-.4-.57-1.14-1.17-1.09-1.69a1.4,1.4,0,0,1,2.8-.06c.08.52-.65,1.15-1,1.74Z"/><path class="cls-15" d="M599.8,90.45c-.58.38-1.2,1.11-1.72,1s-1-.9-1.51-1.39c.5-.5,1-1.33,1.51-1.4s1.14.67,1.72,1Z"/><path class="cls-15" d="M754.54,175.84c.36.6,1.07,1.27,1,1.77A2.12,2.12,0,0,1,754,178.9c-.4,0-1.24-.9-1.24-1.41s.72-1.12,1.13-1.69Z"/><path class="cls-15" d="M696,169.45c-.72-.92-1.53-1.5-1.46-1.95s.88-1.06,1.37-1.58c.48.48,1.29.91,1.36,1.44S696.67,168.47,696,169.45Z"/><path class="cls-15" d="M613.86,109.39c-.91.73-1.5,1.53-2,1.46s-1-.88-1.57-1.37c.47-.48.91-1.28,1.44-1.35S612.89,108.76,613.86,109.39Z"/><path class="cls-15" d="M593.57,80.27c-1,.67-1.58,1.44-2,1.34s-1-.93-1.5-1.45c.5-.45,1-1.23,1.51-1.27S592.63,79.58,593.57,80.27Z"/><path class="cls-15" d="M568.63,18.16c-.73-.91-1.53-1.5-1.46-1.95s.88-1.05,1.36-1.57c.49.47,1.29.91,1.36,1.44S569.25,17.19,568.63,18.16Z"/><path class="cls-15" d="M666.38,153.1c-1,.66-1.6,1.42-2,1.32s-1-.95-1.49-1.47c.51-.45,1-1.22,1.53-1.26S665.45,152.4,666.38,153.1Z"/><path class="cls-15" d="M586.53,70.5c-.89.58-1.5,1.27-1.9,1.16s-.89-.91-1.33-1.4c.49-.4,1-1.1,1.45-1.11S585.71,69.84,586.53,70.5Z"/><path class="cls-15" d="M689.51,165.88c-1,.63-1.5,1.28-1.94,1.21a1.83,1.83,0,0,1-1.18-1.29c0-.33.73-1.1,1.16-1.12S688.56,165.26,689.51,165.88Z"/><path class="cls-15" d="M620.58,119.29c-.94.65-1.47,1.31-1.92,1.25a1.85,1.85,0,0,1-1.2-1.26c-.06-.33.7-1.12,1.13-1.14S619.61,118.69,620.58,119.29Z"/><path class="cls-15" d="M642.51,140.29c-.85.55-1.4,1.17-1.76,1.08s-.83-.82-1.23-1.26c.43-.37.85-1,1.3-1S641.71,139.68,642.51,140.29Z"/><path class="cls-15" d="M655.9,153.27c-.52-.84-1.07-1.33-1-1.79s.82-1.09,1.09-1a1.82,1.82,0,0,1,1.11,1.2C657.12,152,656.49,152.5,655.9,153.27Z"/><path class="cls-15" d="M577.72,58.89c.57.77,1.16,1.22,1.13,1.62s-.66,1.1-1,1.11a1.56,1.56,0,0,1-1.11-1C576.64,60.19,577.21,59.7,577.72,58.89Z"/><path class="cls-15" d="M567.14,22.74c.5.86,1,1.37,1,1.83s-.85,1.06-1.12,1a1.8,1.8,0,0,1-1.07-1.23C565.89,24,566.53,23.5,567.14,22.74Z"/><path class="cls-15" d="M680.89,164.45c-.8.52-1.29,1.08-1.69,1s-.75-.72-1.12-1.11c.4-.37.77-1,1.2-1S680.13,163.88,680.89,164.45Z"/><path class="cls-15" d="M574.18,42.57c-.8.62-1.3,1.29-1.67,1.22s-.89-.74-1.32-1.16c.4-.4.76-1.06,1.21-1.12S573.33,42,574.18,42.57Z"/><path class="cls-15" d="M625.55,130.81c-.54-.78-1.12-1.25-1.06-1.63a1.61,1.61,0,0,1,1.1-1c.27-.05,1,.62,1,1S626.06,130,625.55,130.81Z"/><path class="cls-15" d="M603.63,106.66c.49.6,1,.94,1,1.27s-.51.67-.8,1c-.34-.28-.88-.53-.94-.87S603.24,107.32,603.63,106.66Z"/><path class="cls-15" d="M590,87.29c.43.64.9,1,.85,1.33a1.32,1.32,0,0,1-.92.82c-.2,0-.76-.5-.76-.79S589.58,87.94,590,87.29Z"/><path class="cls-15" d="M672.49,162.81c-.61.47-1,1-1.28.93a1.32,1.32,0,0,1-.88-.86c-.05-.21.46-.8.75-.82S671.82,162.43,672.49,162.81Z"/><path class="cls-15" d="M561.6,7.56c-.4-.66-.84-1.08-.78-1.38a1.38,1.38,0,0,1,1-.77c.21,0,.73.56.72.84S562.06,6.94,561.6,7.56Z"/><path class="cls-15" d="M596.79,99.48c-.4-.59-.9-1-.83-1.29s.63-.68,1-1c.31.37.8.71.85,1.11S597.27,98.94,596.79,99.48Z"/><path class="cls-15" d="M737.13,183c-.56.36-1,.8-1.21.72s-.58-.62-.86-1c.33-.25.65-.68,1-.68S736.63,182.55,737.13,183Z"/><path class="cls-15" d="M719.47,178.7c.42.53.91.9.86,1.14s-.56.63-.86.94c-.28-.29-.74-.56-.77-.88S719.09,179.25,719.47,178.7Z"/><path class="cls-15" d="M729.08,181.34c-.52.43-.88.93-1.12.88s-.64-.54-1-.84c.29-.28.55-.75.87-.79S728.52,181,729.08,181.34Z"/><path class="cls-15" d="M0,491.8v19.94H57.71l-1.17-1.59,1.77-1.31,1.3,1.85L58,511.74h6.76l-.09-.13,1.78-1.23,1,1.36h7l.32-.24.18.24h25.32l-1.88-2.68,3.09-2.28,2.35,3.31-2.72,1.65h6.22l-.87-1.2,3.48-2.54,2,3.36-.5.38h3.83l3-2.43a5,5,0,0,0,1,2.43h5.92a3.71,3.71,0,0,0,.82-1.41,3.77,3.77,0,0,0-1.81-4.59,5.26,5.26,0,0,0-3.27-.29c-1,.27-1.74,1.24-2.64,1.93a4,4,0,0,0-3.68-3.8c-2.22-.26-3.62,1-4.55,3.1-.22-2.48-.61-3.09-2.79-4.64,2.75-.73,4-1.93,4.16-4a3.92,3.92,0,0,0-2.64-4.07,5.52,5.52,0,0,0-3.27.18c-.93.38-1.6,1.39-2.34,2.09-.23-2-.67-2.66-2.76-4.07.33-.08.61-.13.88-.21a4.13,4.13,0,0,0,.66-7.9l-.64-.35,0,0a4.62,4.62,0,0,0-5,3.11,4.77,4.77,0,0,0-3.06-4.56,4.82,4.82,0,0,0,4.47-3.38l0,.06c.15-2.06-.48-3.74-2.43-4.68-2.11-1-4.11-.17-5.58,2.1l-2.17-3.8a4.7,4.7,0,0,0,3.23-2.95c.27-2.5-.69-4.3-2.68-5s-3.81.06-5.52,2.68a4.69,4.69,0,0,0-2.93-4.41l1-.26a4.06,4.06,0,0,0,0-8A4.06,4.06,0,0,0,76.18,457a5.25,5.25,0,0,1-.67.84,3.9,3.9,0,0,0-2.44-4.48c-2.1-.86-4,0-5.52,2.4a10.61,10.61,0,0,0-.92-2.35,12.69,12.69,0,0,0-2-1.89l1-.23a4,4,0,0,0-.13-7.89A4,4,0,0,0,61,445.7a10,10,0,0,1-.57.87c.1-2.29-.8-4.05-2.68-4.51a6.13,6.13,0,0,0-3.28.23,9.48,9.48,0,0,0-2.33,1.5,3.93,3.93,0,0,0-3-3.36c-2.16-.67-3.68.35-5,2.07-.54-2.14-1.71-3.56-3.85-3.76a4.08,4.08,0,0,0-4.25,2.49c-.72-1.21-1.52-2.55-2.31-3.85,2.33-.86,3.48-2.27,3.34-4.29a4,4,0,0,0-3-3.66,3.77,3.77,0,0,0-4.45,1.85,5.35,5.35,0,0,0-.34,3.27,7.11,7.11,0,0,0,1.61,2.35l-3.29,2.6-2.29-3.63c2.35-.78,3.52-2.23,3.39-4.29a4,4,0,0,0-7.63-1.5c-.93,1.92-.32,3.74,1.57,5.29L19,438.22a4.07,4.07,0,0,0-3.67-3.64c-2.19-.29-3.65.91-4.65,3.06-.18-2.46-1.24-4.07-3.49-4.49s-3.82.82-4.84,3c-.09-.5-.13-.79-.19-1.08a4.31,4.31,0,0,0-2.19-3v7.34a4.08,4.08,0,0,0,2-2.22l2,3.72-3,2.31-1-1.33v4.69L.66,446l2,3.06L0,450.92V456l1,1.46L0,458v33.51l1.51-1.09c.36.56.7,1.07,1.07,1.63L1,493.17Zm9.21,2.46-.87-1.1,1.29-1,.81,1.23Zm1.56-7.94-1.29-1.64,1.61-1.28,1.25,1.9Zm1.25-8-1.49-2,2.1-1.56L14.09,477Zm1.45-8.09L11.76,468l2.4-1.74,1.7,2.45Zm4,25.54-.88-1.23,1.4-1.14,1,1.34Zm1.39-8-1.23-1.49,1.83-1.36,1,1.63Zm1.51-7.93-1.45-2,2-1.55,1.43,2.15Zm-.21-10.38,2.35-1.75,1.66,2.44-2.38,1.58Zm4.28,36-1-1.24,1.28-.84.85,1.21Zm1.39-8.15-1.09-1.44,1.53-1.12,1.1,1.53Zm1.44-8.09c-.36-.53-.69-1-1.05-1.54l1.58-1.25,1.1,1.67Zm1.45-7.84-1.44-2,2.07-1.53L30.82,480Zm-.18-10.41,2.31-1.73,1.7,2.45-2.38,1.57ZM32.78,507l-.93-1.28c.43-.33.83-.65,1.31-1l.91,1.3Zm1.46-8.21-1.13-1.49,1.55-1.19,1.14,1.68Zm1.39-8.09-1.07-1.6,1.73-1.4,1.24,1.72Zm1.41-8-1.44-1.87c.68-.51,1.38-1,2.14-1.6l1.32,2Zm-.15-10.28,2.37-1.77L41,473.17l-2.43,1.62C38.05,474.07,37.49,473.28,36.89,472.45Zm4.24,36.14-1-1.4,1.4-1.05,1,1.46Zm1.44-8.15c-.39-.53-.77-1-1.19-1.61l1.67-1.27,1.19,1.77ZM44,492.28l-1.38-1.88L44.57,489,46,491Zm1.41-8-1.32-2,2-1.54,1.4,2.09Zm-.26-10.32,2.46-1.78,1.78,2.53-2.52,1.7C46.34,475.59,45.76,474.75,45.17,473.91Zm4.33,36.31-1.17-1.55,1.6-1.18c.36.55.72,1.07,1.11,1.65Zm1.41-8.16c-.43-.59-.83-1.14-1.28-1.74L51.44,499l1.29,1.88Zm1.44-8.17c-.46-.66-.93-1.31-1.42-2l2-1.53,1.48,2.15Zm1.44-8.09-1.4-2.11,2-1.5L56,484.26Zm1.28-8.28-1.66-2.12,2.43-1.67,1.5,2.23ZM54.56,467l2.71-2.08,2,3.06-2.66,1.6C55.9,468.64,55.18,467.73,54.56,467Zm4.71,36.79-1.42-2,1.76-1.23,1.46,1.91Zm1.34-8.43c-.48-.62-1-1.24-1.5-2l2-1.38L62.71,494Zm1.45-8.14-1.75-2.29,2.25-1.7,1.81,2.58Zm1.21-7.89-1.63-2.5,2.49-1.95,1.62,2.67Zm-.61-10.79,3-2.25,2.07,3.17-3,1.94Zm4.81,36.68-1.53-2,2-1.49,1.65,2.24Zm1.25-8-1.62-2.37,2.31-1.75,1.75,2.49ZM70.15,489c-.55-.8-1.16-1.68-1.78-2.56L71,484.54l1.9,2.69Zm5.44,18.06L74,504.69,76.27,503c.55.77,1.15,1.59,1.76,2.45ZM77,498.84c-.55-.78-1.16-1.66-1.76-2.53l2.56-1.87,1.86,2.66Zm1.48-8.16-1.93-2.77,2.78-2.08,2,2.95Zm-.7-11.14,3.07-2.31c.67,1,1.46,2.17,2.2,3.29l-3.15,2C79.26,481.53,78.47,480.44,77.81,479.54Zm6.08,29.21-1.77-2.57,2.58-1.91L86.6,507Zm1.48-8.22-1.91-2.76,2.76-2.07,2,2.95Zm6.84,9.89-1.92-2.79,2.81-2.14c.64.95,1.36,2,2,3Zm1.45-8.22-2.09-3L94.62,497c.65,1,1.46,2.16,2.2,3.23C95.86,500.82,94.73,501.54,93.66,502.2Zm9.52-4.08a4.24,4.24,0,0,0,2.6,3.49l-3.84,2.3-2.22-3.2Zm-7.08-9.65,2.47,3.44L95.1,494c-.71-1-1.56-2.21-2.22-3.16Zm-6.66-10a4.27,4.27,0,0,0,2.49,3.46l-3.67,2.24L86,481Zm-1.69,8.68,2.18,3.23-3.11,2-2.08-2.92Zm-5.34-18.25,2,3.38-3.08,2.22-1.89-3.08Zm-6.9-11a10,10,0,0,0,.81,2.67,14.53,14.53,0,0,0,2.2,2.29,4.34,4.34,0,0,0-3.88,2.31L72,461.37C73.6,461,75.3,460.21,75.51,457.84Zm-1.42,9.71,1.83,3.19-2.9,2.1L70.88,470Zm-1.53,8.55,2,2.83-3,1.94-1.71-2.6Zm-5.38-18.42,2.35,3.45-3.39,2.14-2.26-3.19Zm-6.8-11c.41,2,.87,4,3.29,4.65a4.75,4.75,0,0,0-4.27,2.47L56.73,450A4.23,4.23,0,0,0,60.38,446.71Zm-1.57,9.51,2.2,3.44-3.18,1.95-2.2-3ZM52.17,446a4.22,4.22,0,0,0,2.58,3.71l-3.62,2c-.74-.91-1.64-2-2.4-2.94Zm-1.65,9.16c.64.9,1.4,1.94,2.1,2.92l-2.93,1.76c-.68-.89-1.44-1.86-2.13-2.75ZM49,463.75l2,2.68-2.58,1.81c-.65-.93-1.33-1.88-2-2.75Zm-5.3-18.56,2.4,3.13-3.19,2.18-2.38-3.31Zm-1.29,8.18c.62,1,1.35,2.13,2,3.2l-3,2-2.12-2.89ZM40.82,462l1.87,2.82L40,466.65,38.1,464Zm-5.29-18.75c.7,1.07,1.58,2.41,2.31,3.5L34.5,449l-2.27-3.18ZM34,451.93c.59.93,1.29,2.06,2,3.17L33.09,457,31,454.15Zm-1.57,8.67,1.87,2.74-2.69,1.79-1.88-2.59Zm-5.27-18.86,2.24,3.58-3.28,2.1-2.27-3.13Zm-1.51,8.72c.59.92,1.3,2.05,2,3.11l-2.9,1.93c-.72-.94-1.5-2-2.15-2.84Zm-1.6,8.67,1.87,2.73-2.67,1.77L21.41,461Zm-5.22-18.69,2.25,3.34L17.73,446c-.55-.87-1.26-2-1.86-3ZM17.28,449c.62,1,1.33,2.08,2,3.13L16.36,454l-2.14-2.86Zm-1.57,8.66,1.88,2.75-2.68,1.79-1.9-2.6ZM10.5,438.93c.52,1,1.21,2.26,1.87,3.47l-3,2.22-1.93-3.11Zm-1.56,8.49c.6.95,1.31,2.08,2,3.18L8,452.6l-2.17-2.94Zm-1.56,8.67c.59.89,1.24,1.84,1.88,2.8l-2.72,1.8-2-2.63Zm-1.55,8.57,1.69,2.53-2.43,1.64-1.72-2.38Zm-1.56,8.58,1.5,2.26-1.91,1.23-1.56-2ZM2.48,485.1c-.48-.67-.89-1.22-1.34-1.84l1.66-1.2,1.34,1.81Z"/><path class="cls-15" d="M97.77,479a13.78,13.78,0,0,1,1.67-2.52,3.83,3.83,0,0,1,4.54-.43,4,4,0,0,1,2,4.13,3.92,3.92,0,0,1-3.14,3.33c-.48.1-1,.15-1.46.22l0,0a4.79,4.79,0,0,1-3.61-4.83Z"/><path class="cls-15" d="M90.82,469.71c.64-2.41,2-4,4.65-4.16l0,0c2.76,1.07,3.87,2.41,3.71,4.48a4,4,0,0,1-7.93.72c-.1-.37-.25-.71-.38-1.06Z"/><path class="cls-15" d="M113.05,489.74c-1.16,3-2.75,4.12-5.11,3.6a4,4,0,1,1,4.78-5c.13.47.2,1,.3,1.46Z"/><path class="cls-15" d="M45.41,434.68a4,4,0,1,1-3.92-4.16A4,4,0,0,1,45.41,434.68Z"/><path class="cls-15" d="M45.48,435.84A4,4,0,1,1,49.57,440,4,4,0,0,1,45.48,435.84Z"/><path class="cls-15" d="M8,432.83a4,4,0,1,1,.09-8,4,4,0,0,1-.09,8Z"/><path class="cls-15" d="M115.73,495.28a4,4,0,1,1-4,3.93A3.94,3.94,0,0,1,115.73,495.28Z"/><path class="cls-15" d="M77,448.78a4,4,0,1,1-4-3.94A4,4,0,0,1,77,448.78Z"/><path class="cls-15" d="M92.26,460.21a4,4,0,1,1-3.9-4A4,4,0,0,1,92.26,460.21Z"/><path class="cls-15" d="M20.34,430.28a4,4,0,1,1-4-3.94A4,4,0,0,1,20.34,430.28Z"/><path class="cls-15" d="M61.78,437.57a4,4,0,1,1-3.89-4A3.91,3.91,0,0,1,61.78,437.57Z"/><path class="cls-15" d="M81.43,454.27a3.94,3.94,0,1,1,3.9-4A3.87,3.87,0,0,1,81.43,454.27Z"/><path class="cls-15" d="M0,423.45v7.82a3.88,3.88,0,0,0,3.58-4A3.86,3.86,0,0,0,0,423.45Z"/><path class="cls-15" d="M95.47,465.55c-1.59-.8-2.77-1.89-2.78-3.85a3.92,3.92,0,1,1,4.22,3.87,14.64,14.64,0,0,1-1.48-.05Z"/><path class="cls-15" d="M103.49,475.14a3.92,3.92,0,1,1,3.91-4A3.85,3.85,0,0,1,103.49,475.14Z"/><path class="cls-15" d="M113,489.78c.8-1.6,1.9-2.78,3.85-2.78a3.91,3.91,0,1,1-3.87,4.21,14.44,14.44,0,0,1,0-1.47Z"/><path class="cls-15" d="M70.09,439a3.92,3.92,0,1,1-3.82-3.94A3.87,3.87,0,0,1,70.09,439Z"/><path class="cls-15" d="M110.4,477.14a3.93,3.93,0,1,1-4,3.9A3.87,3.87,0,0,1,110.4,477.14Z"/><path class="cls-15" d="M74.46,444.37a3.89,3.89,0,1,1,4-3.78A3.87,3.87,0,0,1,74.46,444.37Z"/><path class="cls-15" d="M26.17,427.36a3.89,3.89,0,1,1,3.9-3.83A3.86,3.86,0,0,1,26.17,427.36Z"/><path class="cls-15" d="M21.71,421.93a3.88,3.88,0,1,1-3.93-3.82A3.86,3.86,0,0,1,21.71,421.93Z"/><path class="cls-15" d="M51,424.08a3.88,3.88,0,1,1-3.89,3.86A3.88,3.88,0,0,1,51,424.08Z"/><path class="cls-15" d="M42.4,430.36a3.9,3.9,0,1,1,4.09-4A3.91,3.91,0,0,1,42.4,430.36Z"/><path class="cls-15" d="M123.84,504.65a3.89,3.89,0,1,1,3.81-3.93A3.88,3.88,0,0,1,123.84,504.65Z"/><path class="cls-15" d="M34.52,428.85A3.89,3.89,0,1,1,38.43,425,3.86,3.86,0,0,1,34.52,428.85Z"/><path class="cls-15" d="M89.76,455.71a3.89,3.89,0,1,1,3.87-3.86A3.86,3.86,0,0,1,89.76,455.71Z"/><path class="cls-15" d="M122.25,482.59a3.86,3.86,0,1,1-3.87-3.89A3.89,3.89,0,0,1,122.25,482.59Z"/><path class="cls-15" d="M108.52,463.37a3.86,3.86,0,1,1-3.68-4.07A3.91,3.91,0,0,1,108.52,463.37Z"/><path class="cls-15" d="M9.6,416.62a3.87,3.87,0,1,1-4,3.79A3.9,3.9,0,0,1,9.6,416.62Z"/><path class="cls-15" d="M115.4,472.72a3.87,3.87,0,1,1-3.89-3.88A3.9,3.9,0,0,1,115.4,472.72Z"/><path class="cls-15" d="M101.94,453.39a3.84,3.84,0,1,1-3.73-3.91A3.92,3.92,0,0,1,101.94,453.39Z"/><path class="cls-15" d="M1.23,415.15a3.6,3.6,0,0,0-1.23.19v7.32a3.84,3.84,0,0,0,1,.19,3.85,3.85,0,0,0,.21-7.7Z"/><path class="cls-15" d="M134.19,511.74a3.84,3.84,0,0,0,.29-1.43,3.85,3.85,0,1,0-7.7,0,3.65,3.65,0,0,0,.29,1.43Z"/><path class="cls-15" d="M129.09,492.38a3.84,3.84,0,1,1-3.82-3.81A3.91,3.91,0,0,1,129.09,492.38Z"/><path class="cls-15" d="M67.66,434.46a3.83,3.83,0,1,1,3.83-3.78A3.91,3.91,0,0,1,67.66,434.46Z"/><path class="cls-15" d="M86.73,442.13a3.85,3.85,0,1,1-3.62-4A3.9,3.9,0,0,1,86.73,442.13Z"/><path class="cls-15" d="M59.1,433a3.85,3.85,0,1,1,4-3.56A3.9,3.9,0,0,1,59.1,433Z"/><path class="cls-15" d="M132.08,506a3.79,3.79,0,1,1,3.82-3.78A3.85,3.85,0,0,1,132.08,506Z"/><path class="cls-15" d="M95,443.42a3.78,3.78,0,1,1-3.86-3.73A3.85,3.85,0,0,1,95,443.42Z"/><path class="cls-15" d="M31.43,415.05a3.75,3.75,0,1,1-3.74-3.68A3.79,3.79,0,0,1,31.43,415.05Z"/><path class="cls-15" d="M123.62,474.42a3.74,3.74,0,1,1-3.44-3.94A3.75,3.75,0,0,1,123.62,474.42Z"/><path class="cls-15" d="M76.1,435.88a3.75,3.75,0,1,1,3.67-3.75A3.79,3.79,0,0,1,76.1,435.88Z"/><path class="cls-15" d="M116.76,464.57a3.74,3.74,0,1,1-3.45-3.94A3.75,3.75,0,0,1,116.76,464.57Z"/><path class="cls-15" d="M23.05,413.65a3.73,3.73,0,1,1-3.67-3.75A3.71,3.71,0,0,1,23.05,413.65Z"/><path class="cls-15" d="M39.47,416.83A3.74,3.74,0,1,1,36,412.89,3.75,3.75,0,0,1,39.47,416.83Z"/><path class="cls-15" d="M106.14,458.53a3.73,3.73,0,1,1,3.74-3.67A3.72,3.72,0,0,1,106.14,458.53Z"/><path class="cls-15" d="M43.88,421.84a3.74,3.74,0,1,1,3.94-3.45A3.75,3.75,0,0,1,43.88,421.84Z"/><path class="cls-15" d="M103,444.91a3.66,3.66,0,1,1-3.74-3.6A3.58,3.58,0,0,1,103,444.91Z"/><path class="cls-15" d="M142.64,511.74a3.67,3.67,0,0,0-7.33,0h7.33Z"/><path class="cls-15" d="M133.49,497.55a3.65,3.65,0,1,1,3.78-3.57A3.59,3.59,0,0,1,133.49,497.55Z"/><path class="cls-15" d="M130.45,484a3.7,3.7,0,1,1-3.72-3.64A3.67,3.67,0,0,1,130.45,484Z"/><path class="cls-15" d="M14.65,412.21a3.62,3.62,0,0,1-3.75,3.61,3.69,3.69,0,1,1,3.75-3.61Z"/><path class="cls-15" d="M52.49,423.3a3.7,3.7,0,1,1,3.66-3.71A3.67,3.67,0,0,1,52.49,423.3Z"/><path class="cls-15" d="M57.15,421a3.66,3.66,0,1,1,3.63,3.71A3.59,3.59,0,0,1,57.15,421Z"/><path class="cls-15" d="M88,433.57a3.66,3.66,0,1,1-3.74-3.6A3.59,3.59,0,0,1,88,433.57Z"/><path class="cls-15" d="M121.34,462.25a3.6,3.6,0,1,1-3.57,3.59A3.55,3.55,0,0,1,121.34,462.25Z"/><path class="cls-15" d="M118.12,456.3a3.61,3.61,0,1,1-3.56-3.6A3.57,3.57,0,0,1,118.12,456.3Z"/><path class="cls-15" d="M92.69,438.71a3.6,3.6,0,1,1,3.64-3.52A3.56,3.56,0,0,1,92.69,438.71Z"/><path class="cls-15" d="M144.07,503.72a3.6,3.6,0,1,1-3.58-3.57A3.57,3.57,0,0,1,144.07,503.72Z"/><path class="cls-15" d="M2.53,407A3.61,3.61,0,0,0,0,408.07v5.15a3.64,3.64,0,0,0,2.63,1.07,3.65,3.65,0,1,0-.1-7.29Z"/><path class="cls-15" d="M69.16,418.67a3.61,3.61,0,1,1-3.61,3.53A3.56,3.56,0,0,1,69.16,418.67Z"/><path class="cls-15" d="M128.18,472.1a3.6,3.6,0,1,1-3.54,3.62A3.57,3.57,0,0,1,128.18,472.1Z"/><path class="cls-15" d="M135.15,489.12a3.58,3.58,0,1,1,3.53-3.62A3.58,3.58,0,0,1,135.15,489.12Z"/><path class="cls-15" d="M77.52,420.19a3.59,3.59,0,1,1-3.59,3.57A3.58,3.58,0,0,1,77.52,420.19Z"/><path class="cls-15" d="M107.68,442.87a3.58,3.58,0,1,1-3.61,3.55A3.58,3.58,0,0,1,107.68,442.87Z"/><path class="cls-15" d="M17.25,405.21a3.57,3.57,0,1,1,3.54,3.63A3.61,3.61,0,0,1,17.25,405.21Z"/><path class="cls-15" d="M12.49,407.33a3.55,3.55,0,1,1,3.52-3.5A3.61,3.61,0,0,1,12.49,407.33Z"/><path class="cls-15" d="M54,414.79a3.55,3.55,0,1,1,3.54-3.49A3.6,3.6,0,0,1,54,414.79Z"/><path class="cls-15" d="M45.64,406.18A3.57,3.57,0,1,1,42,409.73,3.6,3.6,0,0,1,45.64,406.18Z"/><path class="cls-15" d="M37.21,404.68a3.58,3.58,0,1,1-3.56,3.63A3.61,3.61,0,0,1,37.21,404.68Z"/><path class="cls-15" d="M32.75,406.81a3.58,3.58,0,1,1-3.57-3.62A3.6,3.6,0,0,1,32.75,406.81Z"/><path class="cls-15" d="M104.33,436.58a3.54,3.54,0,1,1-3.53-3.52A3.62,3.62,0,0,1,104.33,436.58Z"/><path class="cls-15" d="M62.33,409.2a3.53,3.53,0,1,1-3.57,3.5A3.62,3.62,0,0,1,62.33,409.2Z"/><path class="cls-15" d="M142,498.93a3.54,3.54,0,1,1,3.49-3.56A3.61,3.61,0,0,1,142,498.93Z"/><path class="cls-15" d="M150.48,511.74a3.48,3.48,0,0,0-6.29,0Z"/><path class="cls-15" d="M85.87,428.81a3.54,3.54,0,1,1,3.54-3.51A3.61,3.61,0,0,1,85.87,428.81Z"/><path class="cls-15" d="M4.15,405.81a3.52,3.52,0,0,1-.08-7,3.52,3.52,0,1,1,.08,7Z"/><path class="cls-15" d="M70.66,410.75a3.48,3.48,0,1,1-3.48,3.39A3.51,3.51,0,0,1,70.66,410.75Z"/><path class="cls-15" d="M140.08,477.18a3.49,3.49,0,1,1-3.53-3.48A3.55,3.55,0,0,1,140.08,477.18Z"/><path class="cls-15" d="M126.37,457.54a3.5,3.5,0,1,1-3.49-3.55A3.59,3.59,0,0,1,126.37,457.54Z"/><path class="cls-15" d="M129.78,470.84a3.5,3.5,0,1,1,3.46-3.58A3.56,3.56,0,0,1,129.78,470.84Z"/><path class="cls-15" d="M116,451.43a3.49,3.49,0,1,1,3.52-3.49A3.55,3.55,0,0,1,116,451.43Z"/><path class="cls-15" d="M148.89,501.49a3.45,3.45,0,1,1-3.51,3.32A3.47,3.47,0,0,1,148.89,501.49Z"/><path class="cls-15" d="M93.9,430.21a3.45,3.45,0,1,1,3.47-3.36A3.48,3.48,0,0,1,93.9,430.21Z"/><path class="cls-15" d="M146.86,487.06a3.4,3.4,0,1,1-3.38-3.43A3.35,3.35,0,0,1,146.86,487.06Z"/><path class="cls-15" d="M82.39,415.75A3.39,3.39,0,1,1,79,412.34,3.33,3.33,0,0,1,82.39,415.75Z"/><path class="cls-15" d="M112.54,438.13a3.4,3.4,0,1,1-3.37-3.43A3.36,3.36,0,0,1,112.54,438.13Z"/><path class="cls-15" d="M63.76,407.67a3.29,3.29,0,1,1,3.32-3.26A3.27,3.27,0,0,1,63.76,407.67Z"/><path class="cls-15" d="M105.6,428.19a3.32,3.32,0,1,1-3.34-3.26A3.29,3.29,0,0,1,105.6,428.19Z"/><path class="cls-15" d="M17.26,395.38a3.31,3.31,0,1,1-3.32-3.26A3.27,3.27,0,0,1,17.26,395.38Z"/><path class="cls-15" d="M58.75,402.83a3.32,3.32,0,1,1-3.34-3.26A3.27,3.27,0,0,1,58.75,402.83Z"/><path class="cls-15" d="M90.67,417a3.31,3.31,0,1,1-3.23-3.35A3.27,3.27,0,0,1,90.67,417Z"/><path class="cls-15" d="M33.7,398.43a3.34,3.34,0,1,1-3.24-3.36A3.27,3.27,0,0,1,33.7,398.43Z"/><path class="cls-15" d="M38.78,396.56a3.34,3.34,0,1,1-3.4,3.21A3.29,3.29,0,0,1,38.78,396.56Z"/><path class="cls-15" d="M120.79,439.64a3.29,3.29,0,1,1-3.24-3.34A3.28,3.28,0,0,1,120.79,439.64Z"/><path class="cls-15" d="M131.27,455.67a3.32,3.32,0,1,1-3.36,3.23A3.26,3.26,0,0,1,131.27,455.67Z"/><path class="cls-15" d="M124.31,452.75a3.32,3.32,0,1,1,3.37-3.23A3.26,3.26,0,0,1,124.31,452.75Z"/><path class="cls-15" d="M22.37,393.59a3.33,3.33,0,1,1-3.39,3.2A3.28,3.28,0,0,1,22.37,393.59Z"/><path class="cls-15" d="M153.65,496.83a3.33,3.33,0,1,1-3.3-3.28A3.27,3.27,0,0,1,153.65,496.83Z"/><path class="cls-15" d="M144.91,475.39a3.29,3.29,0,1,1-3.25,3.33A3.27,3.27,0,0,1,144.91,475.39Z"/><path class="cls-15" d="M141.4,468.84a3.32,3.32,0,1,1-3.27-3.32A3.26,3.26,0,0,1,141.4,468.84Z"/><path class="cls-15" d="M47,404.73a3.34,3.34,0,1,1,3.46-3.14A3.28,3.28,0,0,1,47,404.73Z"/><path class="cls-15" d="M8.88,393.94a3.28,3.28,0,1,1-3.32-3.29A3.28,3.28,0,0,1,8.88,393.94Z"/><path class="cls-15" d="M75.41,405.91a3.27,3.27,0,1,1-3.15-3.31A3.3,3.3,0,0,1,75.41,405.91Z"/><path class="cls-15" d="M151.82,485.28a3.25,3.25,0,1,1-3.26,3.21A3.29,3.29,0,0,1,151.82,485.28Z"/><path class="cls-15" d="M0,391v3.39a3.26,3.26,0,0,0,.5-1.53A3.07,3.07,0,0,0,0,391Z"/><path class="cls-15" d="M113.88,429.71a3.25,3.25,0,1,1-3.24-3.22A3.3,3.3,0,0,1,113.88,429.71Z"/><path class="cls-15" d="M157.17,509.69a3.26,3.26,0,1,1,3.27-3.21A3.31,3.31,0,0,1,157.17,509.69Z"/><path class="cls-15" d="M95.49,421.66a3.26,3.26,0,1,1,3.19-3.29A3.31,3.31,0,0,1,95.49,421.66Z"/><path class="cls-15" d="M80.5,404.15a3.21,3.21,0,1,1-3.22,3.25A3.3,3.3,0,0,1,80.5,404.15Z"/><path class="cls-15" d="M129.5,450.86a3.22,3.22,0,1,1,3.18,3.28A3.29,3.29,0,0,1,129.5,450.86Z"/><path class="cls-15" d="M142.79,460.4a3.21,3.21,0,1,1-3.32-3.14A3.29,3.29,0,0,1,142.79,460.4Z"/><path class="cls-15" d="M149.62,470.28a3.18,3.18,0,1,1-3.14-3.13A3.24,3.24,0,0,1,149.62,470.28Z"/><path class="cls-15" d="M125.91,444.26A3.18,3.18,0,1,1,129,441.1,3.24,3.24,0,0,1,125.91,444.26Z"/><path class="cls-15" d="M31.9,393.21A3.16,3.16,0,1,1,35,390.05,3.2,3.2,0,0,1,31.9,393.21Z"/><path class="cls-15" d="M37.06,391.55a3.16,3.16,0,1,1,3.12,3.15A3.2,3.2,0,0,1,37.06,391.55Z"/><path class="cls-15" d="M51.7,393.08a3.13,3.13,0,1,1-3.09-3.17A3.14,3.14,0,0,1,51.7,393.08Z"/><path class="cls-15" d="M106.92,420a3.15,3.15,0,1,1-3.06-3.21A3.18,3.18,0,0,1,106.92,420Z"/><path class="cls-15" d="M161.83,498.1a3.16,3.16,0,1,1-3.1-3.18A3.19,3.19,0,0,1,161.83,498.1Z"/><path class="cls-15" d="M163.18,490.07a3,3,0,1,1-3-3.06A3,3,0,0,1,163.18,490.07Z"/><path class="cls-15" d="M68.33,396a3.05,3.05,0,1,1-3-3A3,3,0,0,1,68.33,396Z"/><path class="cls-15" d="M56.89,391.45a3.08,3.08,0,1,1-3,3.15A3,3,0,0,1,56.89,391.45Z"/><path class="cls-15" d="M10.13,385.88a3,3,0,0,1-3,3,3,3,0,1,1,0-6.07A3,3,0,0,1,10.13,385.88Z"/><path class="cls-15" d="M122.07,431.23a3.08,3.08,0,1,1-3.12-3.08A3,3,0,0,1,122.07,431.23Z"/><path class="cls-15" d="M15.4,384a3.07,3.07,0,1,1-3,3A3,3,0,0,1,15.4,384Z"/><path class="cls-15" d="M168.54,508a3,3,0,1,1-2.88-3.12A3,3,0,0,1,168.54,508Z"/><path class="cls-15" d="M91.66,408.83a3.11,3.11,0,1,1-3.13-3.08A3.09,3.09,0,0,1,91.66,408.83Z"/><path class="cls-15" d="M115.13,421.37a3,3,0,1,1-3-3A3,3,0,0,1,115.13,421.37Z"/><path class="cls-15" d="M156.39,480.14a3.09,3.09,0,1,1-3.15-3.05A3,3,0,0,1,156.39,480.14Z"/><path class="cls-15" d="M96.86,407.33a3,3,0,1,1-3,3.06A3,3,0,0,1,96.86,407.33Z"/><path class="cls-15" d="M23.78,391.67a3.11,3.11,0,1,1,3.12-3.08A3.08,3.08,0,0,1,23.78,391.67Z"/><path class="cls-15" d="M73.62,394.51a3,3,0,1,1-3,3A3,3,0,0,1,73.62,394.51Z"/><path class="cls-15" d="M157.77,471.8a3,3,0,1,1-3-2.95A3,3,0,0,1,157.77,471.8Z"/><path class="cls-15" d="M147.86,459a3,3,0,1,1-2.92,3.1A3,3,0,0,1,147.86,459Z"/><path class="cls-15" d="M0,381.67v5.43a3,3,0,0,0,1.73-2.71A3,3,0,0,0,0,381.67Z"/><path class="cls-15" d="M130.31,432.68a3,3,0,1,1-3-2.92A3,3,0,0,1,130.31,432.68Z"/><path class="cls-15" d="M141.06,449.13a3,3,0,1,1-3,3A3,3,0,0,1,141.06,449.13Z"/><path class="cls-15" d="M137.2,442.63a3,3,0,1,1-3-3.05A3,3,0,0,1,137.2,442.63Z"/><path class="cls-15" d="M82,396.05A3,3,0,1,1,79,399,3,3,0,0,1,82,396.05Z"/><path class="cls-15" d="M25.06,383.39a2.88,2.88,0,1,1,2.82-2.91A2.95,2.95,0,0,1,25.06,383.39Z"/><path class="cls-15" d="M167.1,496.63a2.94,2.94,0,1,1-3,2.9A3,3,0,0,1,167.1,496.63Z"/><path class="cls-15" d="M47.18,384.68A2.88,2.88,0,1,1,50,387.57,2.94,2.94,0,0,1,47.18,384.68Z"/><path class="cls-15" d="M161.62,478.76a2.91,2.91,0,1,1-2.86,2.87A3,3,0,0,1,161.62,478.76Z"/><path class="cls-15" d="M92.93,400.57a2.88,2.88,0,1,1-2.78-2.95A2.95,2.95,0,0,1,92.93,400.57Z"/><path class="cls-15" d="M108.2,411.57a2.94,2.94,0,1,1-2.94-3A3,3,0,0,1,108.2,411.57Z"/><path class="cls-15" d="M123.38,422.82A2.9,2.9,0,1,1,120.5,420,3,3,0,0,1,123.38,422.82Z"/><path class="cls-15" d="M33.38,384.6a2.9,2.9,0,1,1,2.87-2.86A3,3,0,0,1,33.38,384.6Z"/><path class="cls-15" d="M44.61,383.21a2.91,2.91,0,1,1-2.81-2.92A3,3,0,0,1,44.61,383.21Z"/><path class="cls-15" d="M16.9,381.85a2.84,2.84,0,1,1,2.87-2.8A2.82,2.82,0,0,1,16.9,381.85Z"/><path class="cls-15" d="M61.27,386.23a2.86,2.86,0,1,1-2.76-2.91A2.87,2.87,0,0,1,61.27,386.23Z"/><path class="cls-15" d="M138.46,434.22a2.76,2.76,0,1,1-2.68-2.76A2.7,2.7,0,0,1,138.46,434.22Z"/><path class="cls-15" d="M171,491.45a2.77,2.77,0,1,1-2.75-2.7A2.71,2.71,0,0,1,171,491.45Z"/><path class="cls-15" d="M152.21,453.59a2.78,2.78,0,1,1-2.74-2.76A2.73,2.73,0,0,1,152.21,453.59Z"/><path class="cls-15" d="M66.77,390.45a2.78,2.78,0,1,1,2.78-2.71A2.72,2.72,0,0,1,66.77,390.45Z"/><path class="cls-15" d="M142.54,446.87a2.81,2.81,0,1,1,2.82-2.82A2.77,2.77,0,0,1,142.54,446.87Z"/><path class="cls-15" d="M8.54,380.28a2.76,2.76,0,1,1,.09-5.52,2.76,2.76,0,1,1-.09,5.52Z"/><path class="cls-15" d="M172.1,511.74h3a2.75,2.75,0,1,0-3,0Z"/><path class="cls-15" d="M116.36,413.07a2.75,2.75,0,1,1-2.67-2.78A2.68,2.68,0,0,1,116.36,413.07Z"/><path class="cls-15" d="M98.46,399.25a2.74,2.74,0,1,1-2.8,2.65A2.67,2.67,0,0,1,98.46,399.25Z"/><path class="cls-15" d="M159.05,463.5a2.76,2.76,0,1,1-2.65-2.8A2.7,2.7,0,0,1,159.05,463.5Z"/><path class="cls-15" d="M75.1,391.88a2.72,2.72,0,1,1,2.74-2.69A2.68,2.68,0,0,1,75.1,391.88Z"/><path class="cls-15" d="M.17,373.32l-.17,0v5.37l.21,0A2.67,2.67,0,0,0,2.93,376,2.68,2.68,0,0,0,.17,373.32Z"/><path class="cls-15" d="M126.13,424.3a2.71,2.71,0,1,1,2.68,2.78A2.68,2.68,0,0,1,126.13,424.3Z"/><path class="cls-15" d="M106.69,406.14a2.66,2.66,0,1,1,2.72-2.59A2.71,2.71,0,0,1,106.69,406.14Z"/><path class="cls-15" d="M172.37,483.15a2.66,2.66,0,1,1-2.66-2.65A2.7,2.7,0,0,1,172.37,483.15Z"/><path class="cls-15" d="M175,498.39a2.67,2.67,0,1,1-2.61,2.69A2.72,2.72,0,0,1,175,498.39Z"/><path class="cls-15" d="M85.86,390.59a2.68,2.68,0,1,1-2.7-2.62A2.71,2.71,0,0,1,85.86,390.59Z"/><path class="cls-15" d="M162.91,476a2.71,2.71,0,1,1,2.65-2.79A2.66,2.66,0,0,1,162.91,476Z"/><path class="cls-15" d="M122,411.88a2.65,2.65,0,1,1-2.63,2.69A2.71,2.71,0,0,1,122,411.88Z"/><path class="cls-15" d="M153.55,445.52a2.63,2.63,0,1,1-2.7-2.59A2.71,2.71,0,0,1,153.55,445.52Z"/><path class="cls-15" d="M160.09,455.08a2.61,2.61,0,1,1-2.56-2.59A2.69,2.69,0,0,1,160.09,455.08Z"/><path class="cls-15" d="M91.61,389.56A2.59,2.59,0,1,1,89,392,2.66,2.66,0,0,1,91.61,389.56Z"/><path class="cls-15" d="M144,438.32a2.61,2.61,0,1,1,2.67-2.47A2.68,2.68,0,0,1,144,438.32Z"/><path class="cls-15" d="M43.2,372.52a2.62,2.62,0,1,1-2.61,2.53A2.7,2.7,0,0,1,43.2,372.52Z"/><path class="cls-15" d="M34.87,371a2.61,2.61,0,1,1-2.64,2.51A2.69,2.69,0,0,1,34.87,371Z"/><path class="cls-15" d="M26.48,374.74a2.59,2.59,0,1,1,2.6-2.54A2.66,2.66,0,0,1,26.48,374.74Z"/><path class="cls-15" d="M164.29,467.49a2.54,2.54,0,1,1,2.59-2.52A2.56,2.56,0,0,1,164.29,467.49Z"/><path class="cls-15" d="M137.23,428.4a2.54,2.54,0,1,1,2.5-2.61A2.54,2.54,0,0,1,137.23,428.4Z"/><path class="cls-15" d="M59.87,375.29a2.53,2.53,0,1,1-2.5,2.61A2.54,2.54,0,0,1,59.87,375.29Z"/><path class="cls-15" d="M51.59,373.77a2.56,2.56,0,1,1-2.6,2.52A2.6,2.6,0,0,1,51.59,373.77Z"/><path class="cls-15" d="M21,370.61a2.53,2.53,0,1,1-2.62-2.48A2.52,2.52,0,0,1,21,370.61Z"/><path class="cls-15" d="M12.52,369.18a2.39,2.39,0,0,1-2.45,2.43,2.44,2.44,0,0,1,0-4.88A2.38,2.38,0,0,1,12.52,369.18Z"/><path class="cls-15" d="M117.59,405a2.48,2.48,0,1,1-2.35-2.53A2.44,2.44,0,0,1,117.59,405Z"/><path class="cls-15" d="M176.64,495.18a2.48,2.48,0,1,1,2.42-2.47A2.44,2.44,0,0,1,176.64,495.18Z"/><path class="cls-15" d="M70.72,379.25a2.46,2.46,0,1,1-2.48-2.39A2.4,2.4,0,0,1,70.72,379.25Z"/><path class="cls-15" d="M184.25,511.74a2.64,2.64,0,0,0,.14-.81,2.44,2.44,0,0,0-4.88-.05,2.72,2.72,0,0,0,.14.86Z"/><path class="cls-15" d="M102.33,393.57a2.44,2.44,0,1,1-2.5-2.37A2.39,2.39,0,0,1,102.33,393.57Z"/><path class="cls-15" d="M161.34,446.78a2.37,2.37,0,1,1-2.33-2.4A2.41,2.41,0,0,1,161.34,446.78Z"/><path class="cls-15" d="M130.27,413.59a2.43,2.43,0,1,1-2.37,2.53A2.36,2.36,0,0,1,130.27,413.59Z"/><path class="cls-15" d="M171.18,472.38a2.42,2.42,0,1,1-2.4,2.48A2.35,2.35,0,0,1,171.18,472.38Z"/><path class="cls-15" d="M1.81,365.29A2.37,2.37,0,0,0,0,366v3.31a2.34,2.34,0,0,0,1.7.73,2.39,2.39,0,0,0,.11-4.77Z"/><path class="cls-15" d="M154.48,437.24a2.37,2.37,0,1,1-2.33-2.41A2.41,2.41,0,0,1,154.48,437.24Z"/><path class="cls-15" d="M78.73,380.86a2.41,2.41,0,1,1-2.39-2.47A2.38,2.38,0,0,1,78.73,380.86Z"/><path class="cls-15" d="M178.11,487a2.36,2.36,0,1,1,2.32-2.43A2.42,2.42,0,0,1,178.11,487Z"/><path class="cls-15" d="M145.22,425a2.34,2.34,0,1,1-2.31,2.29A2.41,2.41,0,0,1,145.22,425Z"/><path class="cls-15" d="M84.72,379.94a2.36,2.36,0,1,1-2.4,2.35A2.42,2.42,0,0,1,84.72,379.94Z"/><path class="cls-15" d="M110.59,395.09a2.34,2.34,0,1,1-2.31-2.3A2.42,2.42,0,0,1,110.59,395.09Z"/><path class="cls-15" d="M168.18,456.56a2.34,2.34,0,1,1-2.31-2.3A2.44,2.44,0,0,1,168.18,456.56Z"/><path class="cls-15" d="M125.8,406.14a2.34,2.34,0,1,1-2.29-2.31A2.42,2.42,0,0,1,125.8,406.14Z"/><path class="cls-15" d="M183.49,500.2a2.36,2.36,0,1,1-2.4,2.34A2.42,2.42,0,0,1,183.49,500.2Z"/><path class="cls-15" d="M174.94,466.56a2.24,2.24,0,0,1-2.39,2.11,2.23,2.23,0,0,1,.22-4.46A2.25,2.25,0,0,1,174.94,466.56Z"/><path class="cls-15" d="M140.92,417.54a2.24,2.24,0,1,1-2.24-2.27A2.24,2.24,0,0,1,140.92,417.54Z"/><path class="cls-15" d="M38.53,365.27a2.2,2.2,0,1,1-2.14-2.18A2.16,2.16,0,0,1,38.53,365.27Z"/><path class="cls-15" d="M46.89,366.85a2.2,2.2,0,1,1-2-2.27A2.17,2.17,0,0,1,46.89,366.85Z"/><path class="cls-15" d="M55.22,368.25a2.18,2.18,0,1,1-2.16-2.15A2.12,2.12,0,0,1,55.22,368.25Z"/><path class="cls-15" d="M27.92,361.62a2.18,2.18,0,1,1-2.11,2.2A2.11,2.11,0,0,1,27.92,361.62Z"/><path class="cls-15" d="M93,381.59a2.2,2.2,0,1,1-2.2,2.13A2.16,2.16,0,0,1,93,381.59Z"/><path class="cls-15" d="M116.54,394.49a2.13,2.13,0,1,1-2.07,2.23A2.08,2.08,0,0,1,116.54,394.49Z"/><path class="cls-15" d="M19.56,360.17a2.14,2.14,0,1,1-2.07,2.24A2.09,2.09,0,0,1,19.56,360.17Z"/><path class="cls-15" d="M59.27,369.64a2.13,2.13,0,1,1,2,2.26A2.09,2.09,0,0,1,59.27,369.64Z"/><path class="cls-15" d="M133.92,407.69a2.1,2.1,0,1,1-2-2.13A2.08,2.08,0,0,1,133.92,407.69Z"/><path class="cls-15" d="M181.68,476.27a2.12,2.12,0,1,1-2.07-2.1A2.08,2.08,0,0,1,181.68,476.27Z"/><path class="cls-15" d="M185,496.33a2.14,2.14,0,1,1,2.07-2.24A2.08,2.08,0,0,1,185,496.33Z"/><path class="cls-15" d="M103.48,385.29a2.1,2.1,0,1,1-2-2.1A2.1,2.1,0,0,1,103.48,385.29Z"/><path class="cls-15" d="M69.82,368.87a2.09,2.09,0,1,1-2.16,2A2.1,2.1,0,0,1,69.82,368.87Z"/><path class="cls-15" d="M192.28,511.74a2.08,2.08,0,0,0-3.95,0Z"/><path class="cls-15" d="M162.55,438.74a2.08,2.08,0,1,1-2-2.13A2.11,2.11,0,0,1,162.55,438.74Z"/><path class="cls-15" d="M13.66,360.86a2.09,2.09,0,1,1-4.18-.17,2.09,2.09,0,0,1,4.18.17Z"/><path class="cls-15" d="M148.75,419a2,2,0,1,1-2-2A2.07,2.07,0,0,1,148.75,419Z"/><path class="cls-15" d="M155.67,428.78a2.11,2.11,0,0,1-2,2.13,2.06,2.06,0,0,1-2.08-2.07,2,2,0,0,1,1.95-2A2.09,2.09,0,0,1,155.67,428.78Z"/><path class="cls-15" d="M167.3,450.31a2.13,2.13,0,0,1-2-2.14,2.08,2.08,0,0,1,2.18-2,2,2,0,0,1,1.94,2.05A2.06,2.06,0,0,1,167.3,450.31Z"/><path class="cls-15" d="M5.24,359.32a2.09,2.09,0,0,1-2,2,2,2,0,1,1,0-4.06A2.09,2.09,0,0,1,5.24,359.32Z"/><path class="cls-15" d="M79.86,372.39a2.11,2.11,0,0,1-2.06,2.11,2.14,2.14,0,0,1-2-2,2.05,2.05,0,0,1,4.1-.12Z"/><path class="cls-15" d="M176.2,458.13a2,2,0,1,1-2-2.05A2.06,2.06,0,0,1,176.2,458.13Z"/><path class="cls-15" d="M191.84,502.1a1.93,1.93,0,0,1,1.88,2.12,1.84,1.84,0,0,1-2,1.75,1.94,1.94,0,0,1,.15-3.87Z"/><path class="cls-15" d="M186.37,488.12a2,2,0,0,1-1.92-2.07,2,2,0,0,1,2.1-1.87,1.9,1.9,0,0,1,1.84,2A2,2,0,0,1,186.37,488.12Z"/><path class="cls-15" d="M124.89,396.13a2,2,0,0,1,2,1.95,2,2,0,0,1-2,2,1.93,1.93,0,0,1-2-1.86A2,2,0,0,1,124.89,396.13Z"/><path class="cls-15" d="M109.68,384.83a1.93,1.93,0,0,1,2,2,1.84,1.84,0,0,1-1.94,1.85,1.94,1.94,0,0,1,0-3.87Z"/><path class="cls-15" d="M88.07,373.92a1.9,1.9,0,1,1-3.79,0,1.74,1.74,0,0,1,1.89-1.84A1.79,1.79,0,0,1,88.07,373.92Z"/><path class="cls-15" d="M94.44,373.62c1.1.09,1.82.62,1.86,1.74a1.78,1.78,0,1,1-3.55.14C92.69,374.38,93.37,373.8,94.44,373.62Z"/><path class="cls-15" d="M179.2,468a1.82,1.82,0,0,1,2-1.86,1.71,1.71,0,0,1,1.67,2,1.67,1.67,0,0,1-1.91,1.64A1.71,1.71,0,0,1,179.2,468Z"/><path class="cls-15" d="M139.9,407.29c1.16.13,1.85.74,1.81,1.92a1.68,1.68,0,0,1-1.93,1.77,1.65,1.65,0,0,1-1.73-1.81C138,408,138.74,407.39,139.9,407.29Z"/><path class="cls-15" d="M189.87,478.17c-.66.44-1.29,1.17-2,1.26a1.65,1.65,0,1,1,.07-3.3c.71.13,1.3.88,1.95,1.35Z"/><path class="cls-15" d="M195.28,496a7.52,7.52,0,0,1-2,1.36c-.88.25-1.86-.82-1.76-1.76s.76-1.78,1.75-1.61c.71.13,1.31.86,2,1.33Z"/><path class="cls-15" d="M120.09,388.6a7.14,7.14,0,0,1-2,1.35c-.88.26-1.85-.81-1.76-1.75s.76-1.79,1.75-1.61c.72.12,1.32.86,2,1.33C120.08,388.14,120.09,388.37,120.09,388.6Z"/><path class="cls-15" d="M31.45,355.85a7.57,7.57,0,0,1-2,1.28c-.89.22-1.83-.9-1.7-1.82s.83-1.76,1.81-1.55c.71.16,1.29.92,1.92,1.41Z"/><path class="cls-15" d="M170.82,440.46a7.28,7.28,0,0,1-1.92,1.42c-.87.28-1.88-.77-1.81-1.71s.72-1.81,1.71-1.66c.71.1,1.34.83,2,1.28C170.81,440,170.82,440.24,170.82,440.46Z"/><path class="cls-15" d="M48,357.91c-.18,1.55-.74,2.26-1.86,2.26a1.61,1.61,0,0,1-1.72-1.69c0-1.11.68-1.91,1.75-1.75C46.91,356.83,47.52,357.57,48,357.91Z"/><path class="cls-15" d="M163.94,430.72a7.44,7.44,0,0,1-2,1.31c-.89.23-1.85-.88-1.72-1.8s.8-1.77,1.79-1.57c.71.15,1.29.9,1.93,1.38Z"/><path class="cls-15" d="M133,401.57c-.46-.64-1.21-1.24-1.34-1.94a1.65,1.65,0,1,1,3.3-.07c-.09.71-.82,1.34-1.26,2Z"/><path class="cls-15" d="M56.52,360.27a7.48,7.48,0,0,1-2,1.34c-.88.24-1.85-.85-1.75-1.78s.78-1.78,1.77-1.59c.71.13,1.31.88,2,1.35C56.53,359.82,56.53,360,56.52,360.27Z"/><path class="cls-15" d="M37.33,355.09c1.54.19,2.25.76,2.24,1.88a1.61,1.61,0,0,1-1.7,1.7,1.54,1.54,0,0,1-1.74-1.76C36.24,356.2,37,355.58,37.33,355.09Z"/><path class="cls-15" d="M157,420.77c-.64.47-1.23,1.22-1.92,1.34a1.37,1.37,0,0,1-1.63-1.61,2.31,2.31,0,0,1,1.51-1.58c.63-.06,1.33.72,2,1.14C157,420.3,157,420.53,157,420.77Z"/><path class="cls-15" d="M62.54,363.34c-.44-.66-1.17-1.27-1.26-2A1.37,1.37,0,0,1,63,359.8a2.31,2.31,0,0,1,1.52,1.58c0,.63-.78,1.3-1.22,1.95Z"/><path class="cls-15" d="M23,354.35c-.66.43-1.3,1.14-2,1.21a1.37,1.37,0,0,1-1.52-1.71,2.35,2.35,0,0,1,1.61-1.48c.64,0,1.29.81,1.93,1.27C23,353.88,23,354.11,23,354.35Z"/><path class="cls-15" d="M177.56,450.13c-.66.42-1.35,1.2-2,1.14a2.26,2.26,0,0,1-1.47-1.58,1.34,1.34,0,0,1,1.66-1.54c.65.13,1.2.85,1.79,1.3Z"/><path class="cls-15" d="M103.31,375.11c.39.63,1,1.23,1.1,1.89.12,1-.61,1.54-1.6,1.5s-1.67-.69-1.47-1.63c.14-.66.83-1.2,1.27-1.79Z"/><path class="cls-15" d="M184.31,460c-.58.37-1.14,1-1.76,1.05-1,.15-1.56-.54-1.52-1.54s.69-1.63,1.65-1.42c.61.14,1.11.79,1.66,1.22Z"/><path class="cls-15" d="M148.59,408.87c.39.57,1,1.1,1.12,1.72.18,1-.47,1.58-1.48,1.58s-1.66-.63-1.48-1.6c.12-.62.74-1.14,1.14-1.71Z"/><path class="cls-15" d="M12.67,354.23c-.38-.58-1-1.12-1.09-1.75-.16-1,.51-1.56,1.52-1.54s1.64.66,1.44,1.62c-.13.62-.77,1.13-1.18,1.68Z"/><path class="cls-15" d="M72.78,363.24c-.61.42-1.17,1.08-1.83,1.19-1,.17-1.57-.52-1.58-1.52s.6-1.7,1.56-1.54c.66.11,1.23.76,1.85,1.17Z"/><path class="cls-15" d="M81.05,364.67c-.57.41-1.16,1.17-1.68,1.12s-1-.86-1.56-1.34c.48-.52.9-1.36,1.45-1.46s1.17.63,1.76,1Z"/><path class="cls-15" d="M196.48,487.72c-.6.37-1.21,1-1.77,1s-1.37-1-1.3-1.34A2.1,2.1,0,0,1,194.8,486c.52-.06,1.13.7,1.7,1.09Z"/><path class="cls-15" d="M200.21,507.6c-.7-1-1.44-1.52-1.39-2s.83-1,1.3-1.48c.49.47,1.3.89,1.37,1.41S200.86,506.61,200.21,507.6Z"/><path class="cls-15" d="M6.77,351c-.95.67-1.58,1.44-2,1.35s-1-.94-1.5-1.45c.5-.46,1-1.24,1.51-1.28S5.84,350.3,6.77,351Z"/><path class="cls-15" d="M128.51,389.86c-1,.63-1.63,1.37-2.07,1.26s-1-1-1.44-1.51c.52-.44,1-1.2,1.56-1.22S127.61,389.14,128.51,389.86Z"/><path class="cls-15" d="M112.82,378.76c-.55.35-1.17,1-1.64,1a2,2,0,0,1-1.25-1.42c0-.37.83-1.18,1.3-1.19s1.07.66,1.61,1Z"/><path class="cls-15" d="M87.71,367.48c-.65-.84-1.34-1.35-1.31-1.81s.74-.95,1.15-1.43c.48.45,1.24.83,1.37,1.37S88.31,366.6,87.71,367.48Z"/><path class="cls-15" d="M189.65,467.82c.39.53,1.11,1.09,1.06,1.58a2,2,0,0,1-1.33,1.33c-.37.07-1.24-.75-1.27-1.21s.59-1.12.93-1.68Z"/><path class="cls-15" d="M141.08,402.4c-.37-.54-1.08-1.13-1-1.61a2,2,0,0,1,1.37-1.29c.37-.06,1.21.78,1.24,1.25s-.63,1.09-1,1.64Z"/><path class="cls-15" d="M96,365.42c.56.76,1.15,1.22,1.12,1.62s-.67.79-1,1.19c-.4-.37-1-.71-1.11-1.13S95.45,366.22,96,365.42Z"/><path class="cls-15" d="M179,441.39c-.89.57-1.41,1.17-1.82,1.11a1.75,1.75,0,0,1-1.09-1.21c-.05-.3.69-1,1.09-1S178.09,440.81,179,441.39Z"/><path class="cls-15" d="M134.46,392.91c-.52-.8-1.08-1.29-1-1.69s.72-.75,1.11-1.12c.37.4,1,.77,1,1.19S135,392.14,134.46,392.91Z"/><path class="cls-15" d="M165.24,422c-.87.59-1.38,1.21-1.79,1.15a1.75,1.75,0,0,1-1.12-1.18c-.05-.3.67-1,1.06-1.06S164.34,421.39,165.24,422Z"/><path class="cls-15" d="M170.23,430.06c.62.8,1.29,1.3,1.22,1.67s-.74.88-1.15,1.32c-.41-.4-1.07-.77-1.13-1.21S169.69,430.91,170.23,430.06Z"/><path class="cls-15" d="M47.62,351.55c-.46-.69-1-1.16-.93-1.46s.71-.72,1.09-1.07c.32.38.86.74.88,1.13S48.13,350.9,47.62,351.55Z"/><path class="cls-15" d="M156.49,413.76c-.48-.82-1-1.33-.94-1.71a1.63,1.63,0,0,1,1.19-.94c.27,0,.9.69.89,1.05S157.07,413,156.49,413.76Z"/><path class="cls-15" d="M203.27,497.09c-.76.57-1.21,1.16-1.59,1.12a1.6,1.6,0,0,1-1.07-1.06c-.06-.27.58-1,.94-1S202.45,496.61,203.27,497.09Z"/><path class="cls-15" d="M121.21,380c-.81.5-1.3,1.05-1.68,1a1.6,1.6,0,0,1-1-1.15c0-.27.67-.92,1-.92S120.44,379.41,121.21,380Z"/><path class="cls-15" d="M194.65,479.37c.76-.57,1.16-1.11,1.6-1.13s1.08.61,1.05.89a1.61,1.61,0,0,1-.94,1.18C196,480.39,195.47,479.85,194.65,479.37Z"/><path class="cls-15" d="M185.66,451.2c-.78.54-1.24,1.11-1.63,1.06a1.59,1.59,0,0,1-1-1.1c-.06-.28.61-1,1-1S184.87,450.68,185.66,451.2Z"/><path class="cls-15" d="M40.8,348.68c-.7.44-1.2,1-1.49.88s-.7-.73-1-1.12c.38-.31.76-.84,1.15-.84S40.16,348.15,40.8,348.68Z"/><path class="cls-15" d="M23.92,345.5c-.61.47-1,1-1.28.93a1.31,1.31,0,0,1-.87-.86c-.06-.21.46-.8.74-.82S23.25,345.12,23.92,345.5Z"/><path class="cls-15" d="M57.45,351.66c-.71.41-1.13.84-1.51.81s-.89-.7-.82-.91a1.55,1.55,0,0,1,1-.91C56.42,350.6,56.8,351.14,57.45,351.66Z"/><path class="cls-15" d="M151,402.25c-.63.45-1,.87-1.33.88s-.86-.52-.83-.73a1.35,1.35,0,0,1,.79-.95C150,401.39,150.39,401.84,151,402.25Z"/><path class="cls-15" d="M104.44,369.78c-.43-.52-.94-.88-.88-1.12s.54-.64.84-1c.28.29.75.56.78.87S104.8,369.23,104.44,369.78Z"/><path class="cls-15" d="M64.34,351.71c.46.62.94,1,.91,1.31a1.24,1.24,0,0,1-.84.9,1.26,1.26,0,0,1-.9-.85C63.47,352.75,63.92,352.36,64.34,351.71Z"/><path class="cls-15" d="M192.22,461c-.62.45-1,.93-1.3.9a1.33,1.33,0,0,1-.86-.88c-.05-.21.48-.79.76-.8S191.55,460.61,192.22,461Z"/><path class="cls-15" d="M73.65,354.6c-.55.37-1,.84-1.19.76s-.6-.6-.89-.92c.31-.26.62-.7.94-.71S73.13,354.18,73.65,354.6Z"/><path class="cls-15" d="M32.39,347.08c-.67.46-1.06.92-1.45.92s-.63-.55-1-.86c.33-.34.62-.87,1-1S31.7,346.6,32.39,347.08Z"/><circle class="cls-14" cx="60.4" cy="204.98" r="2.67"/><circle class="cls-14" cx="568.73" cy="164.13" r="4.6"/><circle class="cls-13" cx="33.54" cy="45.31" r="2.3"/><path class="cls-13" d="M663.37,92.11a2.3,2.3,0,1,1-2.3-2.3A2.3,2.3,0,0,1,663.37,92.11Z"/><circle class="cls-14" cx="432.3" cy="121.98" r="2.3"/><circle class="cls-14" cx="478.12" cy="473.14" r="2.3"/><circle class="cls-13" cx="241.29" cy="310.02" r="2.3"/><path class="cls-13" d="M718.43,377.58a2.3,2.3,0,1,1-2.3-2.29A2.3,2.3,0,0,1,718.43,377.58Z"/><path class="cls-14" d="M281.16,444.94a3.13,3.13,0,1,1-3.13-3.12A3.13,3.13,0,0,1,281.16,444.94Z"/><rect class="cls-13" x="508.62" y="33.37" width="4.22" height="14.23"/><rect class="cls-13" x="508.62" y="33.37" width="4.22" height="14.23" transform="translate(551.22 -470.25) rotate(90)"/><rect class="cls-13" x="226.06" y="164.11" width="2.74" height="9.23"/><rect class="cls-13" x="226.06" y="164.11" width="2.74" height="9.23" transform="translate(396.15 -58.7) rotate(90)"/><rect class="cls-14" x="536.99" y="443.45" width="2.74" height="9.23"/><rect class="cls-14" x="536.99" y="443.45" width="2.74" height="9.23" transform="translate(986.43 -90.3) rotate(90)"/><rect class="cls-14" x="113.17" y="441.1" width="4.95" height="16.68"/><rect class="cls-14" x="113.17" y="441.1" width="4.95" height="16.68" transform="translate(565.08 333.79) rotate(90)"/><line class="cls-12" x1="281.16" y1="33.37" x2="243.4" y2="71.13"/><line class="cls-12" x1="547.24" y1="358.27" x2="508.62" y2="396.89"/><line class="cls-16" x1="235.35" y1="393.91" x2="197.84" y2="431.42"/><line class="cls-16" x1="533.75" y1="87.19" x2="496.24" y2="124.69"/><circle class="cls-16" cx="118.12" cy="333.44" r="71.7"/></g></g></svg>