<svg xmlns="http://www.w3.org/2000/svg" xmlns:xlink="http://www.w3.org/1999/xlink" viewBox="0 0 761.36 511.74"><defs><style>.cls-1{fill:url(#linear-gradient);}.cls-2{fill:url(#linear-gradient-2);}.cls-3{fill:url(#linear-gradient-3);}.cls-4{fill:url(#linear-gradient-4);}.cls-5{fill:url(#linear-gradient-5);}.cls-6{fill:url(#linear-gradient-6);}.cls-7{fill:#fff;}</style><linearGradient id="linear-gradient" x1="538.59" y1="243.01" x2="88.11" y2="-548.92" gradientTransform="matrix(1, 0, 0, -1, 0, -223.54)" gradientUnits="userSpaceOnUse"><stop offset="0" stop-opacity="0"/><stop offset="0.19" stop-color="#000204" stop-opacity="0.03"/><stop offset="0.36" stop-color="#00060f" stop-opacity="0.11"/><stop offset="0.53" stop-color="#000f21" stop-opacity="0.25"/><stop offset="0.69" stop-color="#001a3b" stop-opacity="0.44"/><stop offset="0.84" stop-color="#00295c" stop-opacity="0.69"/><stop offset="0.99" stop-color="#003b84" stop-opacity="0.99"/><stop offset="1" stop-color="#003c86"/></linearGradient><linearGradient id="linear-gradient-2" x1="366.46" y1="-152.6" x2="145.56" y2="-540.93" gradientTransform="matrix(1, 0, 0, -1, 0, -223.54)" gradientUnits="userSpaceOnUse"><stop offset="0" stop-opacity="0"/><stop offset="0.02" stop-color="#000205" stop-opacity="0.04"/><stop offset="0.16" stop-color="#00142d" stop-opacity="0.33"/><stop offset="0.32" stop-color="#00224d" stop-opacity="0.57"/><stop offset="0.47" stop-color="#002e66" stop-opacity="0.76"/><stop offset="0.63" stop-color="#003678" stop-opacity="0.9"/><stop offset="0.8" stop-color="#003a83" stop-opacity="0.97"/><stop offset="1" stop-color="#003c86"/></linearGradient><linearGradient id="linear-gradient-3" x1="652.58" y1="-376.29" x2="424.36" y2="-777.5" xlink:href="#linear-gradient-2"/><linearGradient id="linear-gradient-4" x1="424.41" y1="102.06" x2="107.25" y2="-455.5" xlink:href="#linear-gradient"/><linearGradient id="linear-gradient-5" x1="-1924.21" y1="1245.33" x2="-2523.84" y2="191.2" gradientTransform="matrix(-1, 0, 0, 1, -1826.66, -105.33)" xlink:href="#linear-gradient"/><linearGradient id="linear-gradient-6" x1="-1994.49" y1="1166.91" x2="-2503.44" y2="272.19" gradientTransform="matrix(-1, 0, 0, 1, -1826.66, -105.33)" xlink:href="#linear-gradient"/></defs><g id="Layer_2" data-name="Layer 2"><g id="Layer_1-2" data-name="Layer 1"><path class="cls-1" d="M0,0V219c30.26,4.33,61.58,2.67,91.54-3.7C142,204.51,189,181.06,232.33,153c60.27-39.12,116-88.41,184.87-109C450.88,33.84,486.78,31,519,16.84A118.52,118.52,0,0,0,546.4,0Z"/><path class="cls-2" d="M7.09,239.17c18.57,4.9,37.45,8.09,56.69,8.47a221.11,221.11,0,0,0,54.84-6.06c18.38-4.3,35.9-10.87,53.3-18.09a407.64,407.64,0,0,0,46-22.51A446.45,446.45,0,0,0,301,139.18q4.86-4.53,9.58-9.18a143.92,143.92,0,0,1,11.3-9.63l5.25-4.2a20.31,20.31,0,0,0,3.74-4.27c1.55-2.08,4-3.71,6-5.39l5.87-5q22.17-18.87,44.71-37.3A194.91,194.91,0,0,1,411.5,47.87c8.34-4.93,16.77-9.85,25.32-14.42C453.93,24.3,472.57,18.57,491,12.84c4.65-1.45,9.3-2.9,13.94-4.39.76-.24.44-1.45-.33-1.2-18.46,5.94-37.2,11.14-55.1,18.7a203,203,0,0,0-24.19,12.56c-8.14,4.83-16.47,9.29-24.45,14.42s-15.13,11-22.42,17S363.86,82,356.6,88.11q-11.28,9.49-22.49,19.1a26.38,26.38,0,0,0-4.32,4.06,23.19,23.19,0,0,1-2,2.82q-1.44,1.27-3,2.4c-3.87,3.09-7.88,6.06-11.63,9.3-3.35,2.88-6.37,6.23-9.58,9.28s-6.42,6-9.69,9q-9.72,8.77-19.91,17a435,435,0,0,1-42.36,30.26A407.11,407.11,0,0,1,186.1,216a400.86,400.86,0,0,1-51.73,20.11,237.88,237.88,0,0,1-55.55,10.07,216.66,216.66,0,0,1-57.46-4.8c-4.68-1-9.32-2.15-13.94-3.37a.62.62,0,0,0-.33,1.2h0Z"/><path class="cls-3" d="M339.08,505a206.54,206.54,0,0,1,33.61-94.51,236.65,236.65,0,0,1,15.79-20.71c2.73-3.28,5.19-6.75,8.15-9.84s6-6.25,9-9.32c12-12.09,24.85-23.48,39.34-32.55,1.6-1,3.22-2,4.86-2.93,1.84-1.06,4-1.92,5.71-3.15a21.62,21.62,0,0,0,2.06-2,15.24,15.24,0,0,1,2.84-2.08c2.07-1.23,4.14-2.45,6.23-3.64q11.54-6.61,23.46-12.5a530.48,530.48,0,0,1,49.1-21.12C555.64,284.51,572.3,279,589,273.89c8.45-2.6,16.92-5.11,25.41-7.59,8.81-2.57,17.74-4.74,26.54-7.35,4.48-1.32,8.91-2.78,13.29-4.41,2.18-.81,4.57-2.23,6.91-2.37,2-.12,3.72.14,5.68-.6,9.09-3.42,18.15-7,27.21-10.45,8.6-3.32,17.33-6.37,25.7-10.25s16.29-8.2,24.19-12.75a24.86,24.86,0,0,0,4.93-3.4,13.74,13.74,0,0,1,5.47-3.42c.76-.24.44-1.45-.34-1.21-3.85,1.22-6.24,4.38-9.64,6.35-4.08,2.35-8.18,4.67-12.34,6.89a226.45,226.45,0,0,1-26.2,11.94c-9.06,3.44-18.08,7-27.12,10.45-2.28.88-4.55,1.75-6.83,2.61s-5,2.35-7.45,2.59c-1.76.18-3.54-.32-5.22.34-2.38.94-4.75,1.89-7.15,2.76-8.88,3.21-18,5.47-27.09,7.93-8.7,2.34-17.33,5-26,7.6C582,274.64,565,280,548.21,286c-16.5,5.91-32.79,12.43-48.68,19.83q-12.28,5.73-24.24,12.18-6,3.23-11.85,6.65a46.61,46.61,0,0,0-5.57,3.3c-.77.61-1.4,1.43-2.12,2.1a16.11,16.11,0,0,1-3.41,2.25c-14.68,8-27.83,18.5-39.95,30-6.29,6-12.59,12.08-18.33,18.58-2.91,3.28-5.35,7-8.33,10.17a109.42,109.42,0,0,0-7.74,9.71,208.85,208.85,0,0,0-38.71,92.39c-.6,3.94-1.07,7.9-1.45,11.86-.07.8,1.18.8,1.25,0Z"/><path class="cls-4" d="M0,0V138.5a127.64,127.64,0,0,0,34.36,23.89c32.84,15.54,71.08,17.42,106.62,9.85s68.65-24.07,99.13-43.85c42.43-27.55,81.69-62.25,130.15-76.77,23.72-7.1,49-9.12,71.66-19.07C457,25.94,471.07,14.3,478.32,0Z"/><path class="cls-5" d="M761.36,240.62a375.66,375.66,0,0,0-42.85,6.56c-67.2,14.3-129.79,45.52-187.41,82.92C450.88,382.18,376.65,447.79,285,475.24c-44.83,13.42-92.62,17.23-135.47,36.05l-1,.45h612.8Z"/><path class="cls-6" d="M761.36,285.54a303.18,303.18,0,0,0-88.16,5.9c-57,12.14-110.16,38.64-159.06,70.39C446,406,383,461.72,305.27,485c-34.75,10.41-71.59,14-105.42,26.73H761.36Z"/><circle class="cls-7" cx="60.4" cy="204.98" r="2.67"/></g></g></svg>