<svg xmlns="http://www.w3.org/2000/svg" xmlns:xlink="http://www.w3.org/1999/xlink" viewBox="0 0 612.79 271.11"><defs><style>.cls-1{fill:url(#radial-gradient);}.cls-2{fill:#001137;}</style><radialGradient id="radial-gradient" cx="584.51" cy="-124.97" fx="533.7515446028337" fy="324.26852194619704" r="452.1" gradientTransform="translate(759.87 -5.98) rotate(180)" gradientUnits="userSpaceOnUse"><stop offset="0" stop-opacity="0"/><stop offset="0.27" stop-color="#000309" stop-opacity="0.17"/><stop offset="0.7" stop-color="#000b22" stop-opacity="0.62"/><stop offset="1" stop-color="#001137"/></radialGradient></defs><g id="Layer_2" data-name="Layer 2"><g id="OBJECTS"><path class="cls-1" d="M612.79,0A375.67,375.67,0,0,0,570,6.56c-67.2,14.3-129.79,45.52-187.41,82.92-80.22,52.08-154.45,117.69-246.08,145.14C91.63,248,43.84,251.85,1,270.67l-1,.44H612.79Z"/><path class="cls-2" d="M612.79,271.11V50.68a304.77,304.77,0,0,0-82,6.35c-57,12.14-110.15,38.63-159.06,70.38-68.09,44.21-131.1,99.89-208.87,123.19-28.33,8.48-58.05,12.45-86.4,20.51Z"/></g></g></svg>