<svg xmlns="http://www.w3.org/2000/svg" width="200" height="199" fill="none" xmlns:v="https://vecta.io/nano"><g clip-path="url(#A)"><path d="M.65 99.669C.65 44.809 45.122.337 99.982.337h0c54.859 0 99.331 44.472 99.331 99.332h0c0 54.859-44.472 99.331-99.331 99.331h0C45.122 199 .65 154.528.65 99.669h0z" fill="#fbfcff"/><g fill="#003188"><path d="M85.318 67.739L82.72 91.06c-.693 6.323-1.256 12.862.195 19.12 1.321 5.76 4.569 10.827 9.658 13.946 4.612 2.815 10.286 3.897 15.613 2.836 7.102-1.429 12.472-6.821 16.912-12.191.801-.953-.585-2.339-1.386-1.386-3.833 4.634-8.272 9.355-14.162 11.195-4.916 1.538-10.416.867-14.963-1.559-5.045-2.706-8.293-7.362-9.679-12.862-1.472-5.89-.996-12.083-.368-18.06l2.707-24.361c.173-1.256-1.776-1.234-1.927 0zm5.822 6.475h4.699l2.555.195c.455.043 1.69-.022 2.058.303.476.411.303 1.581.303 2.165-.022.715-.065 1.429-.195 2.122-.26 1.516-.801 2.945-1.516 4.309-1.213 2.295-3.162 4.461-3.898 6.973-.303 1.039-.13 2.035.412 2.967s1.451 1.667 1.862 2.663c.476 1.148 2.36.65 1.884-.52-.476-1.126-1.278-1.906-1.927-2.902-.866-1.343-.043-2.469.671-3.681 1.537-2.62 3.335-5.132 4.136-8.12.39-1.494.585-3.053.52-4.591-.044-1.234-.195-2.555-1.451-3.118-1.299-.606-3.14-.541-4.547-.628-1.841-.13-3.703-.13-5.543-.043-1.278.022-1.278 1.97-.022 1.906zm2.254 5.175l-.411 3.66c-.13 1.234 1.819 1.234 1.949 0l.411-3.66c.152-1.256-1.797-1.234-1.949 0zm17.844-4.201a17.94 17.94 0 0 1 10.675 1.408c1.126.52 2.122-1.148.975-1.689-3.833-1.776-8.012-2.339-12.17-1.602-1.234.217-.715 2.1.52 1.884zm2.445 6.713l-.281 3.421c-.108 1.256 1.84 1.234 1.949 0l.281-3.421c.108-1.256-1.84-1.256-1.949 0zm-17.842 21.892l7.925-.563 2.079-.151c.39-.022 1.624-.325 1.971-.13.714.39-.628 1.992-.953 2.338-1.386 1.451-3.616 2.317-5.587 1.668s-3.768-2.469-4.504-4.396c-.455-1.148-2.339-.65-1.884.52 1.018 2.62 3.291 4.98 6.02 5.803 2.663.801 5.76-.39 7.536-2.447.801-.931 1.537-2.122 1.494-3.4-.065-1.407-1.126-2.057-2.426-2.013-3.876.108-7.795.563-11.671.822-1.234.109-1.234 2.058 0 1.949z"/><path d="M86.269 42.534c-5.284 4.028-7.947 11.044-6.388 17.561.758 3.118 2.62 6.28 5.63 7.666 3.703 1.667 7.796.325 11.542-.455 8.597-1.754 17.626-2.339 26.201-.238 3.227.801 6.995 2.1 7.904 5.717.888 3.551-.779 7.319-1.451 10.762-.368 1.819-.801 3.963-.303 5.782.39 1.429 1.559 3.162 3.248 2.599 1.364-.455 2.166-2.1 2.837-3.27 1.213-2.144 2.36-4.331 3.638-6.431.649-1.061-1.018-2.057-1.689-.974-1.04 1.689-1.992 3.443-2.945 5.175l-1.126 1.992c-.282.476-.65 1.256-1.148 1.537-1.169.65-1.018-3.27-.953-3.898.195-1.624.563-3.183.953-4.786.758-3.031 1.646-6.388.671-9.484-.931-2.945-3.443-4.677-6.214-5.738-3.465-1.299-7.319-1.862-11.001-2.122-3.941-.303-7.903-.151-11.823.303-3.854.455-7.6 1.343-11.411 2.057-1.862.347-3.876.541-5.717-.13-1.537-.563-2.75-1.754-3.595-3.118-3.746-6.063-1.407-14.638 4.071-18.817 1.039-.758.065-2.447-.931-1.689zm7.667-6.301c-.931-.693-2.23-.411-3.01.39-.888.931-.801 2.295-.087 3.313.823 1.126 2.187 1.559 3.53 1.559 1.819 0 3.703-.39 5.5-.606 7.405-.931 14.919-1.992 22.39-1.581 6.301.346 12.169 2.425 16.847 6.756 4.287 3.963 7.124 9.268 7.903 15.071 1.083 8.034-1.429 16.111-4.547 23.43-.476 1.148 1.191 2.144 1.689.974 4.829-11.325 7.925-24.751.628-35.772-2.923-4.396-7.081-7.99-11.931-10.091-6.128-2.663-12.993-2.599-19.532-2.165-4.006.282-7.991.758-11.975 1.256l-5.825.715c-.909.087-2.035.238-2.793-.39-.26-.217-.628-.628-.476-.996.13-.346.476-.368.715-.195.996.758 1.971-.931.975-1.667zM88.37 50.286c-1.732 2.295-.455 5.565 1.754 7.016 2.88 1.884 6.908 1.472 10.134 1.234 7.514-.541 15.634-2.295 22.736 1.191 1.126.541 2.101-1.126.975-1.689-6.128-3.01-12.971-2.49-19.554-1.841-3.356.325-6.864.844-10.221.433-1.472-.173-3.097-.65-4.006-1.906-.758-1.061-.931-2.382-.13-3.465.736-.974-.953-1.949-1.689-.974zm38.89 10.588l1.256.628c.455.216 1.083.13 1.343-.347.238-.433.13-1.083-.347-1.342l-1.255-.628c-.455-.217-1.083-.13-1.343.346-.238.455-.13 1.104.346 1.343zm-15.743-8.726c2.014-.152 3.941.043 5.846.628 1.213.368 1.711-1.516.52-1.884a17.16 17.16 0 0 0-6.366-.693c-1.234.087-1.256 2.036 0 1.949zm24.796 18.817l-.412 2.101c-.108.52.152 1.061.671 1.191.477.13 1.105-.152 1.191-.671l.412-2.101c.108-.52-.152-1.061-.671-1.191-.477-.152-1.083.151-1.191.671z"/><path d="M136.313 87.899c1.97-.238 4.396-.498 5.587 1.473s.454 4.526-.607 6.366c-1.905 3.313-5.5 5.478-9.311 5.566-1.256.043-1.256 1.992 0 1.948 4.894-.129 9.571-3.139 11.563-7.665 1.061-2.404 1.408-5.349-.195-7.601-1.645-2.317-4.439-2.36-7.016-2.057-1.255.173-1.277 2.122-.021 1.971zm1.125 3.118c-1.256.628-2.404 1.472-3.421 2.447-.91.866.476 2.252 1.386 1.386a11.99 11.99 0 0 1 3.031-2.144c1.104-.585.108-2.252-.996-1.689zm-4.006 13.75a182.91 182.91 0 0 0-3.399 38.566c.021 1.256 1.97 1.256 1.949 0-.239-12.754.866-25.53 3.313-38.046.259-1.234-1.624-1.754-1.863-.52zm-45.039 15.656a248.8 248.8 0 0 1-2.837 25.011c-.195 1.234 1.667 1.754 1.884.519a253.02 253.02 0 0 0 2.923-25.53c.043-1.256-1.906-1.256-1.971 0z"/><path d="M89.453 130.927c6.453 3.573 14.638 3.551 21.265.346s11.65-9.398 13.858-16.414c-3.508 5.674-9.397 9.81-15.915 11.196a25.29 25.29 0 0 1-19.121-3.703l-.823 8.12"/><path d="M88.977 131.769c5.478 2.967 12.018 3.595 18.016 1.949 5.695-1.559 10.589-5.175 14.097-9.874 1.97-2.62 3.443-5.587 4.439-8.705.346-1.083-1.213-1.667-1.776-.758-3.313 5.262-8.64 9.138-14.703 10.611-6.496 1.581-13.469.216-19.012-3.465-.671-.455-1.408.173-1.472.845l-.823 8.12c-.13 1.256 1.819 1.234 1.949 0l.823-8.12-1.472.844c5.977 3.963 13.534 5.349 20.506 3.66 6.54-1.603 12.278-5.825 15.851-11.499l-1.776-.757c-2.057 6.474-6.496 12.169-12.516 15.396-6.496 3.464-14.66 3.616-21.156.108-1.104-.65-2.079 1.039-.974 1.645zm-2.728 16.285c-7.362-3.183-15.028-6.063-22.845-7.904-7.536-1.754-15.093-1.797-22.434.801-6.908 2.447-13.036 6.562-18.731 11.109-6.085 4.85-11.671 10.307-17.042 15.959-6.41 6.734-12.603 13.664-18.622 20.745-.801.952.563 2.338 1.386 1.385a527.18 527.18 0 0 1 16.067-18.016c5.11-5.478 10.372-10.87 16.067-15.764 5.5-4.72 11.433-9.16 18.059-12.169 6.973-3.162 14.378-4.115 21.914-2.729 4.309.78 8.51 2.079 12.668 3.486a162.7 162.7 0 0 1 12.538 4.808c1.126.476 2.122-1.213.974-1.711zm1.665 3.421c5.349 4.526 12.516 5.76 19.337 5.738 7.796-.021 15.505-1.732 22.607-4.937 1.148-.52.152-2.187-.974-1.689-6.67 2.988-13.924 4.591-21.243 4.677-6.388.065-13.317-.909-18.363-5.175-.931-.801-2.317.563-1.364 1.386zm1.26 6.626c4.417 4.006 10.112 6.323 16.024 6.864 6.561.585 13.122-1.083 18.947-4.028 1.126-.563.13-2.252-.975-1.689-10.35 5.262-23.624 5.652-32.632-2.512-.91-.844-2.295.52-1.364 1.365zM217.47 306.93l.563-46.274c-.238-14.768-1.018-29.601-3.205-44.218-2.057-13.62-5.543-27.154-11.737-39.518-5.651-11.304-13.62-21.719-24.165-28.843-11.455-7.709-26.353-11.066-39.736-6.778-1.71.541-3.356 1.212-4.958 1.992-1.126.541-.152 2.23.974 1.689 12.819-6.171 28.302-3.941 40.233 3.183 10.676 6.388 18.796 16.306 24.643 27.154 6.409 11.91 10.112 25.076 12.342 38.371 2.361 14.075 3.205 28.41 3.573 42.659.368 14.984.065 29.99-.325 44.975l-.151 5.565c-.043 1.299 1.905 1.299 1.949.043zM28.604 186.771c-2.425 15.548-1.537 31.29.39 46.838 1.949 15.699 4.894 31.268 6.518 47.011.91 8.856 1.364 17.778.974 26.678-.065 1.256 1.884 1.256 1.949 0 .671-15.678-1.278-31.29-3.573-46.751-2.317-15.57-5.002-31.117-5.652-46.86-.368-8.813-.065-17.669 1.278-26.374.173-1.256-1.689-1.798-1.884-.542z"/><path d="M-7.471 178.326c9.463 13.274 17.648 27.457 24.361 42.333 1.927 4.288 3.746 8.619 5.413 12.993.455 1.169 2.339.649 1.884-.52-5.911-15.353-13.296-30.142-22.087-44.066a251.91 251.91 0 0 0-7.882-11.736c-.736-1.018-2.425-.044-1.689.996zm12.063 9.224c6.756 7.579 11.628 16.674 14.27 26.461.325 1.213 2.209.693 1.884-.519-2.728-10.113-7.795-19.489-14.768-27.306-.844-.953-2.23.433-1.386 1.364zm26.764-12.061c-.433.13-.801.411-.996.823-.108.238-.195.476-.195.757s.087.498.195.758c.087.217.368.39.585.455.238.065.541.043.758-.108.216-.13.39-.325.455-.585.065-.281.022-.498-.108-.758 0 .022.087.238.043.108.065.26.022.195.022.109.022-.109-.022.238-.022.13.022-.109.087-.065-.043.086l.043-.086-.065.086c.108-.108-.173.109-.065.065.087-.043-.26.087-.087.044.498-.13.845-.693.671-1.191-.152-.498-.671-.823-1.191-.693zm-9.075-13.837l3.638-3.183c.953-.823-.433-2.209-1.386-1.386l-3.638 3.183c-.931.845.455 2.209 1.386 1.386zm44.459-35.361c0-.043-.022-.086-.022-.13l-.455 1.105s.022 0 .022-.022l-1.191-.151-.13-.217.455-1.104s-.022 0-.022.021l1.191.152-.087-.087c-.888-.888-2.274.498-1.386 1.386l.087.087c.303.303.801.368 1.191.151 0 0 .022 0 .022-.021.346-.195.606-.715.455-1.105a3.15 3.15 0 0 0-.368-.649c-.26-.347-.844-.347-1.191-.152 0 0-.022 0-.022.022-.39.216-.541.693-.455 1.104 0 .043.022.087.022.13.303 1.213 2.187.693 1.884-.52zm82.694-90.903l-.779.779c-.368.368-.39 1.018 0 1.386.39.346.996.39 1.386 0l.779-.78c.368-.368.39-1.018 0-1.386-.411-.368-.996-.39-1.386 0z"/></g></g><path d="M99.982 197.676c-54.128 0-98.007-43.879-98.007-98.007H-.675c0 55.59 45.065 100.656 100.656 100.656v-2.649zm98.007-98.007c0 54.128-43.879 98.007-98.007 98.007v2.649c55.59 0 100.656-45.066 100.656-100.656h-2.649zM99.982 1.661c54.128 0 98.007 43.879 98.007 98.007h2.649c0-55.591-45.066-100.656-100.656-100.656v2.649zm0-2.649C44.391-.988-.675 44.078-.675 99.669h2.649c0-54.128 43.879-98.007 98.007-98.007V-.988z" fill="#003188" fill-opacity=".1"/><defs><clipPath id="A"><path d="M.65 99.669C.65 44.809 45.122.337 99.982.337h0c54.859 0 99.331 44.472 99.331 99.332h0c0 54.859-44.472 99.331-99.331 99.331h0C45.122 199 .65 154.528.65 99.669h0z" fill="#fff"/></clipPath></defs></svg>